<ttFont>
    <TTGlyph name=".notdef" xMin="47" yMin="23" xMax="465" yMax="458">
      <contour>
        <pt x="47" y="23" on="1"/>
        <pt x="47" y="458" on="1"/>
        <pt x="465" y="458" on="1"/>
        <pt x="465" y="23" on="1"/>
      </contour>
      <contour>
        <pt x="105" y="393" on="1"/>
        <pt x="105" y="89" on="1"/>
        <pt x="409" y="89" on="1"/>
        <pt x="409" y="393" on="1"/>
      </contour>
    </TTGlyph>
    <TTGlyph name="A" xMin="-20" yMin="0" xMax="696" yMax="674">
      <contour>
        <pt x="442" y="262" on="1"/>
        <pt x="330" y="544" on="1"/>
        <pt x="220" y="262" on="1"/>
      </contour>
      <contour>
        <pt x="-14" y="0" on="1"/>
        <pt x="-20" y="32" on="1"/>
        <pt x="-1" y="41" on="0"/>
        <pt x="41" y="55" on="0"/>
        <pt x="63" y="62" on="1"/>
        <pt x="297" y="629" on="1"/>
        <pt x="290" y="647" on="1"/>
        <pt x="369" y="674" on="1"/>
        <pt x="623" y="55" on="1"/>
        <pt x="696" y="47" on="1"/>
        <pt x="695" y="0" on="1"/>
        <pt x="427" y="0" on="1"/>
        <pt x="421" y="32" on="1"/>
        <pt x="443" y="42" on="0"/>
        <pt x="495" y="60" on="0"/>
        <pt x="519" y="67" on="1"/>
        <pt x="466" y="201" on="1"/>
        <pt x="196" y="201" on="1"/>
        <pt x="140" y="59" on="1"/>
        <pt x="245" y="47" on="1"/>
        <pt x="244" y="0" on="1"/>
      </contour>
    </TTGlyph>
    <TTGlyph name="AE" xMin="10" yMin="0" xMax="861" yMax="650">
      <contour>
        <pt x="461" y="262" on="1"/>
        <pt x="461" y="597" on="1"/>
        <pt x="285" y="262" on="1"/>
      </contour>
      <contour>
        <pt x="16" y="0" on="1"/>
        <pt x="10" y="35" on="1"/>
        <pt x="27" y="44" on="0"/>
        <pt x="91" y="65" on="0"/>
        <pt x="104" y="69" on="1"/>
        <pt x="391" y="599" on="1"/>
        <pt x="336" y="602" on="1"/>
        <pt x="337" y="650" on="1"/>
        <pt x="848" y="650" on="1"/>
        <pt x="850" y="625" on="0"/>
        <pt x="846" y="531" on="0"/>
        <pt x="838" y="485" on="1"/>
        <pt x="784" y="485" on="1"/>
        <pt x="772" y="576" on="1"/>
        <pt x="554" y="585" on="1"/>
        <pt x="554" y="354" on="1"/>
        <pt x="783" y="371" on="1"/>
        <pt x="783" y="284" on="1"/>
        <pt x="554" y="294" on="1"/>
        <pt x="554" y="65" on="1"/>
        <pt x="781" y="75" on="1"/>
        <pt x="807" y="183" on="1"/>
        <pt x="860" y="179" on="1"/>
        <pt x="861" y="139" on="0"/>
        <pt x="854" y="32" on="0"/>
        <pt x="848" y="0" on="1"/>
        <pt x="382" y="0" on="1"/>
        <pt x="376" y="35" on="1"/>
        <pt x="391" y="42" on="0"/>
        <pt x="445" y="61" on="0"/>
        <pt x="461" y="66" on="1"/>
        <pt x="461" y="201" on="1"/>
        <pt x="253" y="201" on="1"/>
        <pt x="253" y="202" on="1"/>
        <pt x="178" y="58" on="1"/>
        <pt x="275" y="47" on="1"/>
        <pt x="274" y="0" on="1"/>
      </contour>
    </TTGlyph>
    <TTGlyph name="Aacute" xMin="-20" yMin="0" xMax="696" yMax="874">
      <component glyphName="A" x="0" y="0" flags="0x204"/>
      <component glyphName="acutecomb.case" x="333" y="0" flags="0x4"/>
    </TTGlyph>
    <TTGlyph name="Abreve" xMin="-20" yMin="0" xMax="696" yMax="853">
      <component glyphName="A" x="0" y="0" flags="0x204"/>
      <component glyphName="uni0306.case" x="335" y="0" flags="0x4"/>
    </TTGlyph>
    <TTGlyph name="Acircumflex" xMin="-20" yMin="0" xMax="696" yMax="873">
      <component glyphName="A" x="0" y="0" flags="0x204"/>
      <component glyphName="uni0302.case" x="335" y="0" flags="0x4"/>
    </TTGlyph>
    <TTGlyph name="Adieresis" xMin="-20" yMin="0" xMax="696" yMax="859">
      <component glyphName="A" x="0" y="0" flags="0x204"/>
      <component glyphName="uni0308.case" x="334" y="182" flags="0x4"/>
    </TTGlyph>
    <TTGlyph name="Agrave" xMin="-20" yMin="0" xMax="696" yMax="874">
      <component glyphName="A" x="0" y="0" flags="0x204"/>
      <component glyphName="gravecomb.case" x="336" y="0" flags="0x4"/>
    </TTGlyph>
    <TTGlyph name="Amacron" xMin="-20" yMin="0" xMax="696" yMax="811">
      <component glyphName="A" x="0" y="0" flags="0x204"/>
      <component glyphName="uni0304.case" x="333" y="0" flags="0x4"/>
    </TTGlyph>
    <TTGlyph name="Aogonek" xMin="-20" yMin="-257" xMax="696" yMax="674">
      <component glyphName="A" x="0" y="0" flags="0x204"/>
      <component glyphName="uni0328.case" x="629" y="-9" flags="0x4"/>
    </TTGlyph>
    <TTGlyph name="Aring" xMin="-20" yMin="0" xMax="696" yMax="928">
      <component glyphName="A" x="0" y="0" flags="0x204"/>
      <component glyphName="uni030A.case" x="334" y="0" flags="0x4"/>
    </TTGlyph>
    <TTGlyph name="Atilde" xMin="-20" yMin="0" xMax="696" yMax="862">
      <component glyphName="A" x="0" y="0" flags="0x204"/>
      <component glyphName="tildecomb.case" x="335" y="0" flags="0x4"/>
    </TTGlyph>
    <TTGlyph name="B" xMin="30" yMin="0" xMax="584" yMax="658">
      <contour>
        <pt x="345" y="599" on="1"/>
        <pt x="208" y="584" on="1"/>
        <pt x="208" y="368" on="1"/>
        <pt x="258" y="368" on="1"/>
        <pt x="360" y="368" on="0"/>
        <pt x="446" y="441" on="0"/>
        <pt x="446" y="485" on="1"/>
        <pt x="446" y="525" on="0"/>
        <pt x="389" y="592" on="0"/>
      </contour>
      <contour>
        <pt x="308" y="61" on="1"/>
        <pt x="393" y="54" on="0"/>
        <pt x="476" y="128" on="0"/>
        <pt x="476" y="177" on="1"/>
        <pt x="476" y="226" on="0"/>
        <pt x="390" y="314" on="0"/>
        <pt x="306" y="314" on="1"/>
        <pt x="208" y="314" on="1"/>
        <pt x="208" y="69" on="1"/>
      </contour>
      <contour>
        <pt x="36" y="0" on="1"/>
        <pt x="30" y="32" on="1"/>
        <pt x="49" y="41" on="0"/>
        <pt x="93" y="56" on="0"/>
        <pt x="115" y="63" on="1"/>
        <pt x="115" y="598" on="1"/>
        <pt x="44" y="602" on="1"/>
        <pt x="45" y="650" on="1"/>
        <pt x="107" y="653" on="0"/>
        <pt x="245" y="658" on="0"/>
        <pt x="306" y="658" on="1"/>
        <pt x="436" y="658" on="0"/>
        <pt x="549" y="555" on="0"/>
        <pt x="549" y="492" on="1"/>
        <pt x="549" y="442" on="0"/>
        <pt x="481" y="355" on="0"/>
        <pt x="406" y="347" on="1"/>
        <pt x="493" y="337" on="0"/>
        <pt x="584" y="239" on="0"/>
        <pt x="584" y="179" on="1"/>
        <pt x="584" y="108" on="0"/>
        <pt x="452" y="0" on="0"/>
        <pt x="318" y="0" on="1"/>
      </contour>
    </TTGlyph>
    <TTGlyph name="C" xMin="15" yMin="-16" xMax="533" yMax="670">
      <contour>
        <pt x="337" y="-15" on="1"/>
        <pt x="255" y="-16" on="0"/>
        <pt x="133" y="39" on="0"/>
        <pt x="54" y="130" on="0"/>
        <pt x="15" y="252" on="0"/>
        <pt x="15" y="317" on="1"/>
        <pt x="15" y="382" on="0"/>
        <pt x="54" y="509" on="0"/>
        <pt x="130" y="608" on="0"/>
        <pt x="247" y="670" on="0"/>
        <pt x="324" y="670" on="1"/>
        <pt x="393" y="670" on="0"/>
        <pt x="492" y="628" on="0"/>
        <pt x="517" y="609" on="1"/>
        <pt x="519" y="584" on="0"/>
        <pt x="514" y="497" on="0"/>
        <pt x="500" y="454" on="1"/>
        <pt x="440" y="454" on="1"/>
        <pt x="433" y="556" on="1"/>
        <pt x="390" y="581" on="0"/>
        <pt x="293" y="604" on="0"/>
        <pt x="236" y="597" on="1"/>
        <pt x="170" y="560" on="0"/>
        <pt x="117" y="410" on="0"/>
        <pt x="117" y="340" on="1"/>
        <pt x="117" y="282" on="0"/>
        <pt x="148" y="178" on="0"/>
        <pt x="210" y="104" on="0"/>
        <pt x="301" y="64" on="0"/>
        <pt x="361" y="68" on="1"/>
        <pt x="515" y="122" on="1"/>
        <pt x="533" y="73" on="1"/>
      </contour>
    </TTGlyph>
    <TTGlyph name="Cacute" xMin="15" yMin="-16" xMax="533" yMax="874">
      <component glyphName="C" x="0" y="0" flags="0x204"/>
      <component glyphName="acutecomb.case" x="313" y="0" flags="0x4"/>
    </TTGlyph>
    <TTGlyph name="Ccaron" xMin="15" yMin="-16" xMax="533" yMax="877">
      <component glyphName="C" x="0" y="0" flags="0x204"/>
      <component glyphName="uni030C.case" x="315" y="0" flags="0x4"/>
    </TTGlyph>
    <TTGlyph name="Ccedilla" xMin="15" yMin="-265" xMax="533" yMax="670">
      <component glyphName="C" x="0" y="0" flags="0x204"/>
      <component glyphName="uni0327.case" x="314" y="0" flags="0x4"/>
    </TTGlyph>
    <TTGlyph name="D" xMin="30" yMin="0" xMax="635" yMax="658">
      <contour>
        <pt x="301" y="66" on="1"/>
        <pt x="360" y="66" on="0"/>
        <pt x="447" y="111" on="0"/>
        <pt x="503" y="185" on="0"/>
        <pt x="531" y="280" on="0"/>
        <pt x="531" y="329" on="1"/>
        <pt x="531" y="419" on="0"/>
        <pt x="451" y="568" on="0"/>
        <pt x="392" y="599" on="1"/>
        <pt x="208" y="584" on="1"/>
        <pt x="208" y="79" on="1"/>
        <pt x="233" y="72" on="0"/>
        <pt x="280" y="66" on="0"/>
      </contour>
      <contour>
        <pt x="36" y="0" on="1"/>
        <pt x="30" y="32" on="1"/>
        <pt x="49" y="41" on="0"/>
        <pt x="93" y="56" on="0"/>
        <pt x="115" y="63" on="1"/>
        <pt x="115" y="598" on="1"/>
        <pt x="44" y="602" on="1"/>
        <pt x="45" y="650" on="1"/>
        <pt x="119" y="654" on="0"/>
        <pt x="268" y="658" on="0"/>
        <pt x="342" y="658" on="1"/>
        <pt x="410" y="658" on="0"/>
        <pt x="520" y="601" on="0"/>
        <pt x="595" y="509" on="0"/>
        <pt x="635" y="390" on="0"/>
        <pt x="635" y="329" on="1"/>
        <pt x="635" y="268" on="0"/>
        <pt x="597" y="149" on="0"/>
        <pt x="516" y="57" on="0"/>
        <pt x="389" y="0" on="0"/>
        <pt x="302" y="0" on="1"/>
      </contour>
    </TTGlyph>
    <TTGlyph name="Dcaron" xMin="30" yMin="0" xMax="635" yMax="877">
      <component glyphName="D" x="0" y="0" flags="0x204"/>
      <component glyphName="uni030C.case" x="303" y="0" flags="0x4"/>
    </TTGlyph>
    <TTGlyph name="Dcroat" xMin="17" yMin="0" xMax="635" yMax="658">
      <contour>
        <pt x="301" y="66" on="1"/>
        <pt x="360" y="66" on="0"/>
        <pt x="447" y="111" on="0"/>
        <pt x="503" y="185" on="0"/>
        <pt x="531" y="280" on="0"/>
        <pt x="531" y="329" on="1"/>
        <pt x="531" y="419" on="0"/>
        <pt x="451" y="568" on="0"/>
        <pt x="392" y="599" on="1"/>
        <pt x="208" y="584" on="1"/>
        <pt x="208" y="358" on="1"/>
        <pt x="362" y="358" on="1"/>
        <pt x="368" y="329" on="1"/>
        <pt x="325" y="286" on="1"/>
        <pt x="208" y="286" on="1"/>
        <pt x="208" y="79" on="1"/>
        <pt x="233" y="72" on="0"/>
        <pt x="280" y="66" on="0"/>
      </contour>
      <contour>
        <pt x="36" y="0" on="1"/>
        <pt x="30" y="32" on="1"/>
        <pt x="49" y="41" on="0"/>
        <pt x="93" y="56" on="0"/>
        <pt x="115" y="63" on="1"/>
        <pt x="115" y="286" on="1"/>
        <pt x="23" y="286" on="1"/>
        <pt x="17" y="315" on="1"/>
        <pt x="60" y="358" on="1"/>
        <pt x="115" y="358" on="1"/>
        <pt x="115" y="598" on="1"/>
        <pt x="44" y="602" on="1"/>
        <pt x="45" y="650" on="1"/>
        <pt x="119" y="654" on="0"/>
        <pt x="268" y="658" on="0"/>
        <pt x="342" y="658" on="1"/>
        <pt x="410" y="658" on="0"/>
        <pt x="520" y="601" on="0"/>
        <pt x="595" y="509" on="0"/>
        <pt x="635" y="390" on="0"/>
        <pt x="635" y="329" on="1"/>
        <pt x="635" y="268" on="0"/>
        <pt x="597" y="149" on="0"/>
        <pt x="516" y="57" on="0"/>
        <pt x="389" y="0" on="0"/>
        <pt x="302" y="0" on="1"/>
      </contour>
    </TTGlyph>
    <TTGlyph name="E" xMin="30" yMin="0" xMax="515" yMax="650">
      <contour>
        <pt x="36" y="0" on="1"/>
        <pt x="30" y="32" on="1"/>
        <pt x="49" y="41" on="0"/>
        <pt x="93" y="56" on="0"/>
        <pt x="115" y="63" on="1"/>
        <pt x="115" y="598" on="1"/>
        <pt x="44" y="602" on="1"/>
        <pt x="45" y="650" on="1"/>
        <pt x="502" y="650" on="1"/>
        <pt x="504" y="625" on="0"/>
        <pt x="500" y="531" on="0"/>
        <pt x="492" y="485" on="1"/>
        <pt x="438" y="485" on="1"/>
        <pt x="426" y="577" on="1"/>
        <pt x="208" y="592" on="1"/>
        <pt x="208" y="354" on="1"/>
        <pt x="437" y="371" on="1"/>
        <pt x="437" y="284" on="1"/>
        <pt x="208" y="294" on="1"/>
        <pt x="208" y="65" on="1"/>
        <pt x="435" y="75" on="1"/>
        <pt x="461" y="183" on="1"/>
        <pt x="514" y="179" on="1"/>
        <pt x="515" y="139" on="0"/>
        <pt x="508" y="32" on="0"/>
        <pt x="502" y="0" on="1"/>
      </contour>
    </TTGlyph>
    <TTGlyph name="Eacute" xMin="30" yMin="0" xMax="515" yMax="874">
      <component glyphName="E" x="0" y="0" flags="0x204"/>
      <component glyphName="acutecomb.case" x="289" y="0" flags="0x4"/>
    </TTGlyph>
    <TTGlyph name="Ecaron" xMin="30" yMin="0" xMax="515" yMax="877">
      <component glyphName="E" x="0" y="0" flags="0x204"/>
      <component glyphName="uni030C.case" x="291" y="0" flags="0x4"/>
    </TTGlyph>
    <TTGlyph name="Ecircumflex" xMin="30" yMin="0" xMax="515" yMax="873">
      <component glyphName="E" x="0" y="0" flags="0x204"/>
      <component glyphName="uni0302.case" x="291" y="0" flags="0x4"/>
    </TTGlyph>
    <TTGlyph name="Edieresis" xMin="30" yMin="0" xMax="515" yMax="859">
      <component glyphName="E" x="0" y="0" flags="0x204"/>
      <component glyphName="uni0308.case" x="290" y="182" flags="0x4"/>
    </TTGlyph>
    <TTGlyph name="Edotaccent" xMin="30" yMin="0" xMax="515" yMax="859">
      <component glyphName="E" x="0" y="0" flags="0x204"/>
      <component glyphName="uni0307.case" x="290" y="182" flags="0x4"/>
    </TTGlyph>
    <TTGlyph name="Egrave" xMin="30" yMin="0" xMax="515" yMax="874">
      <component glyphName="E" x="0" y="0" flags="0x204"/>
      <component glyphName="gravecomb.case" x="292" y="0" flags="0x4"/>
    </TTGlyph>
    <TTGlyph name="Emacron" xMin="30" yMin="0" xMax="515" yMax="811">
      <component glyphName="E" x="0" y="0" flags="0x204"/>
      <component glyphName="uni0304.case" x="289" y="0" flags="0x4"/>
    </TTGlyph>
    <TTGlyph name="Eogonek" xMin="30" yMin="-257" xMax="544" yMax="650">
      <component glyphName="E" x="0" y="0" flags="0x204"/>
      <component glyphName="uni0328.case" x="503" y="-9" flags="0x4"/>
    </TTGlyph>
    <TTGlyph name="Eth" xMin="17" yMin="0" xMax="635" yMax="658">
      <component glyphName="Dcroat" x="0" y="0" flags="0x204"/>
    </TTGlyph>
    <TTGlyph name="Euro" xMin="-32" yMin="-20" xMax="572" yMax="670">
      <contour>
        <pt x="572" y="57" on="1"/>
        <pt x="387" y="-20" on="1"/>
        <pt x="268" y="-16" on="0"/>
        <pt x="121" y="112" on="0"/>
        <pt x="96" y="209" on="1"/>
        <pt x="-26" y="209" on="1"/>
        <pt x="-32" y="228" on="1"/>
        <pt x="1" y="264" on="1"/>
        <pt x="87" y="264" on="1"/>
        <pt x="86" y="276" on="0"/>
        <pt x="84" y="300" on="0"/>
        <pt x="84" y="312" on="1"/>
        <pt x="84" y="323" on="0"/>
        <pt x="85" y="345" on="0"/>
        <pt x="86" y="356" on="1"/>
        <pt x="1" y="356" on="1"/>
        <pt x="-5" y="375" on="1"/>
        <pt x="29" y="411" on="1"/>
        <pt x="94" y="411" on="1"/>
        <pt x="105" y="462" on="0"/>
        <pt x="152" y="556" on="0"/>
        <pt x="224" y="627" on="0"/>
        <pt x="325" y="670" on="0"/>
        <pt x="390" y="670" on="1"/>
        <pt x="445" y="670" on="0"/>
        <pt x="536" y="638" on="0"/>
        <pt x="572" y="609" on="1"/>
        <pt x="571" y="571" on="0"/>
        <pt x="559" y="491" on="0"/>
        <pt x="553" y="468" on="1"/>
        <pt x="498" y="468" on="1"/>
        <pt x="492" y="569" on="1"/>
        <pt x="451" y="594" on="0"/>
        <pt x="365" y="617" on="0"/>
        <pt x="322" y="612" on="1"/>
        <pt x="274" y="584" on="0"/>
        <pt x="209" y="477" on="0"/>
        <pt x="195" y="411" on="1"/>
        <pt x="520" y="411" on="1"/>
        <pt x="526" y="392" on="1"/>
        <pt x="493" y="356" on="1"/>
        <pt x="188" y="356" on="1"/>
        <pt x="187" y="346" on="0"/>
        <pt x="186" y="327" on="0"/>
        <pt x="186" y="317" on="1"/>
        <pt x="186" y="304" on="0"/>
        <pt x="188" y="277" on="0"/>
        <pt x="189" y="264" on="1"/>
        <pt x="480" y="264" on="1"/>
        <pt x="486" y="245" on="1"/>
        <pt x="452" y="209" on="1"/>
        <pt x="201" y="209" on="1"/>
        <pt x="220" y="149" on="0"/>
        <pt x="319" y="67" on="0"/>
        <pt x="409" y="63" on="1"/>
        <pt x="554" y="105" on="1"/>
      </contour>
    </TTGlyph>
    <TTGlyph name="F" xMin="30" yMin="0" xMax="504" yMax="650">
      <contour>
        <pt x="36" y="0" on="1"/>
        <pt x="30" y="32" on="1"/>
        <pt x="49" y="41" on="0"/>
        <pt x="93" y="56" on="0"/>
        <pt x="115" y="63" on="1"/>
        <pt x="115" y="598" on="1"/>
        <pt x="44" y="602" on="1"/>
        <pt x="45" y="650" on="1"/>
        <pt x="502" y="650" on="1"/>
        <pt x="504" y="625" on="0"/>
        <pt x="500" y="531" on="0"/>
        <pt x="492" y="485" on="1"/>
        <pt x="438" y="485" on="1"/>
        <pt x="426" y="577" on="1"/>
        <pt x="208" y="592" on="1"/>
        <pt x="208" y="334" on="1"/>
        <pt x="437" y="351" on="1"/>
        <pt x="437" y="264" on="1"/>
        <pt x="208" y="274" on="1"/>
        <pt x="208" y="61" on="1"/>
        <pt x="325" y="47" on="1"/>
        <pt x="324" y="0" on="1"/>
      </contour>
    </TTGlyph>
    <TTGlyph name="G" xMin="15" yMin="-25" xMax="640" yMax="670">
      <contour>
        <pt x="369" y="-20" on="1"/>
        <pt x="280" y="-25" on="0"/>
        <pt x="146" y="29" on="0"/>
        <pt x="59" y="123" on="0"/>
        <pt x="15" y="246" on="0"/>
        <pt x="15" y="311" on="1"/>
        <pt x="15" y="378" on="0"/>
        <pt x="57" y="508" on="0"/>
        <pt x="142" y="608" on="0"/>
        <pt x="272" y="670" on="0"/>
        <pt x="359" y="670" on="1"/>
        <pt x="432" y="670" on="0"/>
        <pt x="536" y="627" on="0"/>
        <pt x="559" y="609" on="1"/>
        <pt x="561" y="584" on="0"/>
        <pt x="555" y="508" on="0"/>
        <pt x="542" y="464" on="1"/>
        <pt x="483" y="464" on="1"/>
        <pt x="475" y="553" on="1"/>
        <pt x="438" y="573" on="0"/>
        <pt x="318" y="607" on="0"/>
        <pt x="245" y="597" on="1"/>
        <pt x="177" y="560" on="0"/>
        <pt x="117" y="404" on="0"/>
        <pt x="117" y="319" on="1"/>
        <pt x="117" y="269" on="0"/>
        <pt x="146" y="173" on="0"/>
        <pt x="202" y="99" on="0"/>
        <pt x="286" y="54" on="0"/>
        <pt x="342" y="54" on="1"/>
        <pt x="375" y="54" on="0"/>
        <pt x="442" y="67" on="0"/>
        <pt x="471" y="76" on="1"/>
        <pt x="471" y="227" on="1"/>
        <pt x="446" y="234" on="0"/>
        <pt x="387" y="254" on="0"/>
        <pt x="361" y="266" on="1"/>
        <pt x="367" y="301" on="1"/>
        <pt x="639" y="301" on="1"/>
        <pt x="640" y="252" on="1"/>
        <pt x="564" y="243" on="1"/>
        <pt x="564" y="71" on="1"/>
      </contour>
    </TTGlyph>
    <TTGlyph name="Gbreve" xMin="15" yMin="-25" xMax="640" yMax="853">
      <component glyphName="G" x="0" y="0" flags="0x204"/>
      <component glyphName="uni0306.case" x="340" y="0" flags="0x4"/>
    </TTGlyph>
    <TTGlyph name="Gcommaaccent" xMin="15" yMin="-264" xMax="640" yMax="670">
      <component glyphName="G" x="0" y="0" flags="0x204"/>
      <component glyphName="uni0326.case" x="339" y="0" flags="0x4"/>
    </TTGlyph>
    <TTGlyph name="H" xMin="30" yMin="0" xMax="721" yMax="650">
      <contour>
        <pt x="36" y="0" on="1"/>
        <pt x="30" y="32" on="1"/>
        <pt x="49" y="41" on="0"/>
        <pt x="93" y="56" on="0"/>
        <pt x="115" y="63" on="1"/>
        <pt x="115" y="594" on="1"/>
        <pt x="38" y="603" on="1"/>
        <pt x="39" y="650" on="1"/>
        <pt x="287" y="650" on="1"/>
        <pt x="293" y="618" on="1"/>
        <pt x="274" y="609" on="0"/>
        <pt x="230" y="594" on="0"/>
        <pt x="208" y="587" on="1"/>
        <pt x="208" y="357" on="1"/>
        <pt x="531" y="357" on="1"/>
        <pt x="531" y="594" on="1"/>
        <pt x="454" y="603" on="1"/>
        <pt x="455" y="650" on="1"/>
        <pt x="703" y="650" on="1"/>
        <pt x="709" y="618" on="1"/>
        <pt x="690" y="609" on="0"/>
        <pt x="646" y="594" on="0"/>
        <pt x="624" y="587" on="1"/>
        <pt x="624" y="58" on="1"/>
        <pt x="721" y="47" on="1"/>
        <pt x="720" y="0" on="1"/>
        <pt x="452" y="0" on="1"/>
        <pt x="446" y="32" on="1"/>
        <pt x="465" y="41" on="0"/>
        <pt x="509" y="56" on="0"/>
        <pt x="531" y="63" on="1"/>
        <pt x="531" y="287" on="1"/>
        <pt x="208" y="287" on="1"/>
        <pt x="208" y="58" on="1"/>
        <pt x="305" y="47" on="1"/>
        <pt x="304" y="0" on="1"/>
      </contour>
    </TTGlyph>
    <TTGlyph name="I" xMin="30" yMin="0" xMax="305" yMax="650">
      <contour>
        <pt x="36" y="0" on="1"/>
        <pt x="30" y="32" on="1"/>
        <pt x="49" y="41" on="0"/>
        <pt x="93" y="56" on="0"/>
        <pt x="115" y="63" on="1"/>
        <pt x="115" y="594" on="1"/>
        <pt x="38" y="603" on="1"/>
        <pt x="39" y="650" on="1"/>
        <pt x="287" y="650" on="1"/>
        <pt x="293" y="618" on="1"/>
        <pt x="274" y="609" on="0"/>
        <pt x="230" y="594" on="0"/>
        <pt x="208" y="587" on="1"/>
        <pt x="208" y="58" on="1"/>
        <pt x="305" y="47" on="1"/>
        <pt x="304" y="0" on="1"/>
      </contour>
    </TTGlyph>
    <TTGlyph name="Iacute" xMin="30" yMin="0" xMax="327" yMax="874">
      <component glyphName="I" x="0" y="0" flags="0x204"/>
      <component glyphName="acutecomb.case" x="161" y="0" flags="0x4"/>
    </TTGlyph>
    <TTGlyph name="Icircumflex" xMin="-23" yMin="0" xMax="351" yMax="873">
      <component glyphName="I" x="0" y="0" flags="0x204"/>
      <component glyphName="uni0302.case" x="163" y="0" flags="0x4"/>
    </TTGlyph>
    <TTGlyph name="Idieresis" xMin="2" yMin="0" xMax="323" yMax="859">
      <component glyphName="I" x="0" y="0" flags="0x204"/>
      <component glyphName="uni0308.case" x="162" y="182" flags="0x4"/>
    </TTGlyph>
    <TTGlyph name="Idotaccent" xMin="30" yMin="0" xMax="305" yMax="859">
      <component glyphName="I" x="0" y="0" flags="0x204"/>
      <component glyphName="uni0307.case" x="162" y="182" flags="0x4"/>
    </TTGlyph>
    <TTGlyph name="Igrave" xMin="30" yMin="0" xMax="305" yMax="874">
      <component glyphName="I" x="0" y="0" flags="0x204"/>
      <component glyphName="gravecomb.case" x="164" y="0" flags="0x4"/>
    </TTGlyph>
    <TTGlyph name="Imacron" xMin="30" yMin="0" xMax="331" yMax="784">
      <contour>
        <pt x="30" y="759" on="1"/>
        <pt x="59" y="774" on="0"/>
        <pt x="120" y="784" on="0"/>
        <pt x="143" y="784" on="1"/>
        <pt x="326" y="784" on="1"/>
        <pt x="331" y="749" on="1"/>
        <pt x="284" y="715" on="1"/>
        <pt x="36" y="715" on="1"/>
      </contour>
      <contour>
        <pt x="49" y="0" on="1"/>
        <pt x="43" y="32" on="1"/>
        <pt x="62" y="41" on="0"/>
        <pt x="106" y="56" on="0"/>
        <pt x="128" y="63" on="1"/>
        <pt x="128" y="594" on="1"/>
        <pt x="51" y="603" on="1"/>
        <pt x="52" y="650" on="1"/>
        <pt x="300" y="650" on="1"/>
        <pt x="306" y="618" on="1"/>
        <pt x="287" y="609" on="0"/>
        <pt x="243" y="594" on="0"/>
        <pt x="221" y="587" on="1"/>
        <pt x="221" y="58" on="1"/>
        <pt x="318" y="47" on="1"/>
        <pt x="317" y="0" on="1"/>
      </contour>
    </TTGlyph>
    <TTGlyph name="Iogonek" xMin="30" yMin="-257" xMax="305" yMax="650">
      <component glyphName="I" x="0" y="0" flags="0x204"/>
      <component glyphName="uni0328.case" x="233" y="-9" flags="0x4"/>
    </TTGlyph>
    <TTGlyph name="J" xMin="-4" yMin="-182" xMax="317" yMax="650">
      <contour>
        <pt x="32" y="-182" on="1"/>
        <pt x="-4" y="-131" on="1"/>
        <pt x="59" y="-91" on="0"/>
        <pt x="139" y="21" on="0"/>
        <pt x="139" y="128" on="1"/>
        <pt x="139" y="592" on="1"/>
        <pt x="42" y="603" on="1"/>
        <pt x="43" y="650" on="1"/>
        <pt x="311" y="650" on="1"/>
        <pt x="317" y="618" on="1"/>
        <pt x="298" y="609" on="0"/>
        <pt x="254" y="594" on="0"/>
        <pt x="232" y="587" on="1"/>
        <pt x="232" y="81" on="1"/>
        <pt x="232" y="33" on="0"/>
        <pt x="197" y="-45" on="0"/>
        <pt x="141" y="-108" on="0"/>
        <pt x="69" y="-160" on="0"/>
      </contour>
    </TTGlyph>
    <TTGlyph name="K" xMin="30" yMin="0" xMax="638" yMax="650">
      <contour>
        <pt x="36" y="0" on="1"/>
        <pt x="30" y="32" on="1"/>
        <pt x="49" y="41" on="0"/>
        <pt x="93" y="56" on="0"/>
        <pt x="115" y="63" on="1"/>
        <pt x="115" y="594" on="1"/>
        <pt x="37" y="603" on="1"/>
        <pt x="38" y="650" on="1"/>
        <pt x="287" y="650" on="1"/>
        <pt x="293" y="618" on="1"/>
        <pt x="274" y="609" on="0"/>
        <pt x="230" y="594" on="0"/>
        <pt x="208" y="587" on="1"/>
        <pt x="208" y="330" on="1"/>
        <pt x="455" y="595" on="1"/>
        <pt x="385" y="603" on="1"/>
        <pt x="386" y="650" on="1"/>
        <pt x="603" y="650" on="1"/>
        <pt x="609" y="618" on="1"/>
        <pt x="593" y="611" on="0"/>
        <pt x="557" y="598" on="0"/>
        <pt x="539" y="592" on="1"/>
        <pt x="337" y="376" on="1"/>
        <pt x="580" y="52" on="1"/>
        <pt x="638" y="48" on="1"/>
        <pt x="637" y="0" on="1"/>
        <pt x="499" y="0" on="1"/>
        <pt x="274" y="309" on="1"/>
        <pt x="208" y="238" on="1"/>
        <pt x="208" y="58" on="1"/>
        <pt x="305" y="47" on="1"/>
        <pt x="304" y="0" on="1"/>
      </contour>
    </TTGlyph>
    <TTGlyph name="Kcommaaccent" xMin="30" yMin="-264" xMax="638" yMax="650">
      <component glyphName="K" x="0" y="0" flags="0x204"/>
      <component glyphName="uni0326.case" x="365" y="0" flags="0x4"/>
    </TTGlyph>
    <TTGlyph name="L" xMin="30" yMin="0" xMax="535" yMax="650">
      <contour>
        <pt x="36" y="0" on="1"/>
        <pt x="30" y="32" on="1"/>
        <pt x="49" y="41" on="0"/>
        <pt x="93" y="56" on="0"/>
        <pt x="115" y="63" on="1"/>
        <pt x="115" y="594" on="1"/>
        <pt x="38" y="603" on="1"/>
        <pt x="39" y="650" on="1"/>
        <pt x="287" y="650" on="1"/>
        <pt x="293" y="618" on="1"/>
        <pt x="274" y="609" on="0"/>
        <pt x="230" y="594" on="0"/>
        <pt x="208" y="587" on="1"/>
        <pt x="208" y="67" on="1"/>
        <pt x="452" y="77" on="1"/>
        <pt x="478" y="203" on="1"/>
        <pt x="534" y="199" on="1"/>
        <pt x="535" y="153" on="0"/>
        <pt x="529" y="36" on="0"/>
        <pt x="522" y="0" on="1"/>
      </contour>
    </TTGlyph>
    <TTGlyph name="Lacute" xMin="30" yMin="0" xMax="535" yMax="874">
      <component glyphName="L" x="0" y="0" flags="0x204"/>
      <component glyphName="acutecomb.case" x="159" y="0" flags="0x4"/>
    </TTGlyph>
    <TTGlyph name="Lcaron" xMin="30" yMin="0" xMax="538" yMax="763">
      <component glyphName="L" x="0" y="0" flags="0x204"/>
      <component glyphName="uni030C.calt" x="406" y="1" flags="0x4"/>
    </TTGlyph>
    <TTGlyph name="Lcommaaccent" xMin="30" yMin="-264" xMax="535" yMax="650">
      <component glyphName="L" x="0" y="0" flags="0x204"/>
      <component glyphName="uni0326.case" x="272" y="0" flags="0x4"/>
    </TTGlyph>
    <TTGlyph name="Lslash" xMin="30" yMin="0" xMax="551" yMax="650">
      <contour>
        <pt x="52" y="0" on="1"/>
        <pt x="46" y="32" on="1"/>
        <pt x="65" y="41" on="0"/>
        <pt x="109" y="56" on="0"/>
        <pt x="131" y="63" on="1"/>
        <pt x="131" y="239" on="1"/>
        <pt x="63" y="199" on="1"/>
        <pt x="30" y="258" on="1"/>
        <pt x="131" y="317" on="1"/>
        <pt x="131" y="594" on="1"/>
        <pt x="54" y="603" on="1"/>
        <pt x="55" y="650" on="1"/>
        <pt x="303" y="650" on="1"/>
        <pt x="309" y="618" on="1"/>
        <pt x="290" y="609" on="0"/>
        <pt x="246" y="594" on="0"/>
        <pt x="224" y="587" on="1"/>
        <pt x="224" y="372" on="1"/>
        <pt x="367" y="456" on="1"/>
        <pt x="385" y="433" on="1"/>
        <pt x="374" y="380" on="1"/>
        <pt x="224" y="293" on="1"/>
        <pt x="224" y="67" on="1"/>
        <pt x="468" y="77" on="1"/>
        <pt x="494" y="203" on="1"/>
        <pt x="550" y="199" on="1"/>
        <pt x="551" y="153" on="0"/>
        <pt x="545" y="36" on="0"/>
        <pt x="538" y="0" on="1"/>
      </contour>
    </TTGlyph>
    <TTGlyph name="M" xMin="30" yMin="-7" xMax="871" yMax="650">
      <contour>
        <pt x="485" y="16" on="1"/>
        <pt x="398" y="-7" on="1"/>
        <pt x="187" y="577" on="1"/>
        <pt x="206" y="420" on="1"/>
        <pt x="197" y="57" on="1"/>
        <pt x="281" y="47" on="1"/>
        <pt x="280" y="0" on="1"/>
        <pt x="36" y="0" on="1"/>
        <pt x="30" y="32" on="1"/>
        <pt x="50" y="42" on="0"/>
        <pt x="97" y="57" on="0"/>
        <pt x="119" y="64" on="1"/>
        <pt x="138" y="594" on="1"/>
        <pt x="59" y="603" on="1"/>
        <pt x="60" y="650" on="1"/>
        <pt x="261" y="650" on="1"/>
        <pt x="456" y="108" on="1"/>
        <pt x="648" y="650" on="1"/>
        <pt x="831" y="650" on="1"/>
        <pt x="837" y="618" on="1"/>
        <pt x="820" y="610" on="0"/>
        <pt x="782" y="597" on="0"/>
        <pt x="763" y="591" on="1"/>
        <pt x="772" y="58" on="1"/>
        <pt x="871" y="47" on="1"/>
        <pt x="870" y="0" on="1"/>
        <pt x="602" y="0" on="1"/>
        <pt x="596" y="32" on="1"/>
        <pt x="615" y="41" on="0"/>
        <pt x="660" y="56" on="0"/>
        <pt x="682" y="63" on="1"/>
        <pt x="676" y="420" on="1"/>
        <pt x="690" y="585" on="1"/>
      </contour>
    </TTGlyph>
    <TTGlyph name="N" xMin="30" yMin="-11" xMax="715" yMax="650">
      <contour>
        <pt x="527" y="-11" on="1"/>
        <pt x="172" y="557" on="1"/>
        <pt x="190" y="418" on="1"/>
        <pt x="190" y="57" on="1"/>
        <pt x="279" y="47" on="1"/>
        <pt x="278" y="0" on="1"/>
        <pt x="36" y="0" on="1"/>
        <pt x="30" y="32" on="1"/>
        <pt x="49" y="41" on="0"/>
        <pt x="93" y="56" on="0"/>
        <pt x="115" y="63" on="1"/>
        <pt x="115" y="595" on="1"/>
        <pt x="50" y="603" on="1"/>
        <pt x="51" y="650" on="1"/>
        <pt x="229" y="650" on="1"/>
        <pt x="573" y="96" on="1"/>
        <pt x="554" y="232" on="1"/>
        <pt x="554" y="592" on="1"/>
        <pt x="457" y="603" on="1"/>
        <pt x="458" y="650" on="1"/>
        <pt x="709" y="650" on="1"/>
        <pt x="715" y="618" on="1"/>
        <pt x="696" y="609" on="0"/>
        <pt x="652" y="594" on="0"/>
        <pt x="630" y="587" on="1"/>
        <pt x="630" y="0" on="1"/>
      </contour>
    </TTGlyph>
    <TTGlyph name="Nacute" xMin="30" yMin="-11" xMax="715" yMax="874">
      <component glyphName="N" x="0" y="0" flags="0x204"/>
      <component glyphName="acutecomb.case" x="352" y="0" flags="0x4"/>
    </TTGlyph>
    <TTGlyph name="Ncaron" xMin="30" yMin="-11" xMax="715" yMax="877">
      <component glyphName="N" x="0" y="0" flags="0x204"/>
      <component glyphName="uni030C.case" x="354" y="0" flags="0x4"/>
    </TTGlyph>
    <TTGlyph name="Ncommaaccent" xMin="30" yMin="-264" xMax="715" yMax="650">
      <component glyphName="N" x="0" y="0" flags="0x204"/>
      <component glyphName="uni0326.case" x="383" y="0" flags="0x4"/>
    </TTGlyph>
    <TTGlyph name="Ntilde" xMin="30" yMin="-11" xMax="715" yMax="862">
      <component glyphName="N" x="0" y="0" flags="0x204"/>
      <component glyphName="tildecomb.case" x="354" y="0" flags="0x4"/>
    </TTGlyph>
    <TTGlyph name="O" xMin="20" yMin="-20" xMax="632" yMax="670">
      <contour>
        <pt x="20" y="321" on="1"/>
        <pt x="20" y="477" on="0"/>
        <pt x="193" y="670" on="0"/>
        <pt x="321" y="670" on="1"/>
        <pt x="382" y="670" on="0"/>
        <pt x="495" y="623" on="0"/>
        <pt x="581" y="534" on="0"/>
        <pt x="632" y="402" on="0"/>
        <pt x="632" y="317" on="1"/>
        <pt x="632" y="231" on="0"/>
        <pt x="580" y="104" on="0"/>
        <pt x="495" y="21" on="0"/>
        <pt x="385" y="-20" on="0"/>
        <pt x="329" y="-20" on="1"/>
        <pt x="272" y="-20" on="0"/>
        <pt x="160" y="22" on="0"/>
        <pt x="73" y="107" on="0"/>
        <pt x="20" y="236" on="0"/>
      </contour>
      <contour>
        <pt x="309" y="601" on="1"/>
        <pt x="287" y="601" on="0"/>
        <pt x="239" y="593" on="0"/>
        <pt x="213" y="584" on="1"/>
        <pt x="172" y="553" on="0"/>
        <pt x="122" y="413" on="0"/>
        <pt x="122" y="335" on="1"/>
        <pt x="122" y="282" on="0"/>
        <pt x="148" y="179" on="0"/>
        <pt x="202" y="100" on="0"/>
        <pt x="288" y="51" on="0"/>
        <pt x="347" y="51" on="1"/>
        <pt x="365" y="51" on="0"/>
        <pt x="403" y="56" on="0"/>
        <pt x="424" y="61" on="1"/>
        <pt x="470" y="91" on="0"/>
        <pt x="529" y="226" on="0"/>
        <pt x="529" y="312" on="1"/>
        <pt x="529" y="366" on="0"/>
        <pt x="503" y="471" on="0"/>
        <pt x="449" y="552" on="0"/>
        <pt x="365" y="601" on="0"/>
      </contour>
    </TTGlyph>
    <TTGlyph name="OE" xMin="42" yMin="-11" xMax="855" yMax="663">
      <contour>
        <pt x="363" y="59" on="1"/>
        <pt x="389" y="59" on="0"/>
        <pt x="440" y="62" on="0"/>
        <pt x="461" y="72" on="1"/>
        <pt x="461" y="576" on="1"/>
        <pt x="438" y="584" on="0"/>
        <pt x="383" y="593" on="0"/>
        <pt x="355" y="593" on="1"/>
        <pt x="326" y="593" on="0"/>
        <pt x="270" y="584" on="0"/>
        <pt x="245" y="575" on="1"/>
        <pt x="197" y="540" on="0"/>
        <pt x="144" y="401" on="0"/>
        <pt x="144" y="326" on="1"/>
        <pt x="144" y="276" on="0"/>
        <pt x="170" y="179" on="0"/>
        <pt x="223" y="105" on="0"/>
        <pt x="306" y="59" on="0"/>
      </contour>
      <contour>
        <pt x="842" y="0" on="1"/>
        <pt x="451" y="0" on="1"/>
        <pt x="427" y="-6" on="0"/>
        <pt x="375" y="-11" on="0"/>
        <pt x="350" y="-11" on="1"/>
        <pt x="293" y="-11" on="0"/>
        <pt x="181" y="28" on="0"/>
        <pt x="95" y="111" on="0"/>
        <pt x="42" y="243" on="0"/>
        <pt x="42" y="334" on="1"/>
        <pt x="42" y="423" on="0"/>
        <pt x="105" y="549" on="0"/>
        <pt x="201" y="627" on="0"/>
        <pt x="320" y="663" on="0"/>
        <pt x="375" y="663" on="1"/>
        <pt x="400" y="663" on="0"/>
        <pt x="450" y="657" on="0"/>
        <pt x="475" y="650" on="1"/>
        <pt x="842" y="650" on="1"/>
        <pt x="844" y="625" on="0"/>
        <pt x="840" y="531" on="0"/>
        <pt x="832" y="485" on="1"/>
        <pt x="778" y="485" on="1"/>
        <pt x="766" y="576" on="1"/>
        <pt x="554" y="585" on="1"/>
        <pt x="554" y="354" on="1"/>
        <pt x="775" y="371" on="1"/>
        <pt x="775" y="284" on="1"/>
        <pt x="554" y="293" on="1"/>
        <pt x="554" y="65" on="1"/>
        <pt x="775" y="75" on="1"/>
        <pt x="801" y="183" on="1"/>
        <pt x="854" y="179" on="1"/>
        <pt x="855" y="139" on="0"/>
        <pt x="848" y="32" on="0"/>
      </contour>
    </TTGlyph>
    <TTGlyph name="Oacute" xMin="20" yMin="-20" xMax="632" yMax="874">
      <component glyphName="O" x="0" y="0" flags="0x204"/>
      <component glyphName="acutecomb.case" x="323" y="0" flags="0x4"/>
    </TTGlyph>
    <TTGlyph name="Ocircumflex" xMin="20" yMin="-20" xMax="632" yMax="873">
      <component glyphName="O" x="0" y="0" flags="0x204"/>
      <component glyphName="uni0302.case" x="325" y="0" flags="0x4"/>
    </TTGlyph>
    <TTGlyph name="Odieresis" xMin="20" yMin="-20" xMax="632" yMax="859">
      <component glyphName="O" x="0" y="0" flags="0x204"/>
      <component glyphName="uni0308.case" x="324" y="182" flags="0x4"/>
    </TTGlyph>
    <TTGlyph name="Ograve" xMin="20" yMin="-20" xMax="632" yMax="874">
      <component glyphName="O" x="0" y="0" flags="0x204"/>
      <component glyphName="gravecomb.case" x="326" y="0" flags="0x4"/>
    </TTGlyph>
    <TTGlyph name="Ohungarumlaut" xMin="20" yMin="-20" xMax="632" yMax="915">
      <component glyphName="O" x="0" y="0" flags="0x204"/>
      <component glyphName="uni030B.case" x="324" y="182" flags="0x4"/>
    </TTGlyph>
    <TTGlyph name="Omacron" xMin="20" yMin="-20" xMax="632" yMax="811">
      <component glyphName="O" x="0" y="0" flags="0x204"/>
      <component glyphName="uni0304.case" x="323" y="0" flags="0x4"/>
    </TTGlyph>
    <TTGlyph name="Oslash" xMin="20" yMin="-81" xMax="632" yMax="729">
      <contour>
        <pt x="122" y="335" on="1"/>
        <pt x="122" y="272" on="0"/>
        <pt x="159" y="151" on="0"/>
        <pt x="199" y="110" on="1"/>
        <pt x="432" y="560" on="1"/>
        <pt x="407" y="579" on="0"/>
        <pt x="346" y="601" on="0"/>
        <pt x="309" y="601" on="1"/>
        <pt x="287" y="601" on="0"/>
        <pt x="239" y="593" on="0"/>
        <pt x="213" y="584" on="1"/>
        <pt x="172" y="553" on="0"/>
        <pt x="122" y="413" on="0"/>
      </contour>
      <contour>
        <pt x="347" y="51" on="1"/>
        <pt x="365" y="51" on="0"/>
        <pt x="403" y="56" on="0"/>
        <pt x="424" y="61" on="1"/>
        <pt x="470" y="91" on="0"/>
        <pt x="529" y="226" on="0"/>
        <pt x="529" y="312" on="1"/>
        <pt x="529" y="363" on="0"/>
        <pt x="505" y="463" on="0"/>
        <pt x="481" y="503" on="1"/>
        <pt x="257" y="69" on="1"/>
        <pt x="276" y="61" on="0"/>
        <pt x="322" y="51" on="0"/>
      </contour>
      <contour>
        <pt x="329" y="-20" on="1"/>
        <pt x="301" y="-20" on="0"/>
        <pt x="246" y="-11" on="0"/>
        <pt x="220" y="-1" on="1"/>
        <pt x="179" y="-81" on="1"/>
        <pt x="118" y="-47" on="1"/>
        <pt x="158" y="31" on="1"/>
        <pt x="98" y="71" on="0"/>
        <pt x="20" y="217" on="0"/>
        <pt x="20" y="321" on="1"/>
        <pt x="20" y="477" on="0"/>
        <pt x="193" y="670" on="0"/>
        <pt x="321" y="670" on="1"/>
        <pt x="360" y="670" on="0"/>
        <pt x="435" y="651" on="0"/>
        <pt x="469" y="632" on="1"/>
        <pt x="519" y="729" on="1"/>
        <pt x="579" y="693" on="1"/>
        <pt x="526" y="590" on="1"/>
        <pt x="574" y="546" on="0"/>
        <pt x="632" y="407" on="0"/>
        <pt x="632" y="317" on="1"/>
        <pt x="632" y="231" on="0"/>
        <pt x="580" y="104" on="0"/>
        <pt x="495" y="21" on="0"/>
        <pt x="385" y="-20" on="0"/>
      </contour>
    </TTGlyph>
    <TTGlyph name="Otilde" xMin="20" yMin="-20" xMax="632" yMax="862">
      <component glyphName="O" x="0" y="0" flags="0x204"/>
      <component glyphName="tildecomb.case" x="325" y="0" flags="0x4"/>
    </TTGlyph>
    <TTGlyph name="P" xMin="30" yMin="0" xMax="561" yMax="658">
      <contour>
        <pt x="310" y="303" on="1"/>
        <pt x="390" y="303" on="0"/>
        <pt x="459" y="397" on="0"/>
        <pt x="459" y="454" on="1"/>
        <pt x="459" y="500" on="0"/>
        <pt x="420" y="580" on="0"/>
        <pt x="381" y="599" on="1"/>
        <pt x="208" y="584" on="1"/>
        <pt x="208" y="312" on="1"/>
        <pt x="238" y="308" on="0"/>
        <pt x="296" y="303" on="0"/>
      </contour>
      <contour>
        <pt x="36" y="0" on="1"/>
        <pt x="30" y="32" on="1"/>
        <pt x="49" y="41" on="0"/>
        <pt x="93" y="56" on="0"/>
        <pt x="115" y="63" on="1"/>
        <pt x="115" y="598" on="1"/>
        <pt x="44" y="602" on="1"/>
        <pt x="45" y="650" on="1"/>
        <pt x="324" y="658" on="1"/>
        <pt x="383" y="658" on="0"/>
        <pt x="473" y="622" on="0"/>
        <pt x="532" y="564" on="0"/>
        <pt x="561" y="489" on="0"/>
        <pt x="561" y="451" on="1"/>
        <pt x="561" y="413" on="0"/>
        <pt x="532" y="339" on="0"/>
        <pt x="476" y="281" on="0"/>
        <pt x="390" y="245" on="0"/>
        <pt x="333" y="245" on="1"/>
        <pt x="208" y="245" on="1"/>
        <pt x="208" y="61" on="1"/>
        <pt x="325" y="47" on="1"/>
        <pt x="324" y="0" on="1"/>
      </contour>
    </TTGlyph>
    <TTGlyph name="Q" xMin="20" yMin="-162" xMax="751" yMax="670">
      <contour>
        <pt x="712" y="-162" on="1"/>
        <pt x="391" y="-14" on="1"/>
        <pt x="376" y="-17" on="0"/>
        <pt x="345" y="-20" on="0"/>
        <pt x="329" y="-20" on="1"/>
        <pt x="272" y="-20" on="0"/>
        <pt x="160" y="22" on="0"/>
        <pt x="73" y="107" on="0"/>
        <pt x="20" y="236" on="0"/>
        <pt x="20" y="321" on="1"/>
        <pt x="20" y="477" on="0"/>
        <pt x="193" y="670" on="0"/>
        <pt x="321" y="670" on="1"/>
        <pt x="382" y="670" on="0"/>
        <pt x="495" y="623" on="0"/>
        <pt x="581" y="534" on="0"/>
        <pt x="632" y="402" on="0"/>
        <pt x="632" y="317" on="1"/>
        <pt x="632" y="201" on="0"/>
        <pt x="540" y="51" on="0"/>
        <pt x="472" y="15" on="1"/>
        <pt x="751" y="-64" on="1"/>
      </contour>
      <contour>
        <pt x="309" y="601" on="1"/>
        <pt x="287" y="601" on="0"/>
        <pt x="239" y="593" on="0"/>
        <pt x="213" y="584" on="1"/>
        <pt x="172" y="553" on="0"/>
        <pt x="122" y="413" on="0"/>
        <pt x="122" y="335" on="1"/>
        <pt x="122" y="282" on="0"/>
        <pt x="148" y="179" on="0"/>
        <pt x="202" y="100" on="0"/>
        <pt x="288" y="51" on="0"/>
        <pt x="347" y="51" on="1"/>
        <pt x="365" y="51" on="0"/>
        <pt x="403" y="56" on="0"/>
        <pt x="424" y="61" on="1"/>
        <pt x="470" y="91" on="0"/>
        <pt x="529" y="226" on="0"/>
        <pt x="529" y="312" on="1"/>
        <pt x="529" y="366" on="0"/>
        <pt x="503" y="471" on="0"/>
        <pt x="449" y="552" on="0"/>
        <pt x="365" y="601" on="0"/>
      </contour>
    </TTGlyph>
    <TTGlyph name="R" xMin="30" yMin="0" xMax="623" yMax="658">
      <contour>
        <pt x="293" y="318" on="1"/>
        <pt x="344" y="318" on="0"/>
        <pt x="409" y="346" on="0"/>
        <pt x="446" y="389" on="0"/>
        <pt x="459" y="441" on="0"/>
        <pt x="459" y="465" on="1"/>
        <pt x="459" y="508" on="0"/>
        <pt x="421" y="580" on="0"/>
        <pt x="381" y="599" on="1"/>
        <pt x="208" y="584" on="1"/>
        <pt x="208" y="325" on="1"/>
        <pt x="232" y="321" on="0"/>
        <pt x="276" y="318" on="0"/>
      </contour>
      <contour>
        <pt x="36" y="0" on="1"/>
        <pt x="30" y="32" on="1"/>
        <pt x="49" y="41" on="0"/>
        <pt x="93" y="56" on="0"/>
        <pt x="115" y="63" on="1"/>
        <pt x="115" y="598" on="1"/>
        <pt x="44" y="602" on="1"/>
        <pt x="45" y="650" on="1"/>
        <pt x="324" y="658" on="1"/>
        <pt x="383" y="658" on="0"/>
        <pt x="473" y="625" on="0"/>
        <pt x="532" y="571" on="0"/>
        <pt x="561" y="501" on="0"/>
        <pt x="561" y="465" on="1"/>
        <pt x="561" y="409" on="0"/>
        <pt x="490" y="299" on="0"/>
        <pt x="419" y="274" on="1"/>
        <pt x="555" y="53" on="1"/>
        <pt x="623" y="47" on="1"/>
        <pt x="622" y="0" on="1"/>
        <pt x="470" y="0" on="1"/>
        <pt x="327" y="260" on="1"/>
        <pt x="208" y="259" on="1"/>
        <pt x="208" y="59" on="1"/>
        <pt x="315" y="47" on="1"/>
        <pt x="314" y="0" on="1"/>
      </contour>
    </TTGlyph>
    <TTGlyph name="Racute" xMin="30" yMin="0" xMax="623" yMax="874">
      <component glyphName="R" x="0" y="0" flags="0x204"/>
      <component glyphName="acutecomb.case" x="278" y="0" flags="0x4"/>
    </TTGlyph>
    <TTGlyph name="Rcaron" xMin="30" yMin="0" xMax="623" yMax="877">
      <component glyphName="R" x="0" y="0" flags="0x204"/>
      <component glyphName="uni030C.case" x="280" y="0" flags="0x4"/>
    </TTGlyph>
    <TTGlyph name="Rcommaaccent" xMin="30" yMin="-264" xMax="623" yMax="658">
      <component glyphName="R" x="0" y="0" flags="0x204"/>
      <component glyphName="uni0326.case" x="302" y="0" flags="0x4"/>
    </TTGlyph>
    <TTGlyph name="S" xMin="54" yMin="-20" xMax="488" yMax="670">
      <contour>
        <pt x="267" y="-20" on="1"/>
        <pt x="218" y="-20" on="0"/>
        <pt x="90" y="15" on="0"/>
        <pt x="56" y="49" on="1"/>
        <pt x="54" y="74" on="0"/>
        <pt x="58" y="172" on="0"/>
        <pt x="66" y="218" on="1"/>
        <pt x="120" y="218" on="1"/>
        <pt x="134" y="98" on="1"/>
        <pt x="182" y="62" on="0"/>
        <pt x="292" y="44" on="0"/>
        <pt x="335" y="48" on="1"/>
        <pt x="365" y="64" on="0"/>
        <pt x="393" y="122" on="0"/>
        <pt x="393" y="150" on="1"/>
        <pt x="393" y="202" on="0"/>
        <pt x="309" y="261" on="0"/>
        <pt x="243" y="292" on="1"/>
        <pt x="211" y="307" on="0"/>
        <pt x="145" y="342" on="0"/>
        <pt x="93" y="388" on="0"/>
        <pt x="60" y="448" on="0"/>
        <pt x="60" y="489" on="1"/>
        <pt x="60" y="533" on="0"/>
        <pt x="100" y="601" on="0"/>
        <pt x="164" y="647" on="0"/>
        <pt x="249" y="670" on="0"/>
        <pt x="293" y="670" on="1"/>
        <pt x="341" y="670" on="0"/>
        <pt x="428" y="649" on="0"/>
        <pt x="458" y="639" on="1"/>
        <pt x="460" y="614" on="0"/>
        <pt x="456" y="516" on="0"/>
        <pt x="448" y="470" on="1"/>
        <pt x="394" y="470" on="1"/>
        <pt x="384" y="561" on="1"/>
        <pt x="344" y="592" on="0"/>
        <pt x="247" y="608" on="0"/>
        <pt x="201" y="601" on="1"/>
        <pt x="177" y="587" on="0"/>
        <pt x="153" y="535" on="0"/>
        <pt x="153" y="510" on="1"/>
        <pt x="153" y="461" on="0"/>
        <pt x="238" y="405" on="0"/>
        <pt x="302" y="375" on="1"/>
        <pt x="372" y="342" on="0"/>
        <pt x="488" y="256" on="0"/>
        <pt x="488" y="172" on="1"/>
        <pt x="488" y="126" on="0"/>
        <pt x="451" y="55" on="0"/>
        <pt x="390" y="6" on="0"/>
        <pt x="310" y="-20" on="0"/>
      </contour>
    </TTGlyph>
    <TTGlyph name="Sacute" xMin="54" yMin="-20" xMax="488" yMax="874">
      <component glyphName="S" x="0" y="0" flags="0x204"/>
      <component glyphName="acutecomb.case" x="269" y="0" flags="0x4"/>
    </TTGlyph>
    <TTGlyph name="Scaron" xMin="54" yMin="-20" xMax="488" yMax="877">
      <component glyphName="S" x="0" y="0" flags="0x204"/>
      <component glyphName="uni030C.case" x="271" y="0" flags="0x4"/>
    </TTGlyph>
    <TTGlyph name="Scedilla" xMin="54" yMin="-265" xMax="488" yMax="670">
      <component glyphName="S" x="0" y="0" flags="0x204"/>
      <component glyphName="uni0327.case" x="257" y="0" flags="0x4"/>
    </TTGlyph>
    <TTGlyph name="Scommaaccent" xMin="54" yMin="-264" xMax="488" yMax="670">
      <component glyphName="S" x="0" y="0" flags="0x204"/>
      <component glyphName="uni0326.case" x="257" y="0" flags="0x4"/>
    </TTGlyph>
    <TTGlyph name="T" xMin="9" yMin="0" xMax="588" yMax="656">
      <contour>
        <pt x="149" y="0" on="1"/>
        <pt x="143" y="32" on="1"/>
        <pt x="165" y="42" on="0"/>
        <pt x="227" y="59" on="0"/>
        <pt x="252" y="66" on="1"/>
        <pt x="252" y="593" on="1"/>
        <pt x="88" y="587" on="1"/>
        <pt x="75" y="487" on="1"/>
        <pt x="21" y="487" on="1"/>
        <pt x="13" y="533" on="0"/>
        <pt x="9" y="631" on="0"/>
        <pt x="11" y="656" on="1"/>
        <pt x="149" y="652" on="0"/>
        <pt x="449" y="652" on="0"/>
        <pt x="586" y="656" on="1"/>
        <pt x="588" y="631" on="0"/>
        <pt x="584" y="533" on="0"/>
        <pt x="576" y="487" on="1"/>
        <pt x="522" y="487" on="1"/>
        <pt x="509" y="587" on="1"/>
        <pt x="345" y="593" on="1"/>
        <pt x="345" y="60" on="1"/>
        <pt x="459" y="47" on="1"/>
        <pt x="458" y="0" on="1"/>
      </contour>
    </TTGlyph>
    <TTGlyph name="Tcaron" xMin="9" yMin="0" xMax="588" yMax="877">
      <component glyphName="T" x="0" y="0" flags="0x204"/>
      <component glyphName="uni030C.case" x="300" y="0" flags="0x4"/>
    </TTGlyph>
    <TTGlyph name="Thorn" xMin="30" yMin="0" xMax="549" yMax="650">
      <contour>
        <pt x="273" y="219" on="1"/>
        <pt x="373" y="219" on="0"/>
        <pt x="448" y="292" on="0"/>
        <pt x="448" y="339" on="1"/>
        <pt x="448" y="377" on="0"/>
        <pt x="408" y="443" on="0"/>
        <pt x="368" y="463" on="1"/>
        <pt x="213" y="436" on="1"/>
        <pt x="213" y="223" on="1"/>
        <pt x="226" y="222" on="0"/>
        <pt x="255" y="219" on="0"/>
      </contour>
      <contour>
        <pt x="36" y="0" on="1"/>
        <pt x="30" y="35" on="1"/>
        <pt x="46" y="43" on="0"/>
        <pt x="105" y="63" on="0"/>
        <pt x="120" y="67" on="1"/>
        <pt x="120" y="593" on="1"/>
        <pt x="38" y="603" on="1"/>
        <pt x="39" y="650" on="1"/>
        <pt x="300" y="650" on="1"/>
        <pt x="306" y="615" on="1"/>
        <pt x="290" y="606" on="0"/>
        <pt x="226" y="586" on="0"/>
        <pt x="213" y="582" on="1"/>
        <pt x="213" y="517" on="1"/>
        <pt x="320" y="517" on="1"/>
        <pt x="379" y="517" on="0"/>
        <pt x="466" y="484" on="0"/>
        <pt x="522" y="432" on="0"/>
        <pt x="549" y="367" on="0"/>
        <pt x="549" y="335" on="1"/>
        <pt x="549" y="264" on="0"/>
        <pt x="423" y="155" on="0"/>
        <pt x="300" y="155" on="1"/>
        <pt x="213" y="155" on="1"/>
        <pt x="213" y="58" on="1"/>
        <pt x="310" y="47" on="1"/>
        <pt x="309" y="0" on="1"/>
      </contour>
    </TTGlyph>
    <TTGlyph name="U" xMin="10" yMin="-18" xMax="690" yMax="650">
      <contour>
        <pt x="364" y="-18" on="1"/>
        <pt x="242" y="-18" on="0"/>
        <pt x="87" y="137" on="0"/>
        <pt x="87" y="283" on="1"/>
        <pt x="87" y="594" on="1"/>
        <pt x="10" y="603" on="1"/>
        <pt x="11" y="650" on="1"/>
        <pt x="259" y="650" on="1"/>
        <pt x="265" y="618" on="1"/>
        <pt x="246" y="609" on="0"/>
        <pt x="202" y="594" on="0"/>
        <pt x="180" y="587" on="1"/>
        <pt x="180" y="273" on="1"/>
        <pt x="180" y="170" on="0"/>
        <pt x="279" y="57" on="0"/>
        <pt x="368" y="57" on="1"/>
        <pt x="396" y="57" on="0"/>
        <pt x="442" y="68" on="0"/>
        <pt x="463" y="77" on="1"/>
        <pt x="496" y="100" on="0"/>
        <pt x="531" y="199" on="0"/>
        <pt x="531" y="273" on="1"/>
        <pt x="531" y="593" on="1"/>
        <pt x="442" y="603" on="1"/>
        <pt x="443" y="650" on="1"/>
        <pt x="684" y="650" on="1"/>
        <pt x="690" y="618" on="1"/>
        <pt x="671" y="609" on="0"/>
        <pt x="627" y="594" on="0"/>
        <pt x="605" y="587" on="1"/>
        <pt x="605" y="293" on="1"/>
        <pt x="605" y="129" on="0"/>
        <pt x="478" y="-18" on="0"/>
      </contour>
    </TTGlyph>
    <TTGlyph name="Uacute" xMin="10" yMin="-18" xMax="690" yMax="874">
      <component glyphName="U" x="0" y="0" flags="0x204"/>
      <component glyphName="acutecomb.case" x="354" y="0" flags="0x4"/>
    </TTGlyph>
    <TTGlyph name="Ucircumflex" xMin="10" yMin="-18" xMax="690" yMax="873">
      <component glyphName="U" x="0" y="0" flags="0x204"/>
      <component glyphName="uni0302.case" x="356" y="0" flags="0x4"/>
    </TTGlyph>
    <TTGlyph name="Udieresis" xMin="10" yMin="-18" xMax="690" yMax="859">
      <component glyphName="U" x="0" y="0" flags="0x204"/>
      <component glyphName="uni0308.case" x="355" y="182" flags="0x4"/>
    </TTGlyph>
    <TTGlyph name="Ugrave" xMin="10" yMin="-18" xMax="690" yMax="874">
      <component glyphName="U" x="0" y="0" flags="0x204"/>
      <component glyphName="gravecomb.case" x="357" y="0" flags="0x4"/>
    </TTGlyph>
    <TTGlyph name="Uhungarumlaut" xMin="10" yMin="-18" xMax="690" yMax="915">
      <component glyphName="U" x="0" y="0" flags="0x204"/>
      <component glyphName="uni030B.case" x="355" y="182" flags="0x4"/>
    </TTGlyph>
    <TTGlyph name="Umacron" xMin="10" yMin="-18" xMax="690" yMax="811">
      <component glyphName="U" x="0" y="0" flags="0x204"/>
      <component glyphName="uni0304.case" x="354" y="0" flags="0x4"/>
    </TTGlyph>
    <TTGlyph name="Uogonek" xMin="10" yMin="-257" xMax="690" yMax="650">
      <component glyphName="U" x="0" y="0" flags="0x204"/>
      <component glyphName="uni0328.case" x="458" y="-9" flags="0x4"/>
    </TTGlyph>
    <TTGlyph name="Uring" xMin="10" yMin="-18" xMax="690" yMax="928">
      <component glyphName="U" x="0" y="0" flags="0x204"/>
      <component glyphName="uni030A.case" x="355" y="0" flags="0x4"/>
    </TTGlyph>
    <TTGlyph name="V" xMin="0" yMin="-11" xMax="680" yMax="650">
      <contour>
        <pt x="388" y="-2" on="1"/>
        <pt x="365" y="-6" on="0"/>
        <pt x="312" y="-11" on="0"/>
        <pt x="287" y="-10" on="1"/>
        <pt x="79" y="594" on="1"/>
        <pt x="0" y="603" on="1"/>
        <pt x="1" y="650" on="1"/>
        <pt x="268" y="650" on="1"/>
        <pt x="274" y="618" on="1"/>
        <pt x="253" y="608" on="0"/>
        <pt x="206" y="592" on="0"/>
        <pt x="183" y="585" on="1"/>
        <pt x="322" y="177" on="1"/>
        <pt x="335" y="59" on="1"/>
        <pt x="340" y="59" on="1"/>
        <pt x="525" y="592" on="1"/>
        <pt x="434" y="603" on="1"/>
        <pt x="435" y="650" on="1"/>
        <pt x="674" y="650" on="1"/>
        <pt x="680" y="618" on="1"/>
        <pt x="662" y="610" on="0"/>
        <pt x="622" y="596" on="0"/>
        <pt x="602" y="589" on="1"/>
      </contour>
    </TTGlyph>
    <TTGlyph name="W" xMin="0" yMin="-12" xMax="919" yMax="650">
      <contour>
        <pt x="353" y="-3" on="1"/>
        <pt x="327" y="-8" on="0"/>
        <pt x="274" y="-12" on="0"/>
        <pt x="246" y="-10" on="1"/>
        <pt x="75" y="594" on="1"/>
        <pt x="0" y="603" on="1"/>
        <pt x="1" y="650" on="1"/>
        <pt x="258" y="650" on="1"/>
        <pt x="264" y="618" on="1"/>
        <pt x="244" y="609" on="0"/>
        <pt x="198" y="593" on="0"/>
        <pt x="176" y="586" on="1"/>
        <pt x="289" y="175" on="1"/>
        <pt x="300" y="59" on="1"/>
        <pt x="304" y="59" on="1"/>
        <pt x="426" y="478" on="1"/>
        <pt x="388" y="614" on="1"/>
        <pt x="483" y="639" on="1"/>
        <pt x="601" y="173" on="1"/>
        <pt x="615" y="59" on="1"/>
        <pt x="618" y="59" on="1"/>
        <pt x="764" y="591" on="1"/>
        <pt x="663" y="603" on="1"/>
        <pt x="664" y="650" on="1"/>
        <pt x="913" y="650" on="1"/>
        <pt x="919" y="618" on="1"/>
        <pt x="901" y="610" on="0"/>
        <pt x="860" y="595" on="0"/>
        <pt x="840" y="589" on="1"/>
        <pt x="673" y="-3" on="1"/>
        <pt x="647" y="-8" on="0"/>
        <pt x="592" y="-12" on="0"/>
        <pt x="564" y="-10" on="1"/>
        <pt x="456" y="372" on="1"/>
        <pt x="454" y="372" on="1"/>
        <pt x="435" y="259" on="1"/>
      </contour>
    </TTGlyph>
    <TTGlyph name="X" xMin="10" yMin="0" xMax="660" yMax="650">
      <contour>
        <pt x="16" y="0" on="1"/>
        <pt x="10" y="32" on="1"/>
        <pt x="28" y="40" on="0"/>
        <pt x="70" y="55" on="0"/>
        <pt x="90" y="61" on="1"/>
        <pt x="284" y="343" on="1"/>
        <pt x="116" y="595" on="1"/>
        <pt x="48" y="603" on="1"/>
        <pt x="49" y="650" on="1"/>
        <pt x="276" y="650" on="1"/>
        <pt x="282" y="618" on="1"/>
        <pt x="269" y="612" on="0"/>
        <pt x="239" y="600" on="0"/>
        <pt x="224" y="596" on="1"/>
        <pt x="356" y="400" on="1"/>
        <pt x="472" y="594" on="1"/>
        <pt x="398" y="603" on="1"/>
        <pt x="399" y="650" on="1"/>
        <pt x="619" y="650" on="1"/>
        <pt x="625" y="618" on="1"/>
        <pt x="608" y="610" on="0"/>
        <pt x="569" y="596" on="0"/>
        <pt x="550" y="590" on="1"/>
        <pt x="391" y="347" on="1"/>
        <pt x="588" y="54" on="1"/>
        <pt x="660" y="47" on="1"/>
        <pt x="659" y="0" on="1"/>
        <pt x="408" y="0" on="1"/>
        <pt x="402" y="32" on="1"/>
        <pt x="418" y="39" on="0"/>
        <pt x="454" y="53" on="0"/>
        <pt x="472" y="58" on="1"/>
        <pt x="322" y="285" on="1"/>
        <pt x="174" y="57" on="1"/>
        <pt x="263" y="47" on="1"/>
        <pt x="262" y="0" on="1"/>
      </contour>
    </TTGlyph>
    <TTGlyph name="Y" xMin="0" yMin="0" xMax="597" yMax="650">
      <contour>
        <pt x="176" y="0" on="1"/>
        <pt x="170" y="32" on="1"/>
        <pt x="188" y="40" on="0"/>
        <pt x="228" y="54" on="0"/>
        <pt x="248" y="61" on="1"/>
        <pt x="248" y="252" on="1"/>
        <pt x="62" y="596" on="1"/>
        <pt x="0" y="603" on="1"/>
        <pt x="1" y="650" on="1"/>
        <pt x="228" y="650" on="1"/>
        <pt x="234" y="618" on="1"/>
        <pt x="219" y="611" on="0"/>
        <pt x="184" y="598" on="0"/>
        <pt x="167" y="593" on="1"/>
        <pt x="276" y="388" on="1"/>
        <pt x="302" y="307" on="1"/>
        <pt x="307" y="307" on="1"/>
        <pt x="449" y="594" on="1"/>
        <pt x="370" y="603" on="1"/>
        <pt x="371" y="650" on="1"/>
        <pt x="591" y="650" on="1"/>
        <pt x="597" y="618" on="1"/>
        <pt x="581" y="611" on="0"/>
        <pt x="545" y="597" on="0"/>
        <pt x="526" y="592" on="1"/>
        <pt x="341" y="249" on="1"/>
        <pt x="341" y="57" on="1"/>
        <pt x="423" y="47" on="1"/>
        <pt x="422" y="0" on="1"/>
      </contour>
    </TTGlyph>
    <TTGlyph name="Yacute" xMin="0" yMin="0" xMax="597" yMax="874">
      <component glyphName="Y" x="0" y="0" flags="0x204"/>
      <component glyphName="acutecomb.case" x="303" y="0" flags="0x4"/>
    </TTGlyph>
    <TTGlyph name="Ydieresis" xMin="0" yMin="0" xMax="597" yMax="859">
      <component glyphName="Y" x="0" y="0" flags="0x204"/>
      <component glyphName="uni0308.case" x="304" y="182" flags="0x4"/>
    </TTGlyph>
    <TTGlyph name="Z" xMin="35" yMin="0" xMax="539" yMax="650">
      <contour>
        <pt x="513" y="0" on="1"/>
        <pt x="56" y="0" on="1"/>
        <pt x="35" y="45" on="1"/>
        <pt x="413" y="588" on="1"/>
        <pt x="139" y="578" on="1"/>
        <pt x="126" y="468" on="1"/>
        <pt x="72" y="468" on="1"/>
        <pt x="64" y="514" on="0"/>
        <pt x="60" y="625" on="0"/>
        <pt x="62" y="650" on="1"/>
        <pt x="509" y="650" on="1"/>
        <pt x="530" y="604" on="1"/>
        <pt x="157" y="74" on="1"/>
        <pt x="449" y="76" on="1"/>
        <pt x="481" y="193" on="1"/>
        <pt x="539" y="185" on="1"/>
        <pt x="535" y="139" on="0"/>
        <pt x="522" y="48" on="0"/>
      </contour>
    </TTGlyph>
    <TTGlyph name="Zacute" xMin="35" yMin="0" xMax="539" yMax="874">
      <component glyphName="Z" x="0" y="0" flags="0x204"/>
      <component glyphName="acutecomb.case" x="287" y="0" flags="0x4"/>
    </TTGlyph>
    <TTGlyph name="Zcaron" xMin="35" yMin="0" xMax="539" yMax="877">
      <component glyphName="Z" x="0" y="0" flags="0x204"/>
      <component glyphName="uni030C.case" x="289" y="0" flags="0x4"/>
    </TTGlyph>
    <TTGlyph name="Zdotaccent" xMin="35" yMin="0" xMax="539" yMax="859">
      <component glyphName="Z" x="0" y="0" flags="0x204"/>
      <component glyphName="uni0307.case" x="288" y="182" flags="0x4"/>
    </TTGlyph>
    <TTGlyph name="a" xMin="50" yMin="-18" xMax="492" yMax="493">
      <contour>
        <pt x="170" y="58" on="1"/>
        <pt x="207" y="57" on="0"/>
        <pt x="289" y="83" on="0"/>
        <pt x="315" y="95" on="1"/>
        <pt x="315" y="164" on="1"/>
        <pt x="287" y="167" on="0"/>
        <pt x="227" y="166" on="0"/>
        <pt x="177" y="154" on="0"/>
        <pt x="144" y="128" on="0"/>
        <pt x="144" y="104" on="1"/>
        <pt x="144" y="91" on="0"/>
        <pt x="157" y="66" on="0"/>
      </contour>
      <contour>
        <pt x="207" y="-14" on="1"/>
        <pt x="166" y="-18" on="0"/>
        <pt x="106" y="1" on="0"/>
        <pt x="68" y="36" on="0"/>
        <pt x="50" y="82" on="0"/>
        <pt x="50" y="104" on="1"/>
        <pt x="50" y="132" on="0"/>
        <pt x="83" y="190" on="0"/>
        <pt x="120" y="211" on="1"/>
        <pt x="315" y="216" on="1"/>
        <pt x="315" y="319" on="1"/>
        <pt x="315" y="365" on="0"/>
        <pt x="293" y="413" on="0"/>
        <pt x="266" y="426" on="1"/>
        <pt x="238" y="425" on="0"/>
        <pt x="173" y="415" on="0"/>
        <pt x="153" y="409" on="1"/>
        <pt x="145" y="305" on="1"/>
        <pt x="92" y="301" on="1"/>
        <pt x="79" y="326" on="0"/>
        <pt x="64" y="390" on="0"/>
        <pt x="63" y="421" on="1"/>
        <pt x="85" y="434" on="0"/>
        <pt x="149" y="459" on="0"/>
        <pt x="214" y="480" on="0"/>
        <pt x="271" y="493" on="0"/>
        <pt x="286" y="493" on="1"/>
        <pt x="318" y="493" on="0"/>
        <pt x="382" y="444" on="0"/>
        <pt x="393" y="423" on="1"/>
        <pt x="400" y="410" on="0"/>
        <pt x="405" y="371" on="0"/>
        <pt x="405" y="319" on="1"/>
        <pt x="405" y="86" on="1"/>
        <pt x="405" y="75" on="0"/>
        <pt x="420" y="66" on="0"/>
        <pt x="431" y="66" on="1"/>
        <pt x="441" y="66" on="0"/>
        <pt x="467" y="72" on="0"/>
        <pt x="477" y="75" on="1"/>
        <pt x="492" y="31" on="1"/>
        <pt x="391" y="-15" on="1"/>
        <pt x="377" y="-14" on="0"/>
        <pt x="330" y="29" on="0"/>
        <pt x="320" y="54" on="1"/>
      </contour>
    </TTGlyph>
    <TTGlyph name="aacute" xMin="50" yMin="-18" xMax="492" yMax="734">
      <component glyphName="a" x="0" y="0" flags="0x204"/>
      <component glyphName="acutecomb" x="246" y="0" flags="0x4"/>
    </TTGlyph>
    <TTGlyph name="abreve" xMin="50" yMin="-18" xMax="492" yMax="715">
      <component glyphName="a" x="0" y="0" flags="0x204"/>
      <component glyphName="uni0306" x="247" y="0" flags="0x4"/>
    </TTGlyph>
    <TTGlyph name="acircumflex" xMin="50" yMin="-18" xMax="492" yMax="717">
      <component glyphName="a" x="0" y="0" flags="0x204"/>
      <component glyphName="uni0302" x="246" y="0" flags="0x4"/>
    </TTGlyph>
    <TTGlyph name="acute" xMin="30" yMin="531" xMax="245" yMax="734">
      <component glyphName="acutecomb" x="113" y="0" flags="0x4"/>
    </TTGlyph>
    <TTGlyph name="acutecomb" xMin="-83" yMin="531" xMax="132" yMax="734">
      <contour>
        <pt x="132" y="674" on="1"/>
        <pt x="87" y="637" on="0"/>
        <pt x="11" y="570" on="0"/>
        <pt x="-31" y="531" on="1"/>
        <pt x="-83" y="574" on="1"/>
        <pt x="59" y="734" on="1"/>
      </contour>
    </TTGlyph>
    <TTGlyph name="acutecomb.case" xMin="-109" yMin="692" xMax="166" yMax="874">
      <contour>
        <pt x="-74" y="692" on="1"/>
        <pt x="-109" y="749" on="1"/>
        <pt x="116" y="874" on="1"/>
        <pt x="166" y="790" on="1"/>
        <pt x="103" y="766" on="0"/>
        <pt x="-12" y="718" on="0"/>
      </contour>
    </TTGlyph>
    <TTGlyph name="adieresis" xMin="50" yMin="-18" xMax="492" yMax="677">
      <component glyphName="a" x="0" y="0" flags="0x204"/>
      <component glyphName="uni0308" x="246" y="0" flags="0x4"/>
    </TTGlyph>
    <TTGlyph name="ae" xMin="50" yMin="-18" xMax="724" yMax="493">
      <contour>
        <pt x="494" y="427" on="1"/>
        <pt x="460" y="409" on="0"/>
        <pt x="419" y="351" on="0"/>
        <pt x="411" y="314" on="1"/>
        <pt x="636" y="325" on="1"/>
        <pt x="626" y="372" on="0"/>
        <pt x="548" y="431" on="0"/>
      </contour>
      <contour>
        <pt x="170" y="58" on="1"/>
        <pt x="205" y="57" on="0"/>
        <pt x="309" y="91" on="0"/>
        <pt x="343" y="106" on="1"/>
        <pt x="336" y="119" on="0"/>
        <pt x="326" y="149" on="0"/>
        <pt x="322" y="164" on="1"/>
        <pt x="320" y="164" on="1"/>
        <pt x="292" y="167" on="0"/>
        <pt x="230" y="167" on="0"/>
        <pt x="178" y="155" on="0"/>
        <pt x="144" y="128" on="0"/>
        <pt x="144" y="104" on="1"/>
        <pt x="144" y="91" on="0"/>
        <pt x="157" y="66" on="0"/>
      </contour>
      <contour>
        <pt x="207" y="-14" on="1"/>
        <pt x="166" y="-18" on="0"/>
        <pt x="106" y="1" on="0"/>
        <pt x="68" y="36" on="0"/>
        <pt x="50" y="82" on="0"/>
        <pt x="50" y="104" on="1"/>
        <pt x="50" y="132" on="0"/>
        <pt x="83" y="190" on="0"/>
        <pt x="120" y="211" on="1"/>
        <pt x="315" y="216" on="1"/>
        <pt x="315" y="319" on="1"/>
        <pt x="315" y="365" on="0"/>
        <pt x="293" y="413" on="0"/>
        <pt x="266" y="426" on="1"/>
        <pt x="238" y="425" on="0"/>
        <pt x="173" y="415" on="0"/>
        <pt x="153" y="409" on="1"/>
        <pt x="145" y="305" on="1"/>
        <pt x="92" y="301" on="1"/>
        <pt x="79" y="326" on="0"/>
        <pt x="64" y="390" on="0"/>
        <pt x="63" y="421" on="1"/>
        <pt x="85" y="434" on="0"/>
        <pt x="149" y="459" on="0"/>
        <pt x="214" y="480" on="0"/>
        <pt x="270" y="493" on="0"/>
        <pt x="285" y="493" on="1"/>
        <pt x="317" y="493" on="0"/>
        <pt x="376" y="442" on="0"/>
        <pt x="389" y="420" on="1"/>
        <pt x="418" y="451" on="0"/>
        <pt x="497" y="488" on="0"/>
        <pt x="544" y="488" on="1"/>
        <pt x="622" y="488" on="0"/>
        <pt x="724" y="388" on="0"/>
        <pt x="723" y="313" on="1"/>
        <pt x="666" y="257" on="1"/>
        <pt x="404" y="262" on="1"/>
        <pt x="404" y="259" on="0"/>
        <pt x="404" y="252" on="0"/>
        <pt x="404" y="249" on="1"/>
        <pt x="404" y="145" on="0"/>
        <pt x="503" y="61" on="0"/>
        <pt x="569" y="61" on="1"/>
        <pt x="603" y="61" on="0"/>
        <pt x="667" y="79" on="0"/>
        <pt x="701" y="94" on="1"/>
        <pt x="716" y="51" on="1"/>
        <pt x="560" y="-15" on="1"/>
        <pt x="494" y="-15" on="0"/>
        <pt x="399" y="31" on="0"/>
        <pt x="368" y="68" on="1"/>
      </contour>
    </TTGlyph>
    <TTGlyph name="agrave" xMin="50" yMin="-18" xMax="492" yMax="734">
      <component glyphName="a" x="0" y="0" flags="0x204"/>
      <component glyphName="gravecomb" x="246" y="0" flags="0x4"/>
    </TTGlyph>
    <TTGlyph name="amacron" xMin="50" yMin="-18" xMax="492" yMax="631">
      <component glyphName="a" x="0" y="0" flags="0x204"/>
      <component glyphName="uni0304" x="245" y="0" flags="0x4"/>
    </TTGlyph>
    <TTGlyph name="ampersand" xMin="23" yMin="-25" xMax="686" yMax="668">
      <contour>
        <pt x="558" y="220" on="1"/>
        <pt x="558" y="119" on="0"/>
        <pt x="417" y="-25" on="0"/>
        <pt x="292" y="-25" on="1"/>
        <pt x="237" y="-25" on="0"/>
        <pt x="138" y="6" on="0"/>
        <pt x="66" y="63" on="0"/>
        <pt x="23" y="144" on="0"/>
        <pt x="23" y="193" on="1"/>
        <pt x="23" y="250" on="0"/>
        <pt x="82" y="342" on="0"/>
        <pt x="133" y="364" on="1"/>
        <pt x="89" y="387" on="0"/>
        <pt x="44" y="464" on="0"/>
        <pt x="44" y="504" on="1"/>
        <pt x="44" y="565" on="0"/>
        <pt x="147" y="668" on="0"/>
        <pt x="251" y="668" on="1"/>
        <pt x="289" y="668" on="0"/>
        <pt x="381" y="650" on="0"/>
        <pt x="434" y="630" on="1"/>
        <pt x="405" y="543" on="1"/>
        <pt x="211" y="606" on="1"/>
        <pt x="174" y="588" on="0"/>
        <pt x="138" y="524" on="0"/>
        <pt x="138" y="490" on="1"/>
        <pt x="138" y="462" on="0"/>
        <pt x="162" y="408" on="0"/>
        <pt x="185" y="389" on="1"/>
        <pt x="291" y="363" on="1"/>
        <pt x="282" y="313" on="1"/>
        <pt x="201" y="314" on="0"/>
        <pt x="118" y="225" on="0"/>
        <pt x="118" y="170" on="1"/>
        <pt x="118" y="104" on="0"/>
        <pt x="221" y="35" on="0"/>
        <pt x="288" y="35" on="1"/>
        <pt x="307" y="35" on="0"/>
        <pt x="362" y="43" on="0"/>
        <pt x="391" y="55" on="1"/>
        <pt x="431" y="82" on="0"/>
        <pt x="468" y="163" on="0"/>
        <pt x="468" y="208" on="1"/>
        <pt x="468" y="242" on="0"/>
        <pt x="448" y="314" on="0"/>
        <pt x="430" y="346" on="1"/>
        <pt x="414" y="339" on="0"/>
        <pt x="377" y="319" on="0"/>
        <pt x="357" y="306" on="1"/>
        <pt x="330" y="355" on="1"/>
        <pt x="406" y="398" on="0"/>
        <pt x="514" y="446" on="0"/>
        <pt x="594" y="461" on="0"/>
        <pt x="656" y="445" on="0"/>
        <pt x="686" y="425" on="1"/>
        <pt x="663" y="332" on="1"/>
        <pt x="632" y="348" on="0"/>
        <pt x="565" y="378" on="0"/>
        <pt x="518" y="372" on="1"/>
        <pt x="538" y="334" on="0"/>
        <pt x="558" y="257" on="0"/>
      </contour>
    </TTGlyph>
    <TTGlyph name="aogonek" xMin="50" yMin="-245" xMax="492" yMax="493">
      <component glyphName="a" x="0" y="0" flags="0x204"/>
      <component glyphName="uni0328" x="449" y="3" flags="0x4"/>
    </TTGlyph>
    <TTGlyph name="approxequal" xMin="61" yMin="80" xMax="486" yMax="409">
      <component glyphName="tildecomb.case" x="265" y="-453" flags="0x4"/>
      <component glyphName="tildecomb.case" x="265" y="-623" flags="0x4"/>
    </TTGlyph>
    <TTGlyph name="aring" xMin="50" yMin="-18" xMax="492" yMax="746">
      <component glyphName="a" x="0" y="0" flags="0x204"/>
      <component glyphName="uni030A" x="246" y="-182" flags="0x4"/>
    </TTGlyph>
    <TTGlyph name="asciicircum" xMin="40" yMin="325" xMax="509" yMax="648">
      <contour>
        <pt x="40" y="358" on="1"/>
        <pt x="236" y="648" on="1"/>
        <pt x="301" y="648" on="1"/>
        <pt x="509" y="365" on="1"/>
        <pt x="462" y="331" on="1"/>
        <pt x="274" y="595" on="1"/>
        <pt x="267" y="595" on="1"/>
        <pt x="88" y="325" on="1"/>
      </contour>
    </TTGlyph>
    <TTGlyph name="asciitilde" xMin="91" yMin="180" xMax="516" yMax="339">
      <component glyphName="tildecomb.case" x="295" y="-523" flags="0x4"/>
    </TTGlyph>
    <TTGlyph name="asterisk" xMin="13" yMin="407" xMax="357" yMax="755">
      <contour>
        <pt x="122" y="736" on="1"/>
        <pt x="200" y="755" on="1"/>
        <pt x="187" y="607" on="1"/>
        <pt x="147" y="604" on="1"/>
      </contour>
      <contour>
        <pt x="315" y="681" on="1"/>
        <pt x="357" y="612" on="1"/>
        <pt x="213" y="579" on="1"/>
        <pt x="198" y="616" on="1"/>
      </contour>
      <contour>
        <pt x="13" y="566" on="1"/>
        <pt x="20" y="647" on="1"/>
        <pt x="156" y="589" on="1"/>
        <pt x="147" y="550" on="1"/>
      </contour>
      <contour>
        <pt x="329" y="480" on="1"/>
        <pt x="275" y="419" on="1"/>
        <pt x="199" y="546" on="1"/>
        <pt x="230" y="572" on="1"/>
      </contour>
      <contour>
        <pt x="139" y="407" on="1"/>
        <pt x="64" y="439" on="1"/>
        <pt x="161" y="551" on="1"/>
        <pt x="195" y="530" on="1"/>
      </contour>
    </TTGlyph>
    <TTGlyph name="at" xMin="101" yMin="-22" xMax="939" yMax="668">
      <contour>
        <pt x="232" y="-22" on="1"/>
        <pt x="166" y="49" on="0"/>
        <pt x="101" y="208" on="0"/>
        <pt x="101" y="285" on="1"/>
        <pt x="101" y="361" on="0"/>
        <pt x="161" y="500" on="0"/>
        <pt x="272" y="605" on="0"/>
        <pt x="433" y="668" on="0"/>
        <pt x="533" y="668" on="1"/>
        <pt x="636" y="668" on="0"/>
        <pt x="790" y="603" on="0"/>
        <pt x="890" y="498" on="0"/>
        <pt x="939" y="366" on="0"/>
        <pt x="939" y="299" on="1"/>
        <pt x="939" y="243" on="0"/>
        <pt x="904" y="136" on="0"/>
        <pt x="836" y="50" on="0"/>
        <pt x="734" y="-8" on="0"/>
        <pt x="666" y="-15" on="1"/>
        <pt x="651" y="-14" on="0"/>
        <pt x="606" y="29" on="0"/>
        <pt x="596" y="54" on="1"/>
        <pt x="483" y="-14" on="1"/>
        <pt x="442" y="-18" on="0"/>
        <pt x="382" y="1" on="0"/>
        <pt x="344" y="36" on="0"/>
        <pt x="326" y="82" on="0"/>
        <pt x="326" y="104" on="1"/>
        <pt x="326" y="132" on="0"/>
        <pt x="359" y="190" on="0"/>
        <pt x="396" y="211" on="1"/>
        <pt x="591" y="217" on="1"/>
        <pt x="591" y="319" on="1"/>
        <pt x="591" y="365" on="0"/>
        <pt x="568" y="413" on="0"/>
        <pt x="541" y="426" on="1"/>
        <pt x="513" y="425" on="0"/>
        <pt x="448" y="415" on="0"/>
        <pt x="428" y="409" on="1"/>
        <pt x="420" y="306" on="1"/>
        <pt x="367" y="302" on="1"/>
        <pt x="354" y="334" on="0"/>
        <pt x="339" y="390" on="0"/>
        <pt x="338" y="421" on="1"/>
        <pt x="360" y="434" on="0"/>
        <pt x="424" y="459" on="0"/>
        <pt x="489" y="480" on="0"/>
        <pt x="546" y="493" on="0"/>
        <pt x="561" y="493" on="1"/>
        <pt x="593" y="493" on="0"/>
        <pt x="657" y="444" on="0"/>
        <pt x="668" y="423" on="1"/>
        <pt x="675" y="410" on="0"/>
        <pt x="680" y="371" on="0"/>
        <pt x="680" y="319" on="1"/>
        <pt x="680" y="89" on="1"/>
        <pt x="680" y="51" on="0"/>
        <pt x="726" y="57" on="0"/>
        <pt x="745" y="70" on="1"/>
        <pt x="794" y="102" on="0"/>
        <pt x="844" y="229" on="0"/>
        <pt x="844" y="298" on="1"/>
        <pt x="844" y="354" on="0"/>
        <pt x="809" y="465" on="0"/>
        <pt x="736" y="553" on="0"/>
        <pt x="619" y="608" on="0"/>
        <pt x="538" y="608" on="1"/>
        <pt x="460" y="608" on="0"/>
        <pt x="334" y="555" on="0"/>
        <pt x="247" y="465" on="0"/>
        <pt x="200" y="345" on="0"/>
        <pt x="200" y="279" on="1"/>
        <pt x="200" y="214" on="0"/>
        <pt x="246" y="79" on="0"/>
        <pt x="293" y="18" on="1"/>
      </contour>
      <contour>
        <pt x="446" y="58" on="1"/>
        <pt x="483" y="57" on="0"/>
        <pt x="565" y="83" on="0"/>
        <pt x="591" y="95" on="1"/>
        <pt x="591" y="164" on="1"/>
        <pt x="563" y="167" on="0"/>
        <pt x="503" y="166" on="0"/>
        <pt x="453" y="154" on="0"/>
        <pt x="420" y="128" on="0"/>
        <pt x="420" y="104" on="1"/>
        <pt x="420" y="91" on="0"/>
        <pt x="433" y="66" on="0"/>
      </contour>
    </TTGlyph>
    <TTGlyph name="atilde" xMin="50" yMin="-18" xMax="492" yMax="704">
      <component glyphName="a" x="0" y="0" flags="0x204"/>
      <component glyphName="tildecomb" x="246" y="0" flags="0x4"/>
    </TTGlyph>
    <TTGlyph name="b" xMin="-20" yMin="-19" xMax="495" yMax="735">
      <contour>
        <pt x="237" y="-19" on="1"/>
        <pt x="197" y="-19" on="0"/>
        <pt x="112" y="3" on="0"/>
        <pt x="66" y="24" on="1"/>
        <pt x="66" y="663" on="1"/>
        <pt x="-8" y="657" on="1"/>
        <pt x="-20" y="704" on="1"/>
        <pt x="10" y="717" on="0"/>
        <pt x="85" y="734" on="0"/>
        <pt x="116" y="735" on="1"/>
        <pt x="155" y="699" on="1"/>
        <pt x="155" y="406" on="1"/>
        <pt x="273" y="481" on="1"/>
        <pt x="323" y="491" on="0"/>
        <pt x="405" y="461" on="0"/>
        <pt x="463" y="396" on="0"/>
        <pt x="495" y="302" on="0"/>
        <pt x="495" y="250" on="1"/>
        <pt x="495" y="135" on="0"/>
        <pt x="350" y="-19" on="0"/>
      </contour>
      <contour>
        <pt x="278" y="403" on="1"/>
        <pt x="249" y="403" on="0"/>
        <pt x="186" y="374" on="0"/>
        <pt x="155" y="353" on="1"/>
        <pt x="155" y="84" on="1"/>
        <pt x="179" y="66" on="0"/>
        <pt x="262" y="42" on="0"/>
        <pt x="316" y="50" on="1"/>
        <pt x="356" y="75" on="0"/>
        <pt x="401" y="176" on="0"/>
        <pt x="401" y="230" on="1"/>
        <pt x="401" y="297" on="0"/>
        <pt x="333" y="403" on="0"/>
      </contour>
    </TTGlyph>
    <TTGlyph name="backslash" xMin="4" yMin="-126" xMax="378" yMax="707">
      <contour>
        <pt x="378" y="-102" on="1"/>
        <pt x="310" y="-126" on="1"/>
        <pt x="4" y="681" on="1"/>
        <pt x="70" y="707" on="1"/>
      </contour>
    </TTGlyph>
    <TTGlyph name="bar" xMin="107" yMin="-225" xMax="184" yMax="735">
      <contour>
        <pt x="184" y="-225" on="1"/>
        <pt x="107" y="-225" on="1"/>
        <pt x="107" y="735" on="1"/>
        <pt x="184" y="735" on="1"/>
      </contour>
    </TTGlyph>
    <TTGlyph name="braceleft" xMin="69" yMin="-145" xMax="332" yMax="729">
      <contour>
        <pt x="329" y="-72" on="1"/>
        <pt x="319" y="-145" on="1"/>
        <pt x="238" y="-138" on="0"/>
        <pt x="144" y="-42" on="0"/>
        <pt x="144" y="10" on="1"/>
        <pt x="144" y="142" on="1"/>
        <pt x="144" y="202" on="0"/>
        <pt x="121" y="264" on="0"/>
        <pt x="69" y="268" on="1"/>
        <pt x="75" y="327" on="1"/>
        <pt x="121" y="331" on="0"/>
        <pt x="144" y="392" on="0"/>
        <pt x="144" y="443" on="1"/>
        <pt x="144" y="561" on="1"/>
        <pt x="144" y="620" on="0"/>
        <pt x="230" y="719" on="0"/>
        <pt x="326" y="729" on="1"/>
        <pt x="332" y="656" on="1"/>
        <pt x="239" y="656" on="1"/>
        <pt x="239" y="449" on="1"/>
        <pt x="239" y="411" on="0"/>
        <pt x="217" y="340" on="0"/>
        <pt x="189" y="304" on="1"/>
        <pt x="189" y="295" on="1"/>
        <pt x="217" y="258" on="0"/>
        <pt x="239" y="188" on="0"/>
        <pt x="239" y="149" on="1"/>
        <pt x="239" y="-60" on="1"/>
      </contour>
    </TTGlyph>
    <TTGlyph name="braceright" xMin="89" yMin="-145" xMax="352" yMax="729">
      <contour>
        <pt x="277" y="10" on="1"/>
        <pt x="277" y="-42" on="0"/>
        <pt x="183" y="-138" on="0"/>
        <pt x="102" y="-145" on="1"/>
        <pt x="92" y="-72" on="1"/>
        <pt x="182" y="-60" on="1"/>
        <pt x="182" y="149" on="1"/>
        <pt x="182" y="188" on="0"/>
        <pt x="204" y="258" on="0"/>
        <pt x="232" y="295" on="1"/>
        <pt x="232" y="304" on="1"/>
        <pt x="204" y="340" on="0"/>
        <pt x="182" y="411" on="0"/>
        <pt x="182" y="449" on="1"/>
        <pt x="182" y="656" on="1"/>
        <pt x="89" y="656" on="1"/>
        <pt x="95" y="729" on="1"/>
        <pt x="191" y="719" on="0"/>
        <pt x="277" y="620" on="0"/>
        <pt x="277" y="561" on="1"/>
        <pt x="277" y="443" on="1"/>
        <pt x="277" y="392" on="0"/>
        <pt x="300" y="331" on="0"/>
        <pt x="346" y="327" on="1"/>
        <pt x="352" y="268" on="1"/>
        <pt x="300" y="264" on="0"/>
        <pt x="277" y="202" on="0"/>
        <pt x="277" y="142" on="1"/>
      </contour>
    </TTGlyph>
    <TTGlyph name="bracketleft" xMin="99" yMin="-122" xMax="312" yMax="712">
      <contour>
        <pt x="99" y="712" on="1"/>
        <pt x="306" y="712" on="1"/>
        <pt x="312" y="656" on="1"/>
        <pt x="182" y="634" on="1"/>
        <pt x="182" y="-44" on="1"/>
        <pt x="312" y="-66" on="1"/>
        <pt x="306" y="-122" on="1"/>
        <pt x="99" y="-122" on="1"/>
      </contour>
    </TTGlyph>
    <TTGlyph name="bracketright" xMin="35" yMin="-122" xMax="248" yMax="712">
      <contour>
        <pt x="35" y="656" on="1"/>
        <pt x="41" y="712" on="1"/>
        <pt x="248" y="712" on="1"/>
        <pt x="248" y="-122" on="1"/>
        <pt x="41" y="-122" on="1"/>
        <pt x="35" y="-66" on="1"/>
        <pt x="165" y="-44" on="1"/>
        <pt x="165" y="634" on="1"/>
      </contour>
    </TTGlyph>
    <TTGlyph name="breve" xMin="40" yMin="551" xMax="330" yMax="715">
      <component glyphName="uni0306" x="184" y="0" flags="0x4"/>
    </TTGlyph>
    <TTGlyph name="brokenbar" xMin="107" yMin="-76" xMax="184" yMax="616">
      <contour>
        <pt x="184" y="358" on="1"/>
        <pt x="107" y="358" on="1"/>
        <pt x="107" y="616" on="1"/>
        <pt x="184" y="616" on="1"/>
      </contour>
      <contour>
        <pt x="184" y="-76" on="1"/>
        <pt x="107" y="-76" on="1"/>
        <pt x="107" y="182" on="1"/>
        <pt x="184" y="182" on="1"/>
      </contour>
    </TTGlyph>
    <TTGlyph name="bullet" xMin="85" yMin="136" xMax="326" yMax="392">
      <contour>
        <pt x="197" y="392" on="1"/>
        <pt x="244" y="376" on="0"/>
        <pt x="310" y="311" on="0"/>
        <pt x="326" y="264" on="1"/>
        <pt x="317" y="221" on="0"/>
        <pt x="262" y="157" on="0"/>
        <pt x="218" y="136" on="1"/>
        <pt x="170" y="147" on="0"/>
        <pt x="102" y="203" on="0"/>
        <pt x="85" y="245" on="1"/>
        <pt x="95" y="296" on="0"/>
        <pt x="152" y="370" on="0"/>
      </contour>
    </TTGlyph>
    <TTGlyph name="bulletoperator" xMin="30" yMin="178" xMax="149" yMax="296">
      <contour>
        <pt x="149" y="244" on="1"/>
        <pt x="142" y="226" on="0"/>
        <pt x="113" y="188" on="0"/>
        <pt x="97" y="178" on="1"/>
        <pt x="81" y="184" on="0"/>
        <pt x="40" y="215" on="0"/>
        <pt x="30" y="230" on="1"/>
        <pt x="40" y="249" on="0"/>
        <pt x="69" y="287" on="0"/>
        <pt x="84" y="296" on="1"/>
        <pt x="102" y="289" on="0"/>
        <pt x="139" y="257" on="0"/>
      </contour>
    </TTGlyph>
    <TTGlyph name="c" xMin="20" yMin="-16" xMax="400" yMax="488">
      <contour>
        <pt x="377" y="82" on="1"/>
        <pt x="394" y="40" on="1"/>
        <pt x="258" y="-15" on="1"/>
        <pt x="199" y="-16" on="0"/>
        <pt x="110" y="24" on="0"/>
        <pt x="50" y="91" on="0"/>
        <pt x="20" y="183" on="0"/>
        <pt x="20" y="234" on="1"/>
        <pt x="20" y="346" on="0"/>
        <pt x="150" y="488" on="0"/>
        <pt x="248" y="488" on="1"/>
        <pt x="294" y="488" on="0"/>
        <pt x="367" y="454" on="0"/>
        <pt x="400" y="422" on="1"/>
        <pt x="347" y="351" on="1"/>
        <pt x="309" y="381" on="0"/>
        <pt x="219" y="422" on="0"/>
        <pt x="175" y="425" on="1"/>
        <pt x="144" y="388" on="0"/>
        <pt x="113" y="303" on="0"/>
        <pt x="113" y="254" on="1"/>
        <pt x="113" y="170" on="0"/>
        <pt x="196" y="59" on="0"/>
        <pt x="273" y="59" on="1"/>
        <pt x="295" y="59" on="0"/>
        <pt x="350" y="70" on="0"/>
      </contour>
    </TTGlyph>
    <TTGlyph name="cacute" xMin="20" yMin="-16" xMax="400" yMax="734">
      <component glyphName="c" x="0" y="0" flags="0x204"/>
      <component glyphName="acutecomb" x="236" y="0" flags="0x4"/>
    </TTGlyph>
    <TTGlyph name="caron" xMin="31" yMin="541" xMax="365" yMax="743">
      <component glyphName="uni030C" x="209" y="0" flags="0x4"/>
    </TTGlyph>
    <TTGlyph name="ccaron" xMin="20" yMin="-16" xMax="400" yMax="743">
      <component glyphName="c" x="0" y="0" flags="0x204"/>
      <component glyphName="uni030C" x="236" y="0" flags="0x4"/>
    </TTGlyph>
    <TTGlyph name="ccedilla" xMin="20" yMin="-265" xMax="400" yMax="488">
      <component glyphName="c" x="0" y="0" flags="0x204"/>
      <component glyphName="uni0327" x="236" y="0" flags="0x4"/>
    </TTGlyph>
    <TTGlyph name="cedilla" xMin="30" yMin="-265" xMax="226" yMax="6">
      <component glyphName="uni0327" x="109" y="0" flags="0x4"/>
    </TTGlyph>
    <TTGlyph name="cent" xMin="20" yMin="-115" xMax="400" yMax="605">
      <contour>
        <pt x="394" y="66" on="1"/>
        <pt x="272" y="20" on="1"/>
        <pt x="272" y="-115" on="1"/>
        <pt x="210" y="-115" on="1"/>
        <pt x="210" y="18" on="1"/>
        <pt x="117" y="31" on="0"/>
        <pt x="20" y="159" on="0"/>
        <pt x="20" y="243" on="1"/>
        <pt x="20" y="336" on="0"/>
        <pt x="127" y="461" on="0"/>
        <pt x="210" y="473" on="1"/>
        <pt x="210" y="605" on="1"/>
        <pt x="272" y="605" on="1"/>
        <pt x="272" y="475" on="1"/>
        <pt x="309" y="471" on="0"/>
        <pt x="372" y="441" on="0"/>
        <pt x="400" y="416" on="1"/>
        <pt x="347" y="351" on="1"/>
        <pt x="309" y="378" on="0"/>
        <pt x="219" y="416" on="0"/>
        <pt x="175" y="418" on="1"/>
        <pt x="144" y="384" on="0"/>
        <pt x="113" y="307" on="0"/>
        <pt x="113" y="262" on="1"/>
        <pt x="113" y="185" on="0"/>
        <pt x="196" y="83" on="0"/>
        <pt x="273" y="83" on="1"/>
        <pt x="295" y="83" on="0"/>
        <pt x="350" y="93" on="0"/>
        <pt x="377" y="104" on="1"/>
      </contour>
    </TTGlyph>
    <TTGlyph name="circumflex" xMin="28" yMin="535" xMax="359" yMax="717">
      <component glyphName="uni0302" x="189" y="0" flags="0x4"/>
    </TTGlyph>
    <TTGlyph name="colon" xMin="90" yMin="-20" xMax="227" yMax="431">
      <contour>
        <pt x="154" y="431" on="1"/>
        <pt x="184" y="420" on="0"/>
        <pt x="223" y="383" on="0"/>
        <pt x="227" y="359" on="1"/>
        <pt x="220" y="334" on="0"/>
        <pt x="188" y="297" on="0"/>
        <pt x="166" y="287" on="1"/>
        <pt x="139" y="292" on="0"/>
        <pt x="100" y="323" on="0"/>
        <pt x="90" y="348" on="1"/>
        <pt x="94" y="376" on="0"/>
        <pt x="127" y="418" on="0"/>
      </contour>
      <contour>
        <pt x="154" y="124" on="1"/>
        <pt x="184" y="113" on="0"/>
        <pt x="223" y="76" on="0"/>
        <pt x="227" y="52" on="1"/>
        <pt x="220" y="27" on="0"/>
        <pt x="188" y="-10" on="0"/>
        <pt x="166" y="-20" on="1"/>
        <pt x="139" y="-15" on="0"/>
        <pt x="100" y="16" on="0"/>
        <pt x="90" y="41" on="1"/>
        <pt x="94" y="69" on="0"/>
        <pt x="127" y="111" on="0"/>
      </contour>
    </TTGlyph>
    <TTGlyph name="comma" xMin="42" yMin="-146" xMax="190" yMax="120">
      <contour>
        <pt x="71" y="-146" on="1"/>
        <pt x="42" y="-108" on="1"/>
        <pt x="74" y="-81" on="0"/>
        <pt x="108" y="-27" on="0"/>
        <pt x="110" y="0" on="1"/>
        <pt x="58" y="40" on="1"/>
        <pt x="62" y="68" on="0"/>
        <pt x="95" y="108" on="0"/>
        <pt x="119" y="120" on="1"/>
        <pt x="152" y="110" on="0"/>
        <pt x="190" y="58" on="0"/>
        <pt x="190" y="25" on="1"/>
        <pt x="190" y="-19" on="0"/>
        <pt x="128" y="-115" on="0"/>
      </contour>
    </TTGlyph>
    <TTGlyph name="copyright" xMin="62" yMin="-19" xMax="767" yMax="686">
      <contour>
        <pt x="767" y="332" on="1"/>
        <pt x="767" y="260" on="0"/>
        <pt x="713" y="132" on="0"/>
        <pt x="619" y="37" on="0"/>
        <pt x="490" y="-19" on="0"/>
        <pt x="415" y="-19" on="1"/>
        <pt x="342" y="-19" on="0"/>
        <pt x="213" y="34" on="0"/>
        <pt x="118" y="128" on="0"/>
        <pt x="62" y="256" on="0"/>
        <pt x="62" y="331" on="1"/>
        <pt x="62" y="405" on="0"/>
        <pt x="118" y="535" on="0"/>
        <pt x="213" y="631" on="0"/>
        <pt x="342" y="686" on="0"/>
        <pt x="414" y="686" on="1"/>
        <pt x="487" y="686" on="0"/>
        <pt x="616" y="631" on="0"/>
        <pt x="711" y="535" on="0"/>
        <pt x="767" y="406" on="0"/>
      </contour>
      <contour>
        <pt x="123" y="331" on="1"/>
        <pt x="123" y="269" on="0"/>
        <pt x="169" y="163" on="0"/>
        <pt x="248" y="86" on="0"/>
        <pt x="354" y="42" on="0"/>
        <pt x="413" y="42" on="1"/>
        <pt x="474" y="42" on="0"/>
        <pt x="581" y="88" on="0"/>
        <pt x="660" y="167" on="0"/>
        <pt x="706" y="274" on="0"/>
        <pt x="706" y="334" on="1"/>
        <pt x="706" y="394" on="0"/>
        <pt x="660" y="500" on="0"/>
        <pt x="582" y="579" on="0"/>
        <pt x="475" y="625" on="0"/>
        <pt x="415" y="625" on="1"/>
        <pt x="355" y="625" on="0"/>
        <pt x="248" y="579" on="0"/>
        <pt x="169" y="500" on="0"/>
        <pt x="123" y="392" on="0"/>
      </contour>
      <contour>
        <pt x="548" y="232" on="1"/>
        <pt x="565" y="190" on="1"/>
        <pt x="429" y="133" on="1"/>
        <pt x="379" y="134" on="0"/>
        <pt x="304" y="168" on="0"/>
        <pt x="255" y="223" on="0"/>
        <pt x="231" y="293" on="0"/>
        <pt x="231" y="329" on="1"/>
        <pt x="231" y="366" on="0"/>
        <pt x="256" y="439" on="0"/>
        <pt x="305" y="494" on="0"/>
        <pt x="379" y="529" on="0"/>
        <pt x="426" y="529" on="1"/>
        <pt x="469" y="529" on="0"/>
        <pt x="545" y="496" on="0"/>
        <pt x="575" y="457" on="1"/>
        <pt x="516" y="403" on="1"/>
        <pt x="488" y="434" on="0"/>
        <pt x="415" y="471" on="0"/>
        <pt x="367" y="472" on="1"/>
        <pt x="336" y="446" on="0"/>
        <pt x="306" y="376" on="0"/>
        <pt x="306" y="341" on="1"/>
        <pt x="306" y="288" on="0"/>
        <pt x="373" y="205" on="0"/>
        <pt x="439" y="205" on="1"/>
        <pt x="462" y="205" on="0"/>
        <pt x="517" y="218" on="0"/>
      </contour>
    </TTGlyph>
    <TTGlyph name="currency" xMin="60" yMin="129" xMax="450" yMax="579">
      <contour>
        <pt x="271" y="233" on="1"/>
        <pt x="279" y="233" on="0"/>
        <pt x="300" y="235" on="0"/>
        <pt x="311" y="237" on="1"/>
        <pt x="327" y="241" on="0"/>
        <pt x="355" y="307" on="0"/>
        <pt x="355" y="347" on="1"/>
        <pt x="355" y="390" on="0"/>
        <pt x="304" y="475" on="0"/>
        <pt x="233" y="475" on="1"/>
        <pt x="224" y="475" on="0"/>
        <pt x="206" y="473" on="0"/>
        <pt x="196" y="471" on="1"/>
        <pt x="177" y="457" on="0"/>
        <pt x="152" y="395" on="0"/>
        <pt x="152" y="359" on="1"/>
        <pt x="152" y="313" on="0"/>
        <pt x="206" y="233" on="0"/>
      </contour>
      <contour>
        <pt x="253" y="174" on="1"/>
        <pt x="229" y="174" on="0"/>
        <pt x="187" y="186" on="0"/>
        <pt x="168" y="197" on="1"/>
        <pt x="112" y="129" on="1"/>
        <pt x="66" y="170" on="1"/>
        <pt x="121" y="238" on="1"/>
        <pt x="103" y="261" on="0"/>
        <pt x="82" y="322" on="0"/>
        <pt x="82" y="356" on="1"/>
        <pt x="82" y="390" on="0"/>
        <pt x="103" y="448" on="0"/>
        <pt x="120" y="470" on="1"/>
        <pt x="60" y="538" on="1"/>
        <pt x="107" y="579" on="1"/>
        <pt x="168" y="511" on="1"/>
        <pt x="188" y="523" on="0"/>
        <pt x="235" y="536" on="0"/>
        <pt x="260" y="536" on="1"/>
        <pt x="283" y="536" on="0"/>
        <pt x="328" y="524" on="0"/>
        <pt x="347" y="512" on="1"/>
        <pt x="402" y="578" on="1"/>
        <pt x="450" y="539" on="1"/>
        <pt x="393" y="470" on="1"/>
        <pt x="408" y="448" on="0"/>
        <pt x="426" y="392" on="0"/>
        <pt x="426" y="358" on="1"/>
        <pt x="426" y="321" on="0"/>
        <pt x="406" y="261" on="0"/>
        <pt x="388" y="239" on="1"/>
        <pt x="448" y="174" on="1"/>
        <pt x="404" y="131" on="1"/>
        <pt x="342" y="198" on="1"/>
        <pt x="322" y="186" on="0"/>
        <pt x="276" y="174" on="0"/>
      </contour>
    </TTGlyph>
    <TTGlyph name="d" xMin="20" yMin="-16" xMax="531" yMax="735">
      <contour>
        <pt x="250" y="67" on="1"/>
        <pt x="272" y="67" on="0"/>
        <pt x="325" y="84" on="0"/>
        <pt x="355" y="102" on="1"/>
        <pt x="355" y="380" on="1"/>
        <pt x="324" y="405" on="0"/>
        <pt x="234" y="430" on="0"/>
        <pt x="185" y="420" on="1"/>
        <pt x="151" y="389" on="0"/>
        <pt x="114" y="295" on="0"/>
        <pt x="114" y="244" on="1"/>
        <pt x="114" y="169" on="0"/>
        <pt x="188" y="67" on="0"/>
      </contour>
      <contour>
        <pt x="249" y="-15" on="1"/>
        <pt x="148" y="-16" on="0"/>
        <pt x="20" y="131" on="0"/>
        <pt x="20" y="233" on="1"/>
        <pt x="20" y="291" on="0"/>
        <pt x="62" y="386" on="0"/>
        <pt x="131" y="453" on="0"/>
        <pt x="223" y="490" on="0"/>
        <pt x="272" y="490" on="1"/>
        <pt x="295" y="490" on="0"/>
        <pt x="337" y="482" on="0"/>
        <pt x="355" y="475" on="1"/>
        <pt x="355" y="663" on="1"/>
        <pt x="280" y="657" on="1"/>
        <pt x="268" y="704" on="1"/>
        <pt x="298" y="717" on="0"/>
        <pt x="373" y="734" on="0"/>
        <pt x="404" y="735" on="1"/>
        <pt x="444" y="699" on="1"/>
        <pt x="444" y="86" on="1"/>
        <pt x="444" y="75" on="0"/>
        <pt x="459" y="66" on="0"/>
        <pt x="470" y="66" on="1"/>
        <pt x="480" y="66" on="0"/>
        <pt x="506" y="72" on="0"/>
        <pt x="516" y="75" on="1"/>
        <pt x="531" y="31" on="1"/>
        <pt x="430" y="-15" on="1"/>
        <pt x="415" y="-14" on="0"/>
        <pt x="368" y="31" on="0"/>
        <pt x="358" y="58" on="1"/>
      </contour>
    </TTGlyph>
    <TTGlyph name="dagger" xMin="50" yMin="-180" xMax="481" yMax="689">
      <contour>
        <pt x="438" y="396" on="1"/>
        <pt x="297" y="396" on="1"/>
        <pt x="284" y="-180" on="1"/>
        <pt x="223" y="-180" on="1"/>
        <pt x="212" y="396" on="1"/>
        <pt x="56" y="396" on="1"/>
        <pt x="50" y="425" on="1"/>
        <pt x="93" y="468" on="1"/>
        <pt x="211" y="468" on="1"/>
        <pt x="207" y="657" on="1"/>
        <pt x="241" y="689" on="1"/>
        <pt x="303" y="685" on="1"/>
        <pt x="298" y="468" on="1"/>
        <pt x="475" y="468" on="1"/>
        <pt x="481" y="439" on="1"/>
      </contour>
    </TTGlyph>
    <TTGlyph name="daggerdbl" xMin="50" yMin="-180" xMax="490" yMax="689">
      <contour>
        <pt x="438" y="119" on="1"/>
        <pt x="300" y="119" on="1"/>
        <pt x="293" y="-180" on="1"/>
        <pt x="232" y="-180" on="1"/>
        <pt x="226" y="119" on="1"/>
        <pt x="56" y="119" on="1"/>
        <pt x="50" y="148" on="1"/>
        <pt x="93" y="191" on="1"/>
        <pt x="225" y="191" on="1"/>
        <pt x="221" y="396" on="1"/>
        <pt x="65" y="396" on="1"/>
        <pt x="59" y="425" on="1"/>
        <pt x="102" y="468" on="1"/>
        <pt x="220" y="468" on="1"/>
        <pt x="216" y="657" on="1"/>
        <pt x="250" y="689" on="1"/>
        <pt x="312" y="685" on="1"/>
        <pt x="307" y="468" on="1"/>
        <pt x="484" y="468" on="1"/>
        <pt x="490" y="439" on="1"/>
        <pt x="447" y="396" on="1"/>
        <pt x="306" y="396" on="1"/>
        <pt x="301" y="191" on="1"/>
        <pt x="475" y="191" on="1"/>
        <pt x="481" y="162" on="1"/>
      </contour>
    </TTGlyph>
    <TTGlyph name="dcaron" xMin="20" yMin="-16" xMax="657" yMax="803">
      <component glyphName="d" x="0" y="0" flags="0x204"/>
      <component glyphName="uni030C.calt" x="525" y="41" flags="0x4"/>
    </TTGlyph>
    <TTGlyph name="dcroat" xMin="20" yMin="-16" xMax="545" yMax="735">
      <contour>
        <pt x="250" y="67" on="1"/>
        <pt x="272" y="67" on="0"/>
        <pt x="325" y="84" on="0"/>
        <pt x="355" y="102" on="1"/>
        <pt x="355" y="380" on="1"/>
        <pt x="324" y="405" on="0"/>
        <pt x="234" y="430" on="0"/>
        <pt x="185" y="420" on="1"/>
        <pt x="151" y="389" on="0"/>
        <pt x="114" y="295" on="0"/>
        <pt x="114" y="244" on="1"/>
        <pt x="114" y="169" on="0"/>
        <pt x="188" y="67" on="0"/>
      </contour>
      <contour>
        <pt x="249" y="-15" on="1"/>
        <pt x="148" y="-16" on="0"/>
        <pt x="20" y="131" on="0"/>
        <pt x="20" y="233" on="1"/>
        <pt x="20" y="291" on="0"/>
        <pt x="62" y="386" on="0"/>
        <pt x="131" y="453" on="0"/>
        <pt x="223" y="490" on="0"/>
        <pt x="272" y="490" on="1"/>
        <pt x="295" y="490" on="0"/>
        <pt x="337" y="482" on="0"/>
        <pt x="355" y="475" on="1"/>
        <pt x="355" y="548" on="1"/>
        <pt x="229" y="548" on="1"/>
        <pt x="223" y="577" on="1"/>
        <pt x="266" y="602" on="1"/>
        <pt x="355" y="602" on="1"/>
        <pt x="355" y="663" on="1"/>
        <pt x="280" y="657" on="1"/>
        <pt x="268" y="704" on="1"/>
        <pt x="298" y="717" on="0"/>
        <pt x="373" y="734" on="0"/>
        <pt x="404" y="735" on="1"/>
        <pt x="444" y="699" on="1"/>
        <pt x="444" y="602" on="1"/>
        <pt x="539" y="602" on="1"/>
        <pt x="545" y="573" on="1"/>
        <pt x="502" y="548" on="1"/>
        <pt x="444" y="548" on="1"/>
        <pt x="444" y="86" on="1"/>
        <pt x="444" y="75" on="0"/>
        <pt x="459" y="66" on="0"/>
        <pt x="470" y="66" on="1"/>
        <pt x="480" y="66" on="0"/>
        <pt x="506" y="72" on="0"/>
        <pt x="516" y="75" on="1"/>
        <pt x="531" y="31" on="1"/>
        <pt x="430" y="-15" on="1"/>
        <pt x="415" y="-14" on="0"/>
        <pt x="368" y="31" on="0"/>
        <pt x="358" y="58" on="1"/>
      </contour>
    </TTGlyph>
    <TTGlyph name="degree" xMin="30" yMin="374" xMax="293" yMax="637">
      <contour>
        <pt x="164" y="374" on="1"/>
        <pt x="110" y="374" on="0"/>
        <pt x="30" y="446" on="0"/>
        <pt x="30" y="505" on="1"/>
        <pt x="30" y="560" on="0"/>
        <pt x="106" y="637" on="0"/>
        <pt x="160" y="637" on="1"/>
        <pt x="216" y="637" on="0"/>
        <pt x="293" y="560" on="0"/>
        <pt x="293" y="505" on="1"/>
        <pt x="293" y="445" on="0"/>
        <pt x="220" y="374" on="0"/>
      </contour>
      <contour>
        <pt x="171" y="422" on="1"/>
        <pt x="178" y="422" on="0"/>
        <pt x="196" y="424" on="0"/>
        <pt x="205" y="427" on="1"/>
        <pt x="220" y="440" on="0"/>
        <pt x="234" y="476" on="0"/>
        <pt x="234" y="495" on="1"/>
        <pt x="234" y="529" on="0"/>
        <pt x="190" y="587" on="0"/>
        <pt x="153" y="587" on="1"/>
        <pt x="143" y="587" on="0"/>
        <pt x="123" y="582" on="0"/>
        <pt x="112" y="578" on="1"/>
        <pt x="100" y="564" on="0"/>
        <pt x="88" y="529" on="0"/>
        <pt x="88" y="511" on="1"/>
        <pt x="88" y="477" on="0"/>
        <pt x="131" y="422" on="0"/>
      </contour>
    </TTGlyph>
    <TTGlyph name="dieresis" xMin="27" yMin="551" xMax="348" yMax="677">
      <component glyphName="uni0308" x="187" y="0" flags="0x4"/>
    </TTGlyph>
    <TTGlyph name="divide" xMin="60" yMin="-21" xMax="542" yMax="481">
      <contour>
        <pt x="301" y="481" on="1"/>
        <pt x="351" y="462" on="0"/>
        <pt x="371" y="412" on="0"/>
        <pt x="371" y="412" on="1"/>
        <pt x="371" y="412" on="0"/>
        <pt x="350" y="359" on="0"/>
        <pt x="313" y="343" on="1"/>
        <pt x="270" y="351" on="0"/>
        <pt x="240" y="402" on="0"/>
        <pt x="240" y="402" on="1"/>
        <pt x="242" y="423" on="0"/>
        <pt x="262" y="453" on="0"/>
        <pt x="284" y="472" on="0"/>
        <pt x="301" y="481" on="0"/>
      </contour>
      <contour>
        <pt x="60" y="264" on="1"/>
        <pt x="542" y="264" on="1"/>
        <pt x="542" y="198" on="1"/>
        <pt x="60" y="198" on="1"/>
      </contour>
      <contour>
        <pt x="300" y="117" on="1"/>
        <pt x="350" y="98" on="0"/>
        <pt x="370" y="48" on="0"/>
        <pt x="370" y="48" on="1"/>
        <pt x="370" y="48" on="0"/>
        <pt x="349" y="-5" on="0"/>
        <pt x="312" y="-21" on="1"/>
        <pt x="269" y="-13" on="0"/>
        <pt x="239" y="38" on="0"/>
        <pt x="239" y="38" on="1"/>
        <pt x="241" y="59" on="0"/>
        <pt x="261" y="89" on="0"/>
        <pt x="283" y="108" on="0"/>
        <pt x="300" y="117" on="0"/>
      </contour>
    </TTGlyph>
    <TTGlyph name="dollar" xMin="54" yMin="-145" xMax="488" yMax="785">
      <contour>
        <pt x="323" y="-145" on="1"/>
        <pt x="260" y="-145" on="1"/>
        <pt x="260" y="-20" on="1"/>
        <pt x="211" y="-19" on="0"/>
        <pt x="88" y="16" on="0"/>
        <pt x="56" y="49" on="1"/>
        <pt x="54" y="74" on="0"/>
        <pt x="58" y="172" on="0"/>
        <pt x="66" y="218" on="1"/>
        <pt x="120" y="218" on="1"/>
        <pt x="134" y="98" on="1"/>
        <pt x="182" y="62" on="0"/>
        <pt x="292" y="44" on="0"/>
        <pt x="335" y="48" on="1"/>
        <pt x="365" y="64" on="0"/>
        <pt x="393" y="122" on="0"/>
        <pt x="393" y="150" on="1"/>
        <pt x="393" y="202" on="0"/>
        <pt x="309" y="261" on="0"/>
        <pt x="243" y="292" on="1"/>
        <pt x="211" y="307" on="0"/>
        <pt x="145" y="342" on="0"/>
        <pt x="93" y="388" on="0"/>
        <pt x="60" y="448" on="0"/>
        <pt x="60" y="489" on="1"/>
        <pt x="60" y="569" on="0"/>
        <pt x="181" y="661" on="0"/>
        <pt x="260" y="668" on="1"/>
        <pt x="260" y="785" on="1"/>
        <pt x="322" y="785" on="1"/>
        <pt x="322" y="669" on="1"/>
        <pt x="362" y="666" on="0"/>
        <pt x="433" y="647" on="0"/>
        <pt x="458" y="639" on="1"/>
        <pt x="460" y="614" on="0"/>
        <pt x="456" y="516" on="0"/>
        <pt x="448" y="470" on="1"/>
        <pt x="394" y="470" on="1"/>
        <pt x="384" y="561" on="1"/>
        <pt x="344" y="592" on="0"/>
        <pt x="247" y="608" on="0"/>
        <pt x="201" y="601" on="1"/>
        <pt x="177" y="587" on="0"/>
        <pt x="153" y="535" on="0"/>
        <pt x="153" y="510" on="1"/>
        <pt x="153" y="461" on="0"/>
        <pt x="238" y="405" on="0"/>
        <pt x="302" y="375" on="1"/>
        <pt x="372" y="342" on="0"/>
        <pt x="488" y="256" on="0"/>
        <pt x="488" y="172" on="1"/>
        <pt x="488" y="96" on="0"/>
        <pt x="391" y="0" on="0"/>
        <pt x="323" y="-14" on="1"/>
      </contour>
    </TTGlyph>
    <TTGlyph name="dotaccent" xMin="30" yMin="551" xMax="148" yMax="677">
      <component glyphName="uni0307" x="90" y="0" flags="0x4"/>
    </TTGlyph>
    <TTGlyph name="dotbelowcomb" xMin="-60" yMin="-225" xMax="58" yMax="-99">
      <contour>
        <pt x="-5" y="-99" on="1"/>
        <pt x="18" y="-107" on="0"/>
        <pt x="57" y="-144" on="0"/>
        <pt x="58" y="-162" on="1"/>
        <pt x="53" y="-184" on="0"/>
        <pt x="26" y="-215" on="0"/>
        <pt x="6" y="-225" on="1"/>
        <pt x="-18" y="-220" on="0"/>
        <pt x="-51" y="-194" on="0"/>
        <pt x="-60" y="-172" on="1"/>
        <pt x="-57" y="-147" on="0"/>
        <pt x="-26" y="-109" on="0"/>
      </contour>
    </TTGlyph>
    <TTGlyph name="dotbelowcomb.case" xMin="-60" yMin="-225" xMax="58" yMax="-99">
      <component glyphName="dotbelowcomb" x="0" y="0" flags="0x204"/>
    </TTGlyph>
    <TTGlyph name="dotlessi" xMin="15" yMin="0" xMax="256" yMax="484">
      <contour>
        <pt x="36" y="0" on="1"/>
        <pt x="31" y="33" on="1"/>
        <pt x="44" y="39" on="0"/>
        <pt x="83" y="53" on="0"/>
        <pt x="102" y="59" on="1"/>
        <pt x="102" y="412" on="1"/>
        <pt x="27" y="406" on="1"/>
        <pt x="15" y="453" on="1"/>
        <pt x="45" y="466" on="0"/>
        <pt x="120" y="483" on="0"/>
        <pt x="151" y="484" on="1"/>
        <pt x="191" y="449" on="1"/>
        <pt x="191" y="63" on="1"/>
        <pt x="210" y="61" on="0"/>
        <pt x="244" y="53" on="0"/>
        <pt x="256" y="48" on="1"/>
        <pt x="250" y="0" on="1"/>
      </contour>
    </TTGlyph>
    <TTGlyph name="dvKSPLa" xMin="-30" yMin="-47" xMax="2002" yMax="608">
      <component glyphName="uni0915094D" x="0" y="0" flags="0x204"/>
      <component glyphName="uni0938094D" x="575" y="0" flags="0x4"/>
      <component glyphName="uni092A094D" x="969" y="0" flags="0x4"/>
      <component glyphName="uni0932" x="1289" y="0" flags="0x4"/>
    </TTGlyph>
    <TTGlyph name="dvKSPLa.MAR" xMin="-30" yMin="-47" xMax="2021" yMax="608">
      <component glyphName="uni0915094D" x="0" y="0" flags="0x204"/>
      <component glyphName="uni0938094D" x="605" y="0" flags="0x4"/>
      <component glyphName="uni092A094D" x="979" y="0" flags="0x4"/>
      <component glyphName="uni0932.MAR" x="1303" y="0" flags="0x4"/>
    </TTGlyph>
    <TTGlyph name="e" xMin="20" yMin="-15" xMax="429" yMax="488">
      <contour>
        <pt x="199" y="427" on="1"/>
        <pt x="168" y="411" on="0"/>
        <pt x="130" y="349" on="0"/>
        <pt x="122" y="315" on="1"/>
        <pt x="341" y="325" on="1"/>
        <pt x="331" y="372" on="0"/>
        <pt x="253" y="431" on="0"/>
      </contour>
      <contour>
        <pt x="421" y="51" on="1"/>
        <pt x="265" y="-15" on="1"/>
        <pt x="204" y="-15" on="0"/>
        <pt x="111" y="25" on="0"/>
        <pt x="51" y="92" on="0"/>
        <pt x="20" y="179" on="0"/>
        <pt x="20" y="226" on="1"/>
        <pt x="20" y="276" on="0"/>
        <pt x="53" y="371" on="0"/>
        <pt x="113" y="444" on="0"/>
        <pt x="198" y="488" on="0"/>
        <pt x="249" y="488" on="1"/>
        <pt x="327" y="488" on="0"/>
        <pt x="429" y="388" on="0"/>
        <pt x="428" y="313" on="1"/>
        <pt x="371" y="257" on="1"/>
        <pt x="114" y="262" on="1"/>
        <pt x="114" y="258" on="0"/>
        <pt x="114" y="251" on="0"/>
        <pt x="114" y="247" on="1"/>
        <pt x="114" y="159" on="0"/>
        <pt x="209" y="61" on="0"/>
        <pt x="278" y="61" on="1"/>
        <pt x="308" y="61" on="0"/>
        <pt x="372" y="79" on="0"/>
        <pt x="406" y="94" on="1"/>
      </contour>
    </TTGlyph>
    <TTGlyph name="eacute" xMin="20" yMin="-15" xMax="429" yMax="734">
      <component glyphName="e" x="0" y="0" flags="0x204"/>
      <component glyphName="acutecomb" x="242" y="0" flags="0x4"/>
    </TTGlyph>
    <TTGlyph name="ecaron" xMin="20" yMin="-15" xMax="429" yMax="743">
      <component glyphName="e" x="0" y="0" flags="0x204"/>
      <component glyphName="uni030C" x="242" y="0" flags="0x4"/>
    </TTGlyph>
    <TTGlyph name="ecircumflex" xMin="20" yMin="-15" xMax="429" yMax="717">
      <component glyphName="e" x="0" y="0" flags="0x204"/>
      <component glyphName="uni0302" x="242" y="0" flags="0x4"/>
    </TTGlyph>
    <TTGlyph name="edieresis" xMin="20" yMin="-15" xMax="429" yMax="677">
      <component glyphName="e" x="0" y="0" flags="0x204"/>
      <component glyphName="uni0308" x="242" y="0" flags="0x4"/>
    </TTGlyph>
    <TTGlyph name="edotaccent" xMin="20" yMin="-15" xMax="429" yMax="677">
      <component glyphName="e" x="0" y="0" flags="0x204"/>
      <component glyphName="uni0307" x="242" y="0" flags="0x4"/>
    </TTGlyph>
    <TTGlyph name="egrave" xMin="20" yMin="-15" xMax="429" yMax="734">
      <component glyphName="e" x="0" y="0" flags="0x204"/>
      <component glyphName="gravecomb" x="242" y="0" flags="0x4"/>
    </TTGlyph>
    <TTGlyph name="eight" xMin="40" yMin="-20" xMax="465" yMax="668">
      <contour>
        <pt x="247" y="-20" on="1"/>
        <pt x="148" y="-20" on="0"/>
        <pt x="40" y="81" on="0"/>
        <pt x="40" y="150" on="1"/>
        <pt x="40" y="205" on="0"/>
        <pt x="113" y="296" on="0"/>
        <pt x="181" y="330" on="1"/>
        <pt x="119" y="363" on="0"/>
        <pt x="55" y="451" on="0"/>
        <pt x="55" y="502" on="1"/>
        <pt x="55" y="570" on="0"/>
        <pt x="163" y="668" on="0"/>
        <pt x="256" y="668" on="1"/>
        <pt x="345" y="668" on="0"/>
        <pt x="445" y="580" on="0"/>
        <pt x="445" y="518" on="1"/>
        <pt x="445" y="472" on="0"/>
        <pt x="384" y="386" on="0"/>
        <pt x="319" y="349" on="1"/>
        <pt x="375" y="318" on="0"/>
        <pt x="465" y="233" on="0"/>
        <pt x="465" y="164" on="1"/>
        <pt x="465" y="91" on="0"/>
        <pt x="350" y="-20" on="0"/>
      </contour>
      <contour>
        <pt x="144" y="512" on="1"/>
        <pt x="144" y="462" on="0"/>
        <pt x="225" y="399" on="0"/>
        <pt x="275" y="373" on="1"/>
        <pt x="332" y="412" on="0"/>
        <pt x="362" y="483" on="0"/>
        <pt x="362" y="504" on="1"/>
        <pt x="362" y="549" on="0"/>
        <pt x="300" y="613" on="0"/>
        <pt x="249" y="613" on="1"/>
        <pt x="233" y="613" on="0"/>
        <pt x="198" y="605" on="0"/>
        <pt x="179" y="598" on="1"/>
        <pt x="160" y="575" on="0"/>
        <pt x="144" y="531" on="0"/>
      </contour>
      <contour>
        <pt x="262" y="41" on="1"/>
        <pt x="280" y="41" on="0"/>
        <pt x="321" y="49" on="0"/>
        <pt x="343" y="56" on="1"/>
        <pt x="358" y="81" on="0"/>
        <pt x="374" y="127" on="0"/>
        <pt x="374" y="148" on="1"/>
        <pt x="374" y="191" on="0"/>
        <pt x="303" y="269" on="0"/>
        <pt x="228" y="306" on="1"/>
        <pt x="183" y="282" on="0"/>
        <pt x="139" y="202" on="0"/>
        <pt x="139" y="162" on="1"/>
        <pt x="139" y="114" on="0"/>
        <pt x="202" y="41" on="0"/>
      </contour>
    </TTGlyph>
    <TTGlyph name="ellipsis" xMin="90" yMin="-18" xMax="827" yMax="126">
      <contour>
        <pt x="754" y="126" on="1"/>
        <pt x="784" y="115" on="0"/>
        <pt x="823" y="78" on="0"/>
        <pt x="827" y="54" on="1"/>
        <pt x="820" y="29" on="0"/>
        <pt x="788" y="-8" on="0"/>
        <pt x="766" y="-18" on="1"/>
        <pt x="739" y="-13" on="0"/>
        <pt x="700" y="18" on="0"/>
        <pt x="690" y="43" on="1"/>
        <pt x="694" y="71" on="0"/>
        <pt x="727" y="113" on="0"/>
      </contour>
      <contour>
        <pt x="454" y="126" on="1"/>
        <pt x="484" y="115" on="0"/>
        <pt x="523" y="78" on="0"/>
        <pt x="527" y="54" on="1"/>
        <pt x="520" y="29" on="0"/>
        <pt x="488" y="-8" on="0"/>
        <pt x="466" y="-18" on="1"/>
        <pt x="439" y="-13" on="0"/>
        <pt x="400" y="18" on="0"/>
        <pt x="390" y="43" on="1"/>
        <pt x="394" y="71" on="0"/>
        <pt x="427" y="113" on="0"/>
      </contour>
      <contour>
        <pt x="154" y="126" on="1"/>
        <pt x="184" y="115" on="0"/>
        <pt x="223" y="78" on="0"/>
        <pt x="227" y="54" on="1"/>
        <pt x="220" y="29" on="0"/>
        <pt x="188" y="-8" on="0"/>
        <pt x="166" y="-18" on="1"/>
        <pt x="139" y="-13" on="0"/>
        <pt x="100" y="18" on="0"/>
        <pt x="90" y="43" on="1"/>
        <pt x="94" y="71" on="0"/>
        <pt x="127" y="113" on="0"/>
      </contour>
    </TTGlyph>
    <TTGlyph name="emacron" xMin="20" yMin="-15" xMax="433" yMax="631">
      <component glyphName="e" x="0" y="0" flags="0x204"/>
      <component glyphName="uni0304" x="241" y="0" flags="0x4"/>
    </TTGlyph>
    <TTGlyph name="emdash" xMin="40" yMin="219" xMax="933" yMax="296">
      <contour>
        <pt x="40" y="267" on="1"/>
        <pt x="69" y="282" on="0"/>
        <pt x="131" y="296" on="0"/>
        <pt x="154" y="296" on="1"/>
        <pt x="930" y="296" on="1"/>
        <pt x="933" y="267" on="1"/>
        <pt x="886" y="219" on="1"/>
        <pt x="47" y="219" on="1"/>
      </contour>
    </TTGlyph>
    <TTGlyph name="endash" xMin="40" yMin="219" xMax="511" yMax="296">
      <contour>
        <pt x="40" y="267" on="1"/>
        <pt x="69" y="282" on="0"/>
        <pt x="131" y="296" on="0"/>
        <pt x="153" y="296" on="1"/>
        <pt x="507" y="296" on="1"/>
        <pt x="511" y="267" on="1"/>
        <pt x="463" y="219" on="1"/>
        <pt x="47" y="219" on="1"/>
      </contour>
    </TTGlyph>
    <TTGlyph name="eogonek" xMin="20" yMin="-229" xMax="429" yMax="488">
      <contour>
        <pt x="199" y="427" on="1"/>
        <pt x="168" y="411" on="0"/>
        <pt x="130" y="349" on="0"/>
        <pt x="122" y="315" on="1"/>
        <pt x="341" y="325" on="1"/>
        <pt x="331" y="372" on="0"/>
        <pt x="253" y="431" on="0"/>
      </contour>
      <contour>
        <pt x="300" y="-226" on="1"/>
        <pt x="244" y="-229" on="0"/>
        <pt x="182" y="-164" on="0"/>
        <pt x="182" y="-124" on="1"/>
        <pt x="182" y="-96" on="0"/>
        <pt x="214" y="-40" on="0"/>
        <pt x="243" y="-14" on="1"/>
        <pt x="187" y="-10" on="0"/>
        <pt x="103" y="32" on="0"/>
        <pt x="48" y="98" on="0"/>
        <pt x="20" y="182" on="0"/>
        <pt x="20" y="226" on="1"/>
        <pt x="20" y="276" on="0"/>
        <pt x="53" y="371" on="0"/>
        <pt x="113" y="444" on="0"/>
        <pt x="198" y="488" on="0"/>
        <pt x="249" y="488" on="1"/>
        <pt x="327" y="488" on="0"/>
        <pt x="429" y="388" on="0"/>
        <pt x="428" y="313" on="1"/>
        <pt x="371" y="257" on="1"/>
        <pt x="114" y="262" on="1"/>
        <pt x="114" y="258" on="0"/>
        <pt x="114" y="251" on="0"/>
        <pt x="114" y="247" on="1"/>
        <pt x="114" y="159" on="0"/>
        <pt x="209" y="61" on="0"/>
        <pt x="278" y="61" on="1"/>
        <pt x="308" y="61" on="0"/>
        <pt x="372" y="79" on="0"/>
        <pt x="406" y="94" on="1"/>
        <pt x="421" y="51" on="1"/>
        <pt x="374" y="28" on="1"/>
        <pt x="322" y="3" on="0"/>
        <pt x="255" y="-64" on="0"/>
        <pt x="255" y="-101" on="1"/>
        <pt x="255" y="-138" on="0"/>
        <pt x="329" y="-171" on="0"/>
        <pt x="399" y="-133" on="1"/>
        <pt x="416" y="-172" on="1"/>
      </contour>
    </TTGlyph>
    <TTGlyph name="equal" xMin="60" yMin="124" xMax="532" yMax="369">
      <contour>
        <pt x="60" y="369" on="1"/>
        <pt x="532" y="369" on="1"/>
        <pt x="532" y="304" on="1"/>
        <pt x="60" y="304" on="1"/>
      </contour>
      <contour>
        <pt x="60" y="189" on="1"/>
        <pt x="532" y="189" on="1"/>
        <pt x="532" y="124" on="1"/>
        <pt x="60" y="124" on="1"/>
      </contour>
    </TTGlyph>
    <TTGlyph name="eth" xMin="20" yMin="-24" xMax="465" yMax="761">
      <contour>
        <pt x="245" y="-24" on="1"/>
        <pt x="149" y="-24" on="0"/>
        <pt x="20" y="125" on="0"/>
        <pt x="20" y="230" on="1"/>
        <pt x="20" y="336" on="0"/>
        <pt x="150" y="483" on="0"/>
        <pt x="246" y="483" on="1"/>
        <pt x="282" y="483" on="0"/>
        <pt x="331" y="461" on="0"/>
        <pt x="353" y="442" on="1"/>
        <pt x="338" y="485" on="0"/>
        <pt x="306" y="559" on="0"/>
        <pt x="285" y="593" on="1"/>
        <pt x="196" y="545" on="1"/>
        <pt x="155" y="563" on="1"/>
        <pt x="143" y="589" on="1"/>
        <pt x="250" y="647" on="1"/>
        <pt x="237" y="664" on="0"/>
        <pt x="207" y="702" on="0"/>
        <pt x="190" y="722" on="1"/>
        <pt x="258" y="761" on="1"/>
        <pt x="275" y="742" on="0"/>
        <pt x="306" y="703" on="0"/>
        <pt x="320" y="684" on="1"/>
        <pt x="418" y="737" on="1"/>
        <pt x="449" y="681" on="1"/>
        <pt x="355" y="631" on="1"/>
        <pt x="416" y="530" on="0"/>
        <pt x="465" y="333" on="0"/>
        <pt x="465" y="261" on="1"/>
        <pt x="465" y="127" on="0"/>
        <pt x="338" y="-24" on="0"/>
      </contour>
      <contour>
        <pt x="107" y="233" on="1"/>
        <pt x="107" y="196" on="0"/>
        <pt x="130" y="125" on="0"/>
        <pt x="177" y="71" on="0"/>
        <pt x="250" y="42" on="0"/>
        <pt x="299" y="48" on="1"/>
        <pt x="350" y="93" on="0"/>
        <pt x="382" y="256" on="0"/>
        <pt x="366" y="346" on="1"/>
        <pt x="326" y="382" on="0"/>
        <pt x="243" y="420" on="0"/>
        <pt x="194" y="419" on="1"/>
        <pt x="154" y="395" on="0"/>
        <pt x="107" y="288" on="0"/>
      </contour>
    </TTGlyph>
    <TTGlyph name="exclam" xMin="80" yMin="-20" xMax="217" yMax="656">
      <contour>
        <pt x="177" y="210" on="1"/>
        <pt x="120" y="210" on="1"/>
        <pt x="88" y="636" on="1"/>
        <pt x="98" y="646" on="0"/>
        <pt x="133" y="656" on="0"/>
        <pt x="171" y="656" on="0"/>
        <pt x="204" y="645" on="0"/>
        <pt x="211" y="634" on="1"/>
      </contour>
      <contour>
        <pt x="80" y="41" on="1"/>
        <pt x="84" y="69" on="0"/>
        <pt x="117" y="111" on="0"/>
        <pt x="144" y="124" on="1"/>
        <pt x="174" y="113" on="0"/>
        <pt x="213" y="76" on="0"/>
        <pt x="217" y="52" on="1"/>
        <pt x="210" y="27" on="0"/>
        <pt x="178" y="-10" on="0"/>
        <pt x="156" y="-20" on="1"/>
        <pt x="129" y="-15" on="0"/>
        <pt x="90" y="16" on="0"/>
      </contour>
    </TTGlyph>
    <TTGlyph name="exclamdown" xMin="80" yMin="-189" xMax="217" yMax="487">
      <contour>
        <pt x="144" y="343" on="1"/>
        <pt x="117" y="356" on="0"/>
        <pt x="84" y="398" on="0"/>
        <pt x="80" y="426" on="1"/>
        <pt x="90" y="451" on="0"/>
        <pt x="129" y="482" on="0"/>
        <pt x="156" y="487" on="1"/>
        <pt x="178" y="477" on="0"/>
        <pt x="210" y="440" on="0"/>
        <pt x="217" y="415" on="1"/>
        <pt x="213" y="391" on="0"/>
        <pt x="174" y="354" on="0"/>
      </contour>
      <contour>
        <pt x="120" y="257" on="1"/>
        <pt x="177" y="257" on="1"/>
        <pt x="211" y="-167" on="1"/>
        <pt x="204" y="-178" on="0"/>
        <pt x="171" y="-189" on="0"/>
        <pt x="133" y="-189" on="0"/>
        <pt x="98" y="-179" on="0"/>
        <pt x="88" y="-169" on="1"/>
      </contour>
    </TTGlyph>
    <TTGlyph name="f" xMin="15" yMin="0" xMax="361" yMax="751">
      <contour>
        <pt x="20" y="0" on="1"/>
        <pt x="15" y="33" on="1"/>
        <pt x="27" y="39" on="0"/>
        <pt x="65" y="53" on="0"/>
        <pt x="83" y="58" on="1"/>
        <pt x="83" y="393" on="1"/>
        <pt x="21" y="391" on="1"/>
        <pt x="15" y="440" on="1"/>
        <pt x="32" y="448" on="0"/>
        <pt x="67" y="458" on="0"/>
        <pt x="83" y="462" on="1"/>
        <pt x="83" y="563" on="1"/>
        <pt x="83" y="651" on="0"/>
        <pt x="185" y="751" on="0"/>
        <pt x="248" y="751" on="1"/>
        <pt x="277" y="751" on="0"/>
        <pt x="336" y="727" on="0"/>
        <pt x="361" y="702" on="1"/>
        <pt x="305" y="622" on="1"/>
        <pt x="271" y="656" on="0"/>
        <pt x="190" y="677" on="0"/>
        <pt x="154" y="663" on="1"/>
        <pt x="177" y="468" on="1"/>
        <pt x="282" y="468" on="1"/>
        <pt x="285" y="440" on="1"/>
        <pt x="238" y="391" on="1"/>
        <pt x="172" y="391" on="1"/>
        <pt x="172" y="66" on="1"/>
        <pt x="196" y="64" on="0"/>
        <pt x="247" y="55" on="0"/>
        <pt x="263" y="48" on="1"/>
        <pt x="257" y="0" on="1"/>
      </contour>
    </TTGlyph>
    <TTGlyph name="f_b.liga" xMin="15" yMin="-19" xMax="839" yMax="735">
      <contour>
        <pt x="581" y="-19" on="1"/>
        <pt x="541" y="-19" on="0"/>
        <pt x="456" y="3" on="0"/>
        <pt x="410" y="24" on="1"/>
        <pt x="410" y="657" on="1"/>
        <pt x="154" y="657" on="1"/>
        <pt x="177" y="468" on="1"/>
        <pt x="282" y="468" on="1"/>
        <pt x="285" y="440" on="1"/>
        <pt x="238" y="391" on="1"/>
        <pt x="172" y="391" on="1"/>
        <pt x="172" y="66" on="1"/>
        <pt x="196" y="64" on="0"/>
        <pt x="247" y="55" on="0"/>
        <pt x="263" y="48" on="1"/>
        <pt x="257" y="0" on="1"/>
        <pt x="20" y="0" on="1"/>
        <pt x="15" y="33" on="1"/>
        <pt x="27" y="39" on="0"/>
        <pt x="65" y="53" on="0"/>
        <pt x="83" y="58" on="1"/>
        <pt x="83" y="393" on="1"/>
        <pt x="21" y="391" on="1"/>
        <pt x="15" y="440" on="1"/>
        <pt x="32" y="448" on="0"/>
        <pt x="67" y="458" on="0"/>
        <pt x="83" y="462" on="1"/>
        <pt x="83" y="546" on="1"/>
        <pt x="83" y="594" on="0"/>
        <pt x="115" y="665" on="0"/>
        <pt x="168" y="712" on="0"/>
        <pt x="235" y="735" on="0"/>
        <pt x="269" y="735" on="1"/>
        <pt x="460" y="735" on="1"/>
        <pt x="499" y="699" on="1"/>
        <pt x="499" y="406" on="1"/>
        <pt x="617" y="481" on="1"/>
        <pt x="667" y="491" on="0"/>
        <pt x="749" y="461" on="0"/>
        <pt x="807" y="396" on="0"/>
        <pt x="839" y="302" on="0"/>
        <pt x="839" y="250" on="1"/>
        <pt x="839" y="135" on="0"/>
        <pt x="694" y="-19" on="0"/>
      </contour>
      <contour>
        <pt x="622" y="403" on="1"/>
        <pt x="593" y="403" on="0"/>
        <pt x="530" y="374" on="0"/>
        <pt x="499" y="353" on="1"/>
        <pt x="499" y="84" on="1"/>
        <pt x="523" y="66" on="0"/>
        <pt x="606" y="42" on="0"/>
        <pt x="660" y="50" on="1"/>
        <pt x="700" y="75" on="0"/>
        <pt x="745" y="176" on="0"/>
        <pt x="745" y="230" on="1"/>
        <pt x="745" y="297" on="0"/>
        <pt x="677" y="403" on="0"/>
      </contour>
    </TTGlyph>
    <TTGlyph name="f_f.liga" xMin="15" yMin="0" xMax="687" yMax="751">
      <component glyphName="f" x="0" y="0" flags="0x204"/>
      <component glyphName="f" x="326" y="0" flags="0x4"/>
    </TTGlyph>
    <TTGlyph name="f_h.liga" xMin="15" yMin="0" xMax="894" yMax="735">
      <contour>
        <pt x="20" y="0" on="1"/>
        <pt x="15" y="33" on="1"/>
        <pt x="27" y="39" on="0"/>
        <pt x="65" y="53" on="0"/>
        <pt x="83" y="58" on="1"/>
        <pt x="83" y="393" on="1"/>
        <pt x="21" y="391" on="1"/>
        <pt x="15" y="440" on="1"/>
        <pt x="32" y="448" on="0"/>
        <pt x="67" y="458" on="0"/>
        <pt x="83" y="462" on="1"/>
        <pt x="83" y="546" on="1"/>
        <pt x="83" y="594" on="0"/>
        <pt x="115" y="665" on="0"/>
        <pt x="168" y="712" on="0"/>
        <pt x="235" y="735" on="0"/>
        <pt x="269" y="735" on="1"/>
        <pt x="477" y="735" on="1"/>
        <pt x="517" y="700" on="1"/>
        <pt x="517" y="386" on="1"/>
        <pt x="581" y="429" on="0"/>
        <pt x="692" y="484" on="0"/>
        <pt x="717" y="484" on="1"/>
        <pt x="745" y="479" on="0"/>
        <pt x="797" y="438" on="0"/>
        <pt x="808" y="417" on="1"/>
        <pt x="815" y="403" on="0"/>
        <pt x="822" y="352" on="0"/>
        <pt x="822" y="300" on="1"/>
        <pt x="822" y="64" on="1"/>
        <pt x="842" y="62" on="0"/>
        <pt x="881" y="54" on="0"/>
        <pt x="894" y="48" on="1"/>
        <pt x="888" y="0" on="1"/>
        <pt x="681" y="0" on="1"/>
        <pt x="676" y="33" on="1"/>
        <pt x="686" y="38" on="0"/>
        <pt x="717" y="50" on="0"/>
        <pt x="733" y="55" on="1"/>
        <pt x="733" y="296" on="1"/>
        <pt x="733" y="356" on="0"/>
        <pt x="694" y="404" on="0"/>
        <pt x="669" y="404" on="1"/>
        <pt x="640" y="404" on="0"/>
        <pt x="553" y="359" on="0"/>
        <pt x="517" y="332" on="1"/>
        <pt x="517" y="63" on="1"/>
        <pt x="536" y="61" on="0"/>
        <pt x="570" y="53" on="0"/>
        <pt x="582" y="48" on="1"/>
        <pt x="576" y="0" on="1"/>
        <pt x="359" y="0" on="1"/>
        <pt x="354" y="33" on="1"/>
        <pt x="367" y="40" on="0"/>
        <pt x="409" y="54" on="0"/>
        <pt x="428" y="60" on="1"/>
        <pt x="428" y="657" on="1"/>
        <pt x="154" y="657" on="1"/>
        <pt x="177" y="468" on="1"/>
        <pt x="282" y="468" on="1"/>
        <pt x="285" y="440" on="1"/>
        <pt x="238" y="391" on="1"/>
        <pt x="172" y="391" on="1"/>
        <pt x="172" y="66" on="1"/>
        <pt x="196" y="64" on="0"/>
        <pt x="247" y="55" on="0"/>
        <pt x="263" y="48" on="1"/>
        <pt x="257" y="0" on="1"/>
      </contour>
    </TTGlyph>
    <TTGlyph name="f_i.liga" xMin="15" yMin="0" xMax="589" yMax="751">
      <component glyphName="f" x="0" y="0" flags="0x204"/>
      <component glyphName="i" x="326" y="0" flags="0x4"/>
    </TTGlyph>
    <TTGlyph name="f_j.liga" xMin="15" yMin="-210" xMax="540" yMax="751">
      <component glyphName="f" x="0" y="0" flags="0x204"/>
      <component glyphName="j" x="326" y="0" flags="0x4"/>
    </TTGlyph>
    <TTGlyph name="f_k.liga" xMin="15" yMin="-15" xMax="857" yMax="735">
      <contour>
        <pt x="762" y="-15" on="1"/>
        <pt x="739" y="-10" on="0"/>
        <pt x="709" y="19" on="0"/>
        <pt x="690" y="47" on="1"/>
        <pt x="592" y="197" on="1"/>
        <pt x="514" y="185" on="1"/>
        <pt x="514" y="62" on="1"/>
        <pt x="530" y="59" on="0"/>
        <pt x="559" y="52" on="0"/>
        <pt x="569" y="48" on="1"/>
        <pt x="563" y="0" on="1"/>
        <pt x="356" y="0" on="1"/>
        <pt x="351" y="33" on="1"/>
        <pt x="364" y="40" on="0"/>
        <pt x="406" y="54" on="0"/>
        <pt x="425" y="60" on="1"/>
        <pt x="425" y="657" on="1"/>
        <pt x="154" y="657" on="1"/>
        <pt x="177" y="468" on="1"/>
        <pt x="282" y="468" on="1"/>
        <pt x="285" y="440" on="1"/>
        <pt x="238" y="391" on="1"/>
        <pt x="172" y="391" on="1"/>
        <pt x="172" y="66" on="1"/>
        <pt x="196" y="64" on="0"/>
        <pt x="247" y="55" on="0"/>
        <pt x="263" y="48" on="1"/>
        <pt x="257" y="0" on="1"/>
        <pt x="20" y="0" on="1"/>
        <pt x="15" y="33" on="1"/>
        <pt x="27" y="39" on="0"/>
        <pt x="65" y="53" on="0"/>
        <pt x="83" y="58" on="1"/>
        <pt x="83" y="393" on="1"/>
        <pt x="21" y="391" on="1"/>
        <pt x="15" y="440" on="1"/>
        <pt x="32" y="448" on="0"/>
        <pt x="67" y="458" on="0"/>
        <pt x="83" y="462" on="1"/>
        <pt x="83" y="546" on="1"/>
        <pt x="83" y="594" on="0"/>
        <pt x="115" y="665" on="0"/>
        <pt x="168" y="712" on="0"/>
        <pt x="235" y="735" on="0"/>
        <pt x="269" y="735" on="1"/>
        <pt x="474" y="735" on="1"/>
        <pt x="514" y="700" on="1"/>
        <pt x="514" y="234" on="1"/>
        <pt x="590" y="276" on="1"/>
        <pt x="711" y="417" on="1"/>
        <pt x="627" y="406" on="1"/>
        <pt x="615" y="453" on="1"/>
        <pt x="652" y="466" on="0"/>
        <pt x="752" y="483" on="0"/>
        <pt x="783" y="484" on="1"/>
        <pt x="814" y="434" on="1"/>
        <pt x="656" y="251" on="1"/>
        <pt x="778" y="75" on="1"/>
        <pt x="785" y="65" on="0"/>
        <pt x="816" y="65" on="0"/>
        <pt x="842" y="72" on="1"/>
        <pt x="857" y="28" on="1"/>
      </contour>
    </TTGlyph>
    <TTGlyph name="f_l.liga" xMin="15" yMin="0" xMax="589" yMax="735">
      <contour>
        <pt x="20" y="0" on="1"/>
        <pt x="15" y="33" on="1"/>
        <pt x="27" y="39" on="0"/>
        <pt x="65" y="53" on="0"/>
        <pt x="83" y="58" on="1"/>
        <pt x="83" y="393" on="1"/>
        <pt x="21" y="391" on="1"/>
        <pt x="15" y="440" on="1"/>
        <pt x="32" y="448" on="0"/>
        <pt x="67" y="458" on="0"/>
        <pt x="83" y="462" on="1"/>
        <pt x="83" y="546" on="1"/>
        <pt x="83" y="594" on="0"/>
        <pt x="115" y="665" on="0"/>
        <pt x="168" y="712" on="0"/>
        <pt x="235" y="735" on="0"/>
        <pt x="269" y="735" on="1"/>
        <pt x="477" y="735" on="1"/>
        <pt x="517" y="700" on="1"/>
        <pt x="517" y="64" on="1"/>
        <pt x="537" y="62" on="0"/>
        <pt x="576" y="54" on="0"/>
        <pt x="589" y="48" on="1"/>
        <pt x="583" y="0" on="1"/>
        <pt x="357" y="0" on="1"/>
        <pt x="352" y="33" on="1"/>
        <pt x="365" y="40" on="0"/>
        <pt x="409" y="55" on="0"/>
        <pt x="428" y="61" on="1"/>
        <pt x="428" y="657" on="1"/>
        <pt x="154" y="657" on="1"/>
        <pt x="177" y="468" on="1"/>
        <pt x="282" y="468" on="1"/>
        <pt x="285" y="440" on="1"/>
        <pt x="238" y="391" on="1"/>
        <pt x="172" y="391" on="1"/>
        <pt x="172" y="66" on="1"/>
        <pt x="196" y="64" on="0"/>
        <pt x="247" y="55" on="0"/>
        <pt x="263" y="48" on="1"/>
        <pt x="257" y="0" on="1"/>
      </contour>
    </TTGlyph>
    <TTGlyph name="f_t.liga" xMin="15" yMin="-17" xMax="648" yMax="751">
      <component glyphName="f" x="0" y="0" flags="0x204"/>
      <component glyphName="t" x="326" y="0" flags="0x4"/>
    </TTGlyph>
    <TTGlyph name="five" xMin="49" yMin="-20" xMax="492" yMax="650">
      <contour>
        <pt x="272" y="-20" on="1"/>
        <pt x="218" y="-20" on="0"/>
        <pt x="97" y="19" on="0"/>
        <pt x="49" y="51" on="1"/>
        <pt x="88" y="133" on="1"/>
        <pt x="151" y="90" on="0"/>
        <pt x="291" y="53" on="0"/>
        <pt x="357" y="66" on="1"/>
        <pt x="388" y="94" on="0"/>
        <pt x="406" y="147" on="0"/>
        <pt x="406" y="169" on="1"/>
        <pt x="406" y="241" on="0"/>
        <pt x="308" y="307" on="0"/>
        <pt x="248" y="307" on="1"/>
        <pt x="219" y="307" on="0"/>
        <pt x="157" y="294" on="0"/>
        <pt x="132" y="284" on="1"/>
        <pt x="83" y="327" on="1"/>
        <pt x="118" y="650" on="1"/>
        <pt x="458" y="650" on="1"/>
        <pt x="460" y="613" on="0"/>
        <pt x="457" y="525" on="0"/>
        <pt x="450" y="488" on="1"/>
        <pt x="393" y="487" on="1"/>
        <pt x="382" y="571" on="1"/>
        <pt x="182" y="580" on="1"/>
        <pt x="162" y="373" on="1"/>
        <pt x="181" y="383" on="0"/>
        <pt x="237" y="391" on="0"/>
        <pt x="260" y="391" on="1"/>
        <pt x="301" y="391" on="0"/>
        <pt x="384" y="368" on="0"/>
        <pt x="450" y="319" on="0"/>
        <pt x="492" y="242" on="0"/>
        <pt x="492" y="189" on="1"/>
        <pt x="492" y="98" on="0"/>
        <pt x="368" y="-20" on="0"/>
      </contour>
    </TTGlyph>
    <TTGlyph name="four" xMin="25" yMin="0" xMax="531" yMax="670">
      <contour>
        <pt x="326" y="483" on="1"/>
        <pt x="338" y="574" on="1"/>
        <pt x="123" y="239" on="1"/>
        <pt x="326" y="245" on="1"/>
      </contour>
      <contour>
        <pt x="221" y="0" on="1"/>
        <pt x="215" y="34" on="1"/>
        <pt x="242" y="44" on="0"/>
        <pt x="298" y="62" on="0"/>
        <pt x="326" y="70" on="1"/>
        <pt x="326" y="175" on="1"/>
        <pt x="48" y="175" on="1"/>
        <pt x="25" y="232" on="1"/>
        <pt x="338" y="670" on="1"/>
        <pt x="415" y="660" on="1"/>
        <pt x="415" y="247" on="1"/>
        <pt x="530" y="250" on="1"/>
        <pt x="531" y="200" on="1"/>
        <pt x="503" y="175" on="1"/>
        <pt x="415" y="175" on="1"/>
        <pt x="415" y="59" on="1"/>
        <pt x="498" y="48" on="1"/>
        <pt x="492" y="0" on="1"/>
      </contour>
    </TTGlyph>
    <TTGlyph name="four.dnom" xMin="5" yMin="0" xMax="266" yMax="325">
      <component glyphName="foursuperior" x="0" y="-426" flags="0x4"/>
    </TTGlyph>
    <TTGlyph name="four.numr" xMin="5" yMin="345" xMax="266" yMax="670">
      <component glyphName="foursuperior" x="0" y="-81" flags="0x4"/>
    </TTGlyph>
    <TTGlyph name="foursuperior" xMin="5" yMin="426" xMax="266" yMax="751">
      <contour>
        <pt x="148" y="631" on="1"/>
        <pt x="158" y="674" on="1"/>
        <pt x="73" y="543" on="1"/>
        <pt x="148" y="544" on="1"/>
      </contour>
      <contour>
        <pt x="98" y="426" on="1"/>
        <pt x="95" y="442" on="1"/>
        <pt x="107" y="448" on="0"/>
        <pt x="134" y="458" on="0"/>
        <pt x="148" y="462" on="1"/>
        <pt x="148" y="499" on="1"/>
        <pt x="16" y="499" on="1"/>
        <pt x="5" y="529" on="1"/>
        <pt x="160" y="751" on="1"/>
        <pt x="211" y="740" on="1"/>
        <pt x="211" y="545" on="1"/>
        <pt x="266" y="545" on="1"/>
        <pt x="266" y="519" on="1"/>
        <pt x="253" y="499" on="1"/>
        <pt x="211" y="499" on="1"/>
        <pt x="211" y="457" on="1"/>
        <pt x="252" y="451" on="1"/>
        <pt x="250" y="426" on="1"/>
      </contour>
    </TTGlyph>
    <TTGlyph name="fraction" xMin="-228" yMin="20" xMax="390" yMax="664">
      <contour>
        <pt x="-182" y="20" on="1"/>
        <pt x="-228" y="64" on="1"/>
        <pt x="346" y="664" on="1"/>
        <pt x="390" y="619" on="1"/>
      </contour>
    </TTGlyph>
    <TTGlyph name="g" xMin="26" yMin="-231" xMax="526" yMax="542">
      <contour>
        <pt x="370" y="316" on="1"/>
        <pt x="370" y="348" on="0"/>
        <pt x="339" y="406" on="0"/>
        <pt x="286" y="440" on="0"/>
        <pt x="213" y="444" on="0"/>
        <pt x="172" y="423" on="1"/>
        <pt x="153" y="400" on="0"/>
        <pt x="139" y="353" on="0"/>
        <pt x="139" y="331" on="1"/>
        <pt x="139" y="262" on="0"/>
        <pt x="237" y="188" on="0"/>
        <pt x="322" y="218" on="1"/>
        <pt x="350" y="240" on="0"/>
        <pt x="370" y="293" on="0"/>
      </contour>
      <contour>
        <pt x="498" y="28" on="1"/>
        <pt x="511" y="-31" on="0"/>
        <pt x="469" y="-128" on="0"/>
        <pt x="387" y="-195" on="0"/>
        <pt x="276" y="-231" on="0"/>
        <pt x="220" y="-231" on="1"/>
        <pt x="142" y="-231" on="0"/>
        <pt x="26" y="-158" on="0"/>
        <pt x="34" y="-89" on="1"/>
        <pt x="153" y="21" on="1"/>
        <pt x="134" y="22" on="0"/>
        <pt x="93" y="24" on="0"/>
        <pt x="74" y="25" on="1"/>
        <pt x="56" y="72" on="1"/>
        <pt x="76" y="97" on="0"/>
        <pt x="134" y="151" on="0"/>
        <pt x="162" y="171" on="1"/>
        <pt x="114" y="190" on="0"/>
        <pt x="47" y="267" on="0"/>
        <pt x="47" y="325" on="1"/>
        <pt x="47" y="367" on="0"/>
        <pt x="84" y="431" on="0"/>
        <pt x="143" y="474" on="0"/>
        <pt x="218" y="496" on="0"/>
        <pt x="255" y="496" on="1"/>
        <pt x="291" y="496" on="0"/>
        <pt x="360" y="476" on="0"/>
        <pt x="388" y="457" on="1"/>
        <pt x="406" y="491" on="0"/>
        <pt x="470" y="535" on="0"/>
        <pt x="507" y="542" on="1"/>
        <pt x="526" y="438" on="1"/>
        <pt x="500" y="438" on="0"/>
        <pt x="452" y="428" on="0"/>
        <pt x="431" y="418" on="1"/>
        <pt x="445" y="399" on="0"/>
        <pt x="462" y="351" on="0"/>
        <pt x="462" y="323" on="1"/>
        <pt x="462" y="281" on="0"/>
        <pt x="425" y="217" on="0"/>
        <pt x="366" y="175" on="0"/>
        <pt x="292" y="154" on="0"/>
        <pt x="255" y="154" on="1"/>
        <pt x="246" y="154" on="0"/>
        <pt x="227" y="156" on="0"/>
        <pt x="218" y="157" on="1"/>
        <pt x="199" y="142" on="0"/>
        <pt x="162" y="109" on="0"/>
        <pt x="150" y="96" on="1"/>
        <pt x="186" y="95" on="0"/>
        <pt x="280" y="83" on="0"/>
        <pt x="375" y="65" on="0"/>
        <pt x="465" y="41" on="0"/>
      </contour>
      <contour>
        <pt x="226" y="-150" on="1"/>
        <pt x="286" y="-150" on="0"/>
        <pt x="416" y="-97" on="0"/>
        <pt x="444" y="-45" on="1"/>
        <pt x="413" y="-26" on="0"/>
        <pt x="288" y="5" on="0"/>
        <pt x="213" y="15" on="1"/>
        <pt x="173" y="-12" on="0"/>
        <pt x="115" y="-70" on="0"/>
        <pt x="115" y="-95" on="1"/>
        <pt x="115" y="-120" on="0"/>
        <pt x="178" y="-150" on="0"/>
      </contour>
    </TTGlyph>
    <TTGlyph name="gbreve" xMin="26" yMin="-231" xMax="526" yMax="715">
      <component glyphName="g" x="0" y="0" flags="0x204"/>
      <component glyphName="uni0306" x="255" y="0" flags="0x4"/>
    </TTGlyph>
    <TTGlyph name="gcommaaccent" xMin="26" yMin="-231" xMax="526" yMax="731">
      <component glyphName="g" x="0" y="0" flags="0x204"/>
      <component glyphName="uni00200326" x="308" y="790" flags="0x4"/>
    </TTGlyph>
    <TTGlyph name="germandbls" xMin="15" yMin="-16" xMax="519" yMax="686">
      <contour>
        <pt x="360" y="-16" on="1"/>
        <pt x="326" y="-16" on="0"/>
        <pt x="256" y="4" on="0"/>
        <pt x="225" y="21" on="1"/>
        <pt x="263" y="105" on="1"/>
        <pt x="287" y="89" on="0"/>
        <pt x="368" y="51" on="0"/>
        <pt x="412" y="44" on="1"/>
        <pt x="422" y="59" on="0"/>
        <pt x="434" y="89" on="0"/>
        <pt x="434" y="104" on="1"/>
        <pt x="434" y="141" on="0"/>
        <pt x="375" y="193" on="0"/>
        <pt x="306" y="240" on="0"/>
        <pt x="247" y="290" on="0"/>
        <pt x="247" y="325" on="1"/>
        <pt x="263" y="356" on="0"/>
        <pt x="315" y="424" on="0"/>
        <pt x="353" y="495" on="0"/>
        <pt x="362" y="569" on="0"/>
        <pt x="335" y="607" on="1"/>
        <pt x="303" y="618" on="0"/>
        <pt x="198" y="613" on="0"/>
        <pt x="157" y="585" on="1"/>
        <pt x="169" y="434" on="1"/>
        <pt x="169" y="0" on="1"/>
        <pt x="20" y="0" on="1"/>
        <pt x="15" y="33" on="1"/>
        <pt x="27" y="39" on="0"/>
        <pt x="65" y="53" on="0"/>
        <pt x="83" y="58" on="1"/>
        <pt x="83" y="393" on="1"/>
        <pt x="21" y="391" on="1"/>
        <pt x="15" y="440" on="1"/>
        <pt x="32" y="448" on="0"/>
        <pt x="67" y="458" on="0"/>
        <pt x="83" y="462" on="1"/>
        <pt x="83" y="479" on="1"/>
        <pt x="83" y="586" on="0"/>
        <pt x="195" y="686" on="0"/>
        <pt x="264" y="686" on="1"/>
        <pt x="343" y="686" on="0"/>
        <pt x="443" y="583" on="0"/>
        <pt x="443" y="520" on="1"/>
        <pt x="443" y="475" on="0"/>
        <pt x="383" y="391" on="0"/>
        <pt x="317" y="353" on="1"/>
        <pt x="327" y="325" on="0"/>
        <pt x="393" y="282" on="0"/>
        <pt x="463" y="235" on="0"/>
        <pt x="519" y="170" on="0"/>
        <pt x="519" y="120" on="1"/>
        <pt x="519" y="56" on="0"/>
        <pt x="425" y="-16" on="0"/>
      </contour>
    </TTGlyph>
    <TTGlyph name="grave" xMin="40" yMin="531" xMax="255" yMax="734">
      <component glyphName="gravecomb" x="169" y="0" flags="0x4"/>
    </TTGlyph>
    <TTGlyph name="gravecomb" xMin="-129" yMin="531" xMax="86" yMax="734">
      <contour>
        <pt x="86" y="574" on="1"/>
        <pt x="34" y="531" on="1"/>
        <pt x="-8" y="571" on="0"/>
        <pt x="-84" y="637" on="0"/>
        <pt x="-129" y="674" on="1"/>
        <pt x="-56" y="734" on="1"/>
      </contour>
    </TTGlyph>
    <TTGlyph name="gravecomb.case" xMin="-134" yMin="692" xMax="141" yMax="874">
      <contour>
        <pt x="-84" y="874" on="1"/>
        <pt x="141" y="749" on="1"/>
        <pt x="106" y="692" on="1"/>
        <pt x="44" y="718" on="0"/>
        <pt x="-71" y="766" on="0"/>
        <pt x="-134" y="790" on="1"/>
      </contour>
    </TTGlyph>
    <TTGlyph name="greater" xMin="80" yMin="-6" xMax="493" yMax="500">
      <contour>
        <pt x="409" y="241" on="1"/>
        <pt x="80" y="446" on="1"/>
        <pt x="115" y="500" on="1"/>
        <pt x="493" y="272" on="1"/>
        <pt x="485" y="202" on="1"/>
        <pt x="116" y="-6" on="1"/>
        <pt x="83" y="52" on="1"/>
        <pt x="408" y="235" on="1"/>
      </contour>
    </TTGlyph>
    <TTGlyph name="greaterequal" xMin="60" yMin="0" xMax="542" yMax="593">
      <contour>
        <pt x="95" y="539" on="1"/>
        <pt x="130" y="593" on="1"/>
        <pt x="508" y="385" on="1"/>
        <pt x="500" y="315" on="1"/>
        <pt x="131" y="127" on="1"/>
        <pt x="98" y="185" on="1"/>
        <pt x="423" y="348" on="1"/>
        <pt x="424" y="354" on="1"/>
      </contour>
      <contour>
        <pt x="60" y="0" on="1"/>
        <pt x="60" y="65" on="1"/>
        <pt x="542" y="65" on="1"/>
        <pt x="542" y="0" on="1"/>
      </contour>
    </TTGlyph>
    <TTGlyph name="guillemotleft" xMin="60" yMin="46" xMax="446" yMax="463">
      <contour>
        <pt x="251" y="233" on="1"/>
        <pt x="251" y="273" on="1"/>
        <pt x="385" y="463" on="1"/>
        <pt x="441" y="433" on="1"/>
        <pt x="350" y="253" on="1"/>
        <pt x="446" y="81" on="1"/>
        <pt x="391" y="46" on="1"/>
      </contour>
      <contour>
        <pt x="60" y="233" on="1"/>
        <pt x="60" y="273" on="1"/>
        <pt x="194" y="463" on="1"/>
        <pt x="250" y="433" on="1"/>
        <pt x="159" y="253" on="1"/>
        <pt x="255" y="81" on="1"/>
        <pt x="200" y="46" on="1"/>
      </contour>
    </TTGlyph>
    <TTGlyph name="guillemotright" xMin="60" yMin="46" xMax="446" yMax="463">
      <contour>
        <pt x="255" y="273" on="1"/>
        <pt x="255" y="233" on="1"/>
        <pt x="115" y="46" on="1"/>
        <pt x="60" y="81" on="1"/>
        <pt x="156" y="253" on="1"/>
        <pt x="65" y="433" on="1"/>
        <pt x="121" y="463" on="1"/>
      </contour>
      <contour>
        <pt x="446" y="273" on="1"/>
        <pt x="446" y="233" on="1"/>
        <pt x="306" y="46" on="1"/>
        <pt x="251" y="81" on="1"/>
        <pt x="347" y="253" on="1"/>
        <pt x="256" y="433" on="1"/>
        <pt x="312" y="463" on="1"/>
      </contour>
    </TTGlyph>
    <TTGlyph name="guilsinglleft" xMin="60" yMin="46" xMax="255" yMax="463">
      <contour>
        <pt x="60" y="233" on="1"/>
        <pt x="60" y="273" on="1"/>
        <pt x="194" y="463" on="1"/>
        <pt x="250" y="433" on="1"/>
        <pt x="149" y="253" on="1"/>
        <pt x="255" y="81" on="1"/>
        <pt x="200" y="46" on="1"/>
      </contour>
    </TTGlyph>
    <TTGlyph name="guilsinglright" xMin="60" yMin="46" xMax="255" yMax="463">
      <contour>
        <pt x="121" y="463" on="1"/>
        <pt x="255" y="273" on="1"/>
        <pt x="255" y="233" on="1"/>
        <pt x="115" y="46" on="1"/>
        <pt x="60" y="81" on="1"/>
        <pt x="166" y="253" on="1"/>
        <pt x="65" y="433" on="1"/>
      </contour>
    </TTGlyph>
    <TTGlyph name="h" xMin="15" yMin="0" xMax="568" yMax="735">
      <contour>
        <pt x="33" y="0" on="1"/>
        <pt x="28" y="33" on="1"/>
        <pt x="41" y="40" on="0"/>
        <pt x="83" y="54" on="0"/>
        <pt x="102" y="60" on="1"/>
        <pt x="102" y="663" on="1"/>
        <pt x="27" y="657" on="1"/>
        <pt x="15" y="704" on="1"/>
        <pt x="45" y="717" on="0"/>
        <pt x="120" y="734" on="0"/>
        <pt x="151" y="735" on="1"/>
        <pt x="191" y="700" on="1"/>
        <pt x="191" y="386" on="1"/>
        <pt x="255" y="429" on="0"/>
        <pt x="366" y="484" on="0"/>
        <pt x="391" y="484" on="1"/>
        <pt x="419" y="479" on="0"/>
        <pt x="471" y="438" on="0"/>
        <pt x="482" y="417" on="1"/>
        <pt x="489" y="403" on="0"/>
        <pt x="496" y="352" on="0"/>
        <pt x="496" y="300" on="1"/>
        <pt x="496" y="64" on="1"/>
        <pt x="516" y="62" on="0"/>
        <pt x="555" y="54" on="0"/>
        <pt x="568" y="48" on="1"/>
        <pt x="562" y="0" on="1"/>
        <pt x="355" y="0" on="1"/>
        <pt x="350" y="33" on="1"/>
        <pt x="360" y="38" on="0"/>
        <pt x="391" y="50" on="0"/>
        <pt x="407" y="55" on="1"/>
        <pt x="407" y="296" on="1"/>
        <pt x="407" y="356" on="0"/>
        <pt x="368" y="404" on="0"/>
        <pt x="343" y="404" on="1"/>
        <pt x="314" y="404" on="0"/>
        <pt x="227" y="359" on="0"/>
        <pt x="191" y="332" on="1"/>
        <pt x="191" y="63" on="1"/>
        <pt x="210" y="61" on="0"/>
        <pt x="244" y="53" on="0"/>
        <pt x="256" y="48" on="1"/>
        <pt x="250" y="0" on="1"/>
      </contour>
    </TTGlyph>
    <TTGlyph name="hungarumlaut" xMin="30" yMin="532" xMax="425" yMax="742">
      <component glyphName="uni030B" x="173" y="0" flags="0x4"/>
    </TTGlyph>
    <TTGlyph name="hyphen" xMin="30" yMin="249" xMax="323" yMax="319">
      <contour>
        <pt x="314" y="249" on="1"/>
        <pt x="60" y="249" on="1"/>
        <pt x="30" y="299" on="1"/>
        <pt x="39" y="319" on="1"/>
        <pt x="293" y="319" on="1"/>
        <pt x="323" y="269" on="1"/>
      </contour>
    </TTGlyph>
    <TTGlyph name="hyphen.deva" xMin="30" yMin="249" xMax="323" yMax="319">
      <contour>
        <pt x="314" y="249" on="1"/>
        <pt x="60" y="249" on="1"/>
        <pt x="30" y="299" on="1"/>
        <pt x="39" y="319" on="1"/>
        <pt x="293" y="319" on="1"/>
        <pt x="323" y="269" on="1"/>
      </contour>
    </TTGlyph>
    <TTGlyph name="i" xMin="15" yMin="0" xMax="263" yMax="709">
      <contour>
        <pt x="210" y="649" on="1"/>
        <pt x="203" y="629" on="0"/>
        <pt x="168" y="585" on="0"/>
        <pt x="151" y="573" on="1"/>
        <pt x="132" y="580" on="0"/>
        <pt x="86" y="616" on="0"/>
        <pt x="74" y="633" on="1"/>
        <pt x="84" y="655" on="0"/>
        <pt x="119" y="699" on="0"/>
        <pt x="135" y="709" on="1"/>
        <pt x="156" y="701" on="0"/>
        <pt x="199" y="664" on="0"/>
      </contour>
      <contour>
        <pt x="31" y="0" on="1"/>
        <pt x="26" y="33" on="1"/>
        <pt x="39" y="40" on="0"/>
        <pt x="83" y="55" on="0"/>
        <pt x="102" y="61" on="1"/>
        <pt x="102" y="412" on="1"/>
        <pt x="27" y="406" on="1"/>
        <pt x="15" y="453" on="1"/>
        <pt x="45" y="466" on="0"/>
        <pt x="120" y="483" on="0"/>
        <pt x="151" y="484" on="1"/>
        <pt x="191" y="449" on="1"/>
        <pt x="191" y="64" on="1"/>
        <pt x="211" y="62" on="0"/>
        <pt x="250" y="54" on="0"/>
        <pt x="263" y="48" on="1"/>
        <pt x="257" y="0" on="1"/>
      </contour>
    </TTGlyph>
    <TTGlyph name="iacute" xMin="15" yMin="0" xMax="261" yMax="734">
      <component glyphName="dotlessi" x="0" y="0" flags="0x204"/>
      <component glyphName="acutecomb" x="129" y="0" flags="0x4"/>
    </TTGlyph>
    <TTGlyph name="icircumflex" xMin="-32" yMin="0" xMax="299" yMax="717">
      <component glyphName="dotlessi" x="0" y="0" flags="0x204"/>
      <component glyphName="uni0302" x="129" y="0" flags="0x4"/>
    </TTGlyph>
    <TTGlyph name="idieresis" xMin="-31" yMin="0" xMax="290" yMax="677">
      <component glyphName="dotlessi" x="0" y="0" flags="0x204"/>
      <component glyphName="uni0308" x="129" y="0" flags="0x4"/>
    </TTGlyph>
    <TTGlyph name="igrave" xMin="0" yMin="0" xMax="256" yMax="734">
      <component glyphName="dotlessi" x="0" y="0" flags="0x204"/>
      <component glyphName="gravecomb" x="129" y="0" flags="0x4"/>
    </TTGlyph>
    <TTGlyph name="imacron" xMin="15" yMin="0" xMax="296" yMax="651">
      <contour>
        <pt x="15" y="626" on="1"/>
        <pt x="44" y="641" on="0"/>
        <pt x="105" y="651" on="0"/>
        <pt x="128" y="651" on="1"/>
        <pt x="291" y="651" on="1"/>
        <pt x="296" y="616" on="1"/>
        <pt x="249" y="582" on="1"/>
        <pt x="21" y="582" on="1"/>
      </contour>
      <contour>
        <pt x="62" y="0" on="1"/>
        <pt x="57" y="33" on="1"/>
        <pt x="70" y="39" on="0"/>
        <pt x="109" y="53" on="0"/>
        <pt x="128" y="59" on="1"/>
        <pt x="128" y="412" on="1"/>
        <pt x="53" y="406" on="1"/>
        <pt x="41" y="453" on="1"/>
        <pt x="71" y="466" on="0"/>
        <pt x="146" y="483" on="0"/>
        <pt x="177" y="484" on="1"/>
        <pt x="217" y="449" on="1"/>
        <pt x="217" y="63" on="1"/>
        <pt x="236" y="61" on="0"/>
        <pt x="270" y="53" on="0"/>
        <pt x="282" y="48" on="1"/>
        <pt x="276" y="0" on="1"/>
      </contour>
    </TTGlyph>
    <TTGlyph name="infinity" xMin="31" yMin="168" xMax="716" yMax="509">
      <contour>
        <pt x="549" y="168" on="1"/>
        <pt x="483" y="168" on="0"/>
        <pt x="398" y="241" on="0"/>
        <pt x="367" y="284" on="1"/>
        <pt x="332" y="226" on="0"/>
        <pt x="244" y="172" on="0"/>
        <pt x="200" y="172" on="1"/>
        <pt x="171" y="172" on="0"/>
        <pt x="111" y="194" on="0"/>
        <pt x="62" y="237" on="0"/>
        <pt x="31" y="299" on="0"/>
        <pt x="31" y="339" on="1"/>
        <pt x="31" y="414" on="0"/>
        <pt x="136" y="509" on="0"/>
        <pt x="202" y="509" on="1"/>
        <pt x="262" y="509" on="0"/>
        <pt x="346" y="439" on="0"/>
        <pt x="380" y="396" on="1"/>
        <pt x="416" y="452" on="0"/>
        <pt x="512" y="508" on="0"/>
        <pt x="555" y="508" on="1"/>
        <pt x="618" y="508" on="0"/>
        <pt x="716" y="408" on="0"/>
        <pt x="716" y="331" on="1"/>
        <pt x="716" y="253" on="0"/>
        <pt x="615" y="168" on="0"/>
      </contour>
      <contour>
        <pt x="213" y="253" on="1"/>
        <pt x="254" y="253" on="0"/>
        <pt x="314" y="294" on="0"/>
        <pt x="336" y="328" on="1"/>
        <pt x="290" y="393" on="0"/>
        <pt x="194" y="449" on="0"/>
        <pt x="142" y="424" on="1"/>
        <pt x="127" y="408" on="0"/>
        <pt x="110" y="366" on="0"/>
        <pt x="110" y="345" on="1"/>
        <pt x="110" y="307" on="0"/>
        <pt x="164" y="253" on="0"/>
      </contour>
      <contour>
        <pt x="539" y="432" on="1"/>
        <pt x="506" y="432" on="0"/>
        <pt x="442" y="387" on="0"/>
        <pt x="415" y="350" on="1"/>
        <pt x="469" y="281" on="0"/>
        <pt x="541" y="227" on="0"/>
        <pt x="595" y="242" on="1"/>
        <pt x="611" y="257" on="0"/>
        <pt x="629" y="301" on="0"/>
        <pt x="629" y="325" on="1"/>
        <pt x="629" y="364" on="0"/>
        <pt x="582" y="432" on="0"/>
      </contour>
    </TTGlyph>
    <TTGlyph name="integral" xMin="-44" yMin="-177" xMax="326" yMax="752">
      <contour>
        <pt x="237" y="12" on="1"/>
        <pt x="237" y="-75" on="0"/>
        <pt x="137" y="-175" on="0"/>
        <pt x="75" y="-176" on="1"/>
        <pt x="44" y="-177" on="0"/>
        <pt x="-19" y="-153" on="0"/>
        <pt x="-44" y="-127" on="1"/>
        <pt x="12" y="-47" on="1"/>
        <pt x="12" y="-47" on="0"/>
        <pt x="38" y="-67" on="0"/>
        <pt x="80" y="-87" on="0"/>
        <pt x="134" y="-97" on="0"/>
        <pt x="163" y="-88" on="1"/>
        <pt x="48" y="562" on="1"/>
        <pt x="48" y="650" on="0"/>
        <pt x="146" y="749" on="0"/>
        <pt x="207" y="751" on="1"/>
        <pt x="238" y="752" on="0"/>
        <pt x="301" y="727" on="0"/>
        <pt x="326" y="701" on="1"/>
        <pt x="270" y="621" on="1"/>
        <pt x="270" y="621" on="0"/>
        <pt x="245" y="641" on="0"/>
        <pt x="204" y="661" on="0"/>
        <pt x="151" y="671" on="0"/>
        <pt x="122" y="662" on="1"/>
      </contour>
    </TTGlyph>
    <TTGlyph name="iogonek" xMin="15" yMin="-257" xMax="279" yMax="709">
      <component glyphName="i" x="0" y="0" flags="0x204"/>
      <component glyphName="ogonek" x="8" y="-9" flags="0x4"/>
    </TTGlyph>
    <TTGlyph name="j" xMin="0" yMin="-210" xMax="214" yMax="708">
      <contour>
        <pt x="214" y="648" on="1"/>
        <pt x="207" y="628" on="0"/>
        <pt x="172" y="584" on="0"/>
        <pt x="155" y="572" on="1"/>
        <pt x="136" y="579" on="0"/>
        <pt x="90" y="615" on="0"/>
        <pt x="78" y="632" on="1"/>
        <pt x="88" y="654" on="0"/>
        <pt x="123" y="698" on="0"/>
        <pt x="139" y="708" on="1"/>
        <pt x="160" y="700" on="0"/>
        <pt x="203" y="663" on="0"/>
      </contour>
      <contour>
        <pt x="13" y="-210" on="1"/>
        <pt x="0" y="-165" on="1"/>
        <pt x="64" y="-143" on="0"/>
        <pt x="106" y="-73" on="0"/>
        <pt x="106" y="-11" on="1"/>
        <pt x="106" y="412" on="1"/>
        <pt x="31" y="406" on="1"/>
        <pt x="19" y="453" on="1"/>
        <pt x="49" y="466" on="0"/>
        <pt x="124" y="483" on="0"/>
        <pt x="155" y="484" on="1"/>
        <pt x="195" y="449" on="1"/>
        <pt x="195" y="-61" on="1"/>
        <pt x="195" y="-92" on="0"/>
        <pt x="118" y="-185" on="0"/>
      </contour>
    </TTGlyph>
    <TTGlyph name="k" xMin="15" yMin="-15" xMax="534" yMax="735">
      <contour>
        <pt x="439" y="-15" on="1"/>
        <pt x="416" y="-10" on="0"/>
        <pt x="386" y="19" on="0"/>
        <pt x="367" y="47" on="1"/>
        <pt x="269" y="197" on="1"/>
        <pt x="191" y="185" on="1"/>
        <pt x="191" y="62" on="1"/>
        <pt x="207" y="59" on="0"/>
        <pt x="236" y="52" on="0"/>
        <pt x="246" y="48" on="1"/>
        <pt x="240" y="0" on="1"/>
        <pt x="33" y="0" on="1"/>
        <pt x="28" y="33" on="1"/>
        <pt x="41" y="40" on="0"/>
        <pt x="83" y="54" on="0"/>
        <pt x="102" y="60" on="1"/>
        <pt x="102" y="663" on="1"/>
        <pt x="27" y="657" on="1"/>
        <pt x="15" y="704" on="1"/>
        <pt x="45" y="717" on="0"/>
        <pt x="120" y="734" on="0"/>
        <pt x="151" y="735" on="1"/>
        <pt x="191" y="700" on="1"/>
        <pt x="191" y="234" on="1"/>
        <pt x="267" y="276" on="1"/>
        <pt x="388" y="417" on="1"/>
        <pt x="304" y="406" on="1"/>
        <pt x="292" y="453" on="1"/>
        <pt x="329" y="466" on="0"/>
        <pt x="429" y="483" on="0"/>
        <pt x="460" y="484" on="1"/>
        <pt x="491" y="434" on="1"/>
        <pt x="333" y="251" on="1"/>
        <pt x="455" y="75" on="1"/>
        <pt x="462" y="65" on="0"/>
        <pt x="493" y="65" on="0"/>
        <pt x="519" y="72" on="1"/>
        <pt x="534" y="28" on="1"/>
      </contour>
    </TTGlyph>
    <TTGlyph name="kcommaaccent" xMin="15" yMin="-264" xMax="534" yMax="735">
      <component glyphName="k" x="0" y="0" flags="0x204"/>
      <component glyphName="uni0326" x="279" y="0" flags="0x4"/>
    </TTGlyph>
    <TTGlyph name="l" xMin="15" yMin="0" xMax="263" yMax="735">
      <contour>
        <pt x="31" y="0" on="1"/>
        <pt x="26" y="33" on="1"/>
        <pt x="39" y="40" on="0"/>
        <pt x="83" y="55" on="0"/>
        <pt x="102" y="61" on="1"/>
        <pt x="102" y="663" on="1"/>
        <pt x="27" y="657" on="1"/>
        <pt x="15" y="704" on="1"/>
        <pt x="45" y="717" on="0"/>
        <pt x="120" y="734" on="0"/>
        <pt x="151" y="735" on="1"/>
        <pt x="191" y="700" on="1"/>
        <pt x="191" y="64" on="1"/>
        <pt x="211" y="62" on="0"/>
        <pt x="250" y="54" on="0"/>
        <pt x="263" y="48" on="1"/>
        <pt x="257" y="0" on="1"/>
      </contour>
    </TTGlyph>
    <TTGlyph name="lacute" xMin="15" yMin="0" xMax="306" yMax="959">
      <component glyphName="l" x="0" y="0" flags="0x204"/>
      <component glyphName="acutecomb.case" x="140" y="85" flags="0x4"/>
    </TTGlyph>
    <TTGlyph name="lcaron" xMin="15" yMin="0" xMax="407" yMax="793">
      <component glyphName="l" x="0" y="0" flags="0x204"/>
      <component glyphName="uni030C.calt" x="275" y="31" flags="0x4"/>
    </TTGlyph>
    <TTGlyph name="lcommaaccent" xMin="15" yMin="-264" xMax="263" yMax="735">
      <component glyphName="l" x="0" y="0" flags="0x204"/>
      <component glyphName="uni0326" x="150" y="0" flags="0x4"/>
    </TTGlyph>
    <TTGlyph name="less" xMin="80" yMin="-6" xMax="493" yMax="500">
      <contour>
        <pt x="80" y="272" on="1"/>
        <pt x="458" y="500" on="1"/>
        <pt x="493" y="446" on="1"/>
        <pt x="164" y="241" on="1"/>
        <pt x="165" y="235" on="1"/>
        <pt x="490" y="52" on="1"/>
        <pt x="457" y="-6" on="1"/>
        <pt x="88" y="202" on="1"/>
      </contour>
    </TTGlyph>
    <TTGlyph name="lessequal" xMin="60" yMin="0" xMax="542" yMax="593">
      <contour>
        <pt x="94" y="385" on="1"/>
        <pt x="472" y="593" on="1"/>
        <pt x="507" y="539" on="1"/>
        <pt x="178" y="354" on="1"/>
        <pt x="179" y="348" on="1"/>
        <pt x="504" y="185" on="1"/>
        <pt x="471" y="127" on="1"/>
        <pt x="102" y="315" on="1"/>
      </contour>
      <contour>
        <pt x="60" y="65" on="1"/>
        <pt x="542" y="65" on="1"/>
        <pt x="542" y="0" on="1"/>
        <pt x="60" y="0" on="1"/>
      </contour>
    </TTGlyph>
    <TTGlyph name="logicalnot" xMin="60" yMin="0" xMax="532" yMax="264">
      <contour>
        <pt x="532" y="0" on="1"/>
        <pt x="455" y="0" on="1"/>
        <pt x="455" y="199" on="1"/>
        <pt x="60" y="199" on="1"/>
        <pt x="60" y="264" on="1"/>
        <pt x="532" y="264" on="1"/>
      </contour>
    </TTGlyph>
    <TTGlyph name="lslash" xMin="15" yMin="0" xMax="313" yMax="735">
      <contour>
        <pt x="51" y="0" on="1"/>
        <pt x="46" y="33" on="1"/>
        <pt x="59" y="40" on="0"/>
        <pt x="103" y="55" on="0"/>
        <pt x="122" y="61" on="1"/>
        <pt x="122" y="308" on="1"/>
        <pt x="45" y="265" on="1"/>
        <pt x="15" y="318" on="1"/>
        <pt x="122" y="379" on="1"/>
        <pt x="122" y="663" on="1"/>
        <pt x="47" y="657" on="1"/>
        <pt x="35" y="704" on="1"/>
        <pt x="65" y="717" on="0"/>
        <pt x="140" y="734" on="0"/>
        <pt x="171" y="735" on="1"/>
        <pt x="211" y="700" on="1"/>
        <pt x="211" y="429" on="1"/>
        <pt x="291" y="475" on="1"/>
        <pt x="313" y="458" on="1"/>
        <pt x="312" y="415" on="1"/>
        <pt x="211" y="358" on="1"/>
        <pt x="211" y="64" on="1"/>
        <pt x="231" y="62" on="0"/>
        <pt x="270" y="54" on="0"/>
        <pt x="283" y="48" on="1"/>
        <pt x="277" y="0" on="1"/>
      </contour>
    </TTGlyph>
    <TTGlyph name="m" xMin="15" yMin="0" xMax="858" yMax="484">
      <contour>
        <pt x="36" y="0" on="1"/>
        <pt x="31" y="33" on="1"/>
        <pt x="44" y="39" on="0"/>
        <pt x="83" y="53" on="0"/>
        <pt x="102" y="59" on="1"/>
        <pt x="102" y="412" on="1"/>
        <pt x="27" y="406" on="1"/>
        <pt x="15" y="453" on="1"/>
        <pt x="45" y="466" on="0"/>
        <pt x="120" y="483" on="0"/>
        <pt x="151" y="484" on="1"/>
        <pt x="191" y="449" on="1"/>
        <pt x="191" y="390" on="1"/>
        <pt x="253" y="431" on="0"/>
        <pt x="360" y="484" on="0"/>
        <pt x="384" y="484" on="1"/>
        <pt x="412" y="479" on="0"/>
        <pt x="464" y="438" on="0"/>
        <pt x="475" y="417" on="1"/>
        <pt x="478" y="411" on="0"/>
        <pt x="483" y="397" on="0"/>
        <pt x="484" y="387" on="1"/>
        <pt x="548" y="429" on="0"/>
        <pt x="658" y="484" on="0"/>
        <pt x="683" y="484" on="1"/>
        <pt x="711" y="479" on="0"/>
        <pt x="763" y="438" on="0"/>
        <pt x="774" y="417" on="1"/>
        <pt x="781" y="403" on="0"/>
        <pt x="788" y="352" on="0"/>
        <pt x="788" y="300" on="1"/>
        <pt x="788" y="64" on="1"/>
        <pt x="808" y="61" on="0"/>
        <pt x="846" y="53" on="0"/>
        <pt x="858" y="48" on="1"/>
        <pt x="852" y="0" on="1"/>
        <pt x="647" y="0" on="1"/>
        <pt x="642" y="33" on="1"/>
        <pt x="652" y="38" on="0"/>
        <pt x="683" y="50" on="0"/>
        <pt x="699" y="55" on="1"/>
        <pt x="699" y="296" on="1"/>
        <pt x="699" y="356" on="0"/>
        <pt x="660" y="404" on="0"/>
        <pt x="635" y="404" on="1"/>
        <pt x="607" y="404" on="0"/>
        <pt x="524" y="361" on="0"/>
        <pt x="489" y="336" on="1"/>
        <pt x="489" y="328" on="0"/>
        <pt x="489" y="310" on="0"/>
        <pt x="489" y="300" on="1"/>
        <pt x="489" y="64" on="1"/>
        <pt x="509" y="61" on="0"/>
        <pt x="547" y="53" on="0"/>
        <pt x="559" y="48" on="1"/>
        <pt x="553" y="0" on="1"/>
        <pt x="348" y="0" on="1"/>
        <pt x="343" y="33" on="1"/>
        <pt x="353" y="38" on="0"/>
        <pt x="384" y="50" on="0"/>
        <pt x="400" y="55" on="1"/>
        <pt x="400" y="296" on="1"/>
        <pt x="400" y="356" on="0"/>
        <pt x="361" y="404" on="0"/>
        <pt x="336" y="404" on="1"/>
        <pt x="308" y="404" on="0"/>
        <pt x="226" y="362" on="0"/>
        <pt x="191" y="337" on="1"/>
        <pt x="191" y="63" on="1"/>
        <pt x="210" y="61" on="0"/>
        <pt x="244" y="53" on="0"/>
        <pt x="256" y="48" on="1"/>
        <pt x="250" y="0" on="1"/>
      </contour>
    </TTGlyph>
    <TTGlyph name="macron" xMin="50" yMin="562" xMax="401" yMax="631">
      <component glyphName="uni0304" x="209" y="0" flags="0x4"/>
    </TTGlyph>
    <TTGlyph name="minus" xMin="60" yMin="199" xMax="542" yMax="264">
      <contour>
        <pt x="60" y="264" on="1"/>
        <pt x="542" y="264" on="1"/>
        <pt x="542" y="199" on="1"/>
        <pt x="60" y="199" on="1"/>
      </contour>
    </TTGlyph>
    <TTGlyph name="multiply" xMin="75" yMin="22" xMax="495" yMax="455">
      <contour>
        <pt x="285" y="285" on="1"/>
        <pt x="443" y="455" on="1"/>
        <pt x="495" y="409" on="1"/>
        <pt x="331" y="238" on="1"/>
        <pt x="492" y="69" on="1"/>
        <pt x="443" y="22" on="1"/>
        <pt x="285" y="191" on="1"/>
        <pt x="127" y="22" on="1"/>
        <pt x="77" y="70" on="1"/>
        <pt x="238" y="238" on="1"/>
        <pt x="75" y="409" on="1"/>
        <pt x="127" y="453" on="1"/>
      </contour>
    </TTGlyph>
    <TTGlyph name="n" xMin="15" yMin="0" xMax="570" yMax="484">
      <contour>
        <pt x="36" y="0" on="1"/>
        <pt x="31" y="33" on="1"/>
        <pt x="44" y="39" on="0"/>
        <pt x="83" y="53" on="0"/>
        <pt x="102" y="59" on="1"/>
        <pt x="102" y="412" on="1"/>
        <pt x="27" y="406" on="1"/>
        <pt x="15" y="453" on="1"/>
        <pt x="45" y="466" on="0"/>
        <pt x="120" y="483" on="0"/>
        <pt x="151" y="484" on="1"/>
        <pt x="191" y="449" on="1"/>
        <pt x="191" y="383" on="1"/>
        <pt x="256" y="426" on="0"/>
        <pt x="370" y="484" on="0"/>
        <pt x="395" y="484" on="1"/>
        <pt x="423" y="479" on="0"/>
        <pt x="475" y="438" on="0"/>
        <pt x="486" y="417" on="1"/>
        <pt x="493" y="403" on="0"/>
        <pt x="500" y="352" on="0"/>
        <pt x="500" y="300" on="1"/>
        <pt x="500" y="64" on="1"/>
        <pt x="520" y="61" on="0"/>
        <pt x="558" y="53" on="0"/>
        <pt x="570" y="48" on="1"/>
        <pt x="564" y="0" on="1"/>
        <pt x="359" y="0" on="1"/>
        <pt x="354" y="33" on="1"/>
        <pt x="364" y="38" on="0"/>
        <pt x="395" y="50" on="0"/>
        <pt x="411" y="55" on="1"/>
        <pt x="411" y="296" on="1"/>
        <pt x="411" y="356" on="0"/>
        <pt x="372" y="404" on="0"/>
        <pt x="347" y="404" on="1"/>
        <pt x="317" y="404" on="0"/>
        <pt x="226" y="356" on="0"/>
        <pt x="191" y="329" on="1"/>
        <pt x="191" y="63" on="1"/>
        <pt x="210" y="61" on="0"/>
        <pt x="244" y="53" on="0"/>
        <pt x="256" y="48" on="1"/>
        <pt x="250" y="0" on="1"/>
      </contour>
    </TTGlyph>
    <TTGlyph name="nacute" xMin="15" yMin="0" xMax="570" yMax="734">
      <component glyphName="n" x="0" y="0" flags="0x204"/>
      <component glyphName="acutecomb" x="291" y="0" flags="0x4"/>
    </TTGlyph>
    <TTGlyph name="ncaron" xMin="15" yMin="0" xMax="570" yMax="743">
      <component glyphName="n" x="0" y="0" flags="0x204"/>
      <component glyphName="uni030C" x="291" y="0" flags="0x4"/>
    </TTGlyph>
    <TTGlyph name="ncommaaccent" xMin="15" yMin="-264" xMax="570" yMax="484">
      <component glyphName="n" x="0" y="0" flags="0x204"/>
      <component glyphName="uni0326" x="311" y="0" flags="0x4"/>
    </TTGlyph>
    <TTGlyph name="nine" xMin="30" yMin="-8" xMax="472" yMax="670">
      <contour>
        <pt x="125" y="461" on="1"/>
        <pt x="125" y="382" on="0"/>
        <pt x="240" y="289" on="0"/>
        <pt x="325" y="314" on="1"/>
        <pt x="336" y="261" on="1"/>
        <pt x="265" y="237" on="0"/>
        <pt x="151" y="254" on="0"/>
        <pt x="72" y="313" on="0"/>
        <pt x="30" y="406" on="0"/>
        <pt x="30" y="459" on="1"/>
        <pt x="30" y="558" on="0"/>
        <pt x="160" y="670" on="0"/>
        <pt x="245" y="670" on="1"/>
        <pt x="350" y="670" on="0"/>
        <pt x="472" y="506" on="0"/>
        <pt x="472" y="381" on="1"/>
        <pt x="472" y="291" on="0"/>
        <pt x="410" y="146" on="0"/>
        <pt x="308" y="47" on="0"/>
        <pt x="175" y="-7" on="0"/>
        <pt x="105" y="-8" on="1"/>
        <pt x="89" y="101" on="1"/>
        <pt x="247" y="92" on="1"/>
        <pt x="322" y="139" on="0"/>
        <pt x="378" y="294" on="0"/>
        <pt x="378" y="374" on="1"/>
        <pt x="378" y="425" on="0"/>
        <pt x="358" y="520" on="0"/>
        <pt x="313" y="586" on="0"/>
        <pt x="243" y="616" on="0"/>
        <pt x="194" y="602" on="1"/>
        <pt x="160" y="582" on="0"/>
        <pt x="125" y="502" on="0"/>
      </contour>
    </TTGlyph>
    <TTGlyph name="notequal" xMin="60" yMin="-28" xMax="532" yMax="496">
      <contour>
        <pt x="532" y="124" on="1"/>
        <pt x="264" y="124" on="1"/>
        <pt x="170" y="-28" on="1"/>
        <pt x="120" y="1" on="1"/>
        <pt x="196" y="124" on="1"/>
        <pt x="60" y="124" on="1"/>
        <pt x="60" y="189" on="1"/>
        <pt x="237" y="189" on="1"/>
        <pt x="308" y="304" on="1"/>
        <pt x="60" y="304" on="1"/>
        <pt x="60" y="369" on="1"/>
        <pt x="348" y="369" on="1"/>
        <pt x="427" y="496" on="1"/>
        <pt x="477" y="468" on="1"/>
        <pt x="416" y="369" on="1"/>
        <pt x="532" y="369" on="1"/>
        <pt x="532" y="304" on="1"/>
        <pt x="375" y="304" on="1"/>
        <pt x="304" y="189" on="1"/>
        <pt x="532" y="189" on="1"/>
      </contour>
    </TTGlyph>
    <TTGlyph name="ntilde" xMin="15" yMin="0" xMax="570" yMax="704">
      <component glyphName="n" x="0" y="0" flags="0x204"/>
      <component glyphName="tildecomb" x="291" y="0" flags="0x4"/>
    </TTGlyph>
    <TTGlyph name="numbersign" xMin="60" yMin="-9" xMax="562" yMax="530">
      <contour>
        <pt x="372" y="190" on="1"/>
        <pt x="397" y="355" on="1"/>
        <pt x="254" y="355" on="1"/>
        <pt x="228" y="190" on="1"/>
      </contour>
      <contour>
        <pt x="533" y="138" on="1"/>
        <pt x="428" y="138" on="1"/>
        <pt x="406" y="-9" on="1"/>
        <pt x="343" y="0" on="1"/>
        <pt x="364" y="138" on="1"/>
        <pt x="220" y="138" on="1"/>
        <pt x="198" y="-9" on="1"/>
        <pt x="135" y="0" on="1"/>
        <pt x="156" y="138" on="1"/>
        <pt x="60" y="138" on="1"/>
        <pt x="60" y="190" on="1"/>
        <pt x="164" y="190" on="1"/>
        <pt x="189" y="355" on="1"/>
        <pt x="89" y="355" on="1"/>
        <pt x="89" y="407" on="1"/>
        <pt x="197" y="407" on="1"/>
        <pt x="216" y="530" on="1"/>
        <pt x="279" y="522" on="1"/>
        <pt x="261" y="407" on="1"/>
        <pt x="405" y="407" on="1"/>
        <pt x="424" y="530" on="1"/>
        <pt x="487" y="522" on="1"/>
        <pt x="469" y="407" on="1"/>
        <pt x="562" y="407" on="1"/>
        <pt x="562" y="355" on="1"/>
        <pt x="462" y="355" on="1"/>
        <pt x="436" y="190" on="1"/>
        <pt x="533" y="190" on="1"/>
      </contour>
    </TTGlyph>
    <TTGlyph name="o" xMin="20" yMin="-20" xMax="466" yMax="488">
      <contour>
        <pt x="248" y="-20" on="1"/>
        <pt x="154" y="-20" on="0"/>
        <pt x="20" y="119" on="0"/>
        <pt x="20" y="236" on="1"/>
        <pt x="20" y="355" on="0"/>
        <pt x="156" y="488" on="0"/>
        <pt x="246" y="488" on="1"/>
        <pt x="338" y="488" on="0"/>
        <pt x="466" y="352" on="0"/>
        <pt x="466" y="230" on="1"/>
        <pt x="466" y="106" on="0"/>
        <pt x="335" y="-20" on="0"/>
      </contour>
      <contour>
        <pt x="259" y="45" on="1"/>
        <pt x="269" y="45" on="0"/>
        <pt x="294" y="48" on="0"/>
        <pt x="307" y="52" on="1"/>
        <pt x="349" y="80" on="0"/>
        <pt x="372" y="179" on="0"/>
        <pt x="372" y="219" on="1"/>
        <pt x="372" y="300" on="0"/>
        <pt x="310" y="426" on="0"/>
        <pt x="238" y="426" on="1"/>
        <pt x="215" y="426" on="0"/>
        <pt x="175" y="413" on="0"/>
        <pt x="162" y="404" on="1"/>
        <pt x="136" y="373" on="0"/>
        <pt x="115" y="288" on="0"/>
        <pt x="115" y="247" on="1"/>
        <pt x="115" y="169" on="0"/>
        <pt x="184" y="45" on="0"/>
      </contour>
    </TTGlyph>
    <TTGlyph name="oacute" xMin="20" yMin="-20" xMax="466" yMax="734">
      <component glyphName="o" x="0" y="0" flags="0x204"/>
      <component glyphName="acutecomb" x="242" y="0" flags="0x4"/>
    </TTGlyph>
    <TTGlyph name="ocircumflex" xMin="20" yMin="-20" xMax="466" yMax="717">
      <component glyphName="o" x="0" y="0" flags="0x204"/>
      <component glyphName="uni0302" x="242" y="0" flags="0x4"/>
    </TTGlyph>
    <TTGlyph name="odieresis" xMin="20" yMin="-20" xMax="466" yMax="677">
      <component glyphName="o" x="0" y="0" flags="0x204"/>
      <component glyphName="uni0308" x="242" y="0" flags="0x4"/>
    </TTGlyph>
    <TTGlyph name="oe" xMin="20" yMin="-20" xMax="775" yMax="488">
      <contour>
        <pt x="545" y="427" on="1"/>
        <pt x="514" y="411" on="0"/>
        <pt x="476" y="350" on="0"/>
        <pt x="466" y="315" on="1"/>
        <pt x="687" y="325" on="1"/>
        <pt x="677" y="372" on="0"/>
        <pt x="599" y="431" on="0"/>
      </contour>
      <contour>
        <pt x="259" y="45" on="1"/>
        <pt x="269" y="45" on="0"/>
        <pt x="294" y="48" on="0"/>
        <pt x="307" y="52" on="1"/>
        <pt x="349" y="80" on="0"/>
        <pt x="373" y="180" on="0"/>
        <pt x="373" y="220" on="1"/>
        <pt x="373" y="301" on="0"/>
        <pt x="310" y="426" on="0"/>
        <pt x="238" y="426" on="1"/>
        <pt x="215" y="426" on="0"/>
        <pt x="175" y="413" on="0"/>
        <pt x="162" y="404" on="1"/>
        <pt x="136" y="373" on="0"/>
        <pt x="115" y="288" on="0"/>
        <pt x="115" y="247" on="1"/>
        <pt x="115" y="169" on="0"/>
        <pt x="184" y="45" on="0"/>
      </contour>
      <contour>
        <pt x="611" y="-15" on="1"/>
        <pt x="543" y="-15" on="0"/>
        <pt x="451" y="33" on="0"/>
        <pt x="423" y="70" on="1"/>
        <pt x="392" y="25" on="0"/>
        <pt x="300" y="-20" on="0"/>
        <pt x="248" y="-20" on="1"/>
        <pt x="154" y="-20" on="0"/>
        <pt x="20" y="119" on="0"/>
        <pt x="20" y="236" on="1"/>
        <pt x="20" y="355" on="0"/>
        <pt x="156" y="488" on="0"/>
        <pt x="246" y="488" on="1"/>
        <pt x="299" y="488" on="0"/>
        <pt x="390" y="440" on="0"/>
        <pt x="421" y="396" on="1"/>
        <pt x="451" y="437" on="0"/>
        <pt x="541" y="488" on="0"/>
        <pt x="595" y="488" on="1"/>
        <pt x="673" y="488" on="0"/>
        <pt x="775" y="388" on="0"/>
        <pt x="774" y="313" on="1"/>
        <pt x="717" y="257" on="1"/>
        <pt x="458" y="262" on="1"/>
        <pt x="457" y="257" on="0"/>
        <pt x="457" y="246" on="0"/>
        <pt x="457" y="241" on="1"/>
        <pt x="457" y="150" on="0"/>
        <pt x="555" y="61" on="0"/>
        <pt x="623" y="61" on="1"/>
        <pt x="654" y="61" on="0"/>
        <pt x="718" y="79" on="0"/>
        <pt x="752" y="94" on="1"/>
        <pt x="767" y="51" on="1"/>
      </contour>
    </TTGlyph>
    <TTGlyph name="ogonek" xMin="37" yMin="-248" xMax="271" yMax="26">
      <component glyphName="uni0328" x="229" y="0" flags="0x4"/>
    </TTGlyph>
    <TTGlyph name="ograve" xMin="20" yMin="-20" xMax="466" yMax="734">
      <component glyphName="o" x="0" y="0" flags="0x204"/>
      <component glyphName="gravecomb" x="242" y="0" flags="0x4"/>
    </TTGlyph>
    <TTGlyph name="ohungarumlaut" xMin="20" yMin="-20" xMax="494" yMax="742">
      <component glyphName="o" x="0" y="0" flags="0x204"/>
      <component glyphName="uni030B" x="242" y="0" flags="0x4"/>
    </TTGlyph>
    <TTGlyph name="omacron" xMin="20" yMin="-20" xMax="466" yMax="631">
      <component glyphName="o" x="0" y="0" flags="0x204"/>
      <component glyphName="uni0304" x="241" y="0" flags="0x4"/>
    </TTGlyph>
    <TTGlyph name="one" xMin="25" yMin="0" xMax="387" yMax="670">
      <contour>
        <pt x="44" y="0" on="1"/>
        <pt x="38" y="34" on="1"/>
        <pt x="72" y="47" on="0"/>
        <pt x="140" y="68" on="0"/>
        <pt x="175" y="76" on="1"/>
        <pt x="175" y="557" on="1"/>
        <pt x="53" y="499" on="1"/>
        <pt x="25" y="544" on="1"/>
        <pt x="217" y="670" on="1"/>
        <pt x="264" y="645" on="1"/>
        <pt x="264" y="65" on="1"/>
        <pt x="387" y="48" on="1"/>
        <pt x="381" y="0" on="1"/>
      </contour>
    </TTGlyph>
    <TTGlyph name="one.dnom" xMin="0" yMin="0" xMax="201" yMax="325">
      <component glyphName="onesuperior" x="0" y="-426" flags="0x4"/>
    </TTGlyph>
    <TTGlyph name="one.numr" xMin="0" yMin="345" xMax="201" yMax="670">
      <component glyphName="onesuperior" x="0" y="-81" flags="0x4"/>
    </TTGlyph>
    <TTGlyph name="onehalf" xMin="0" yMin="0" xMax="621" yMax="670">
      <component glyphName="one.numr" x="0" y="0" flags="0x204"/>
      <component glyphName="fraction" x="231" y="0" flags="0x4"/>
      <component glyphName="two.dnom" x="353" y="0" flags="0x4"/>
    </TTGlyph>
    <TTGlyph name="onequarter" xMin="0" yMin="0" xMax="621" yMax="670">
      <component glyphName="one.numr" x="0" y="0" flags="0x204"/>
      <component glyphName="fraction" x="231" y="0" flags="0x4"/>
      <component glyphName="four.dnom" x="353" y="0" flags="0x4"/>
    </TTGlyph>
    <TTGlyph name="onesuperior" xMin="0" yMin="426" xMax="201" yMax="751">
      <contour>
        <pt x="20" y="426" on="1"/>
        <pt x="17" y="442" on="1"/>
        <pt x="30" y="449" on="0"/>
        <pt x="63" y="461" on="0"/>
        <pt x="79" y="465" on="1"/>
        <pt x="79" y="681" on="1"/>
        <pt x="15" y="654" on="1"/>
        <pt x="0" y="682" on="1"/>
        <pt x="111" y="751" on="1"/>
        <pt x="142" y="731" on="1"/>
        <pt x="142" y="461" on="1"/>
        <pt x="201" y="451" on="1"/>
        <pt x="199" y="426" on="1"/>
      </contour>
    </TTGlyph>
    <TTGlyph name="ordfeminine" xMin="30" yMin="204" xMax="374" yMax="626">
      <contour>
        <pt x="131" y="340" on="1"/>
        <pt x="155" y="340" on="0"/>
        <pt x="212" y="357" on="0"/>
        <pt x="230" y="364" on="1"/>
        <pt x="230" y="409" on="1"/>
        <pt x="214" y="410" on="0"/>
        <pt x="175" y="411" on="0"/>
        <pt x="141" y="404" on="0"/>
        <pt x="118" y="386" on="0"/>
        <pt x="118" y="368" on="1"/>
        <pt x="118" y="358" on="0"/>
        <pt x="125" y="345" on="0"/>
      </contour>
      <contour>
        <pt x="160" y="290" on="1"/>
        <pt x="106" y="288" on="0"/>
        <pt x="52" y="337" on="0"/>
        <pt x="52" y="370" on="1"/>
        <pt x="52" y="386" on="0"/>
        <pt x="69" y="424" on="0"/>
        <pt x="92" y="442" on="1"/>
        <pt x="230" y="446" on="1"/>
        <pt x="230" y="508" on="1"/>
        <pt x="230" y="534" on="0"/>
        <pt x="214" y="570" on="0"/>
        <pt x="197" y="579" on="1"/>
        <pt x="172" y="578" on="0"/>
        <pt x="135" y="574" on="0"/>
        <pt x="123" y="570" on="1"/>
        <pt x="119" y="498" on="1"/>
        <pt x="77" y="493" on="1"/>
        <pt x="70" y="511" on="0"/>
        <pt x="62" y="557" on="0"/>
        <pt x="62" y="574" on="1"/>
        <pt x="72" y="585" on="0"/>
        <pt x="114" y="604" on="0"/>
        <pt x="159" y="618" on="0"/>
        <pt x="201" y="626" on="0"/>
        <pt x="212" y="626" on="1"/>
        <pt x="240" y="626" on="0"/>
        <pt x="284" y="585" on="0"/>
        <pt x="293" y="567" on="1"/>
        <pt x="297" y="557" on="0"/>
        <pt x="300" y="533" on="0"/>
        <pt x="300" y="499" on="1"/>
        <pt x="300" y="362" on="1"/>
        <pt x="300" y="355" on="0"/>
        <pt x="310" y="348" on="0"/>
        <pt x="317" y="348" on="1"/>
        <pt x="324" y="348" on="0"/>
        <pt x="341" y="352" on="0"/>
        <pt x="348" y="353" on="1"/>
        <pt x="357" y="324" on="1"/>
        <pt x="286" y="290" on="1"/>
        <pt x="275" y="291" on="0"/>
        <pt x="242" y="319" on="0"/>
        <pt x="235" y="337" on="1"/>
      </contour>
      <contour>
        <pt x="30" y="255" on="1"/>
        <pt x="374" y="255" on="1"/>
        <pt x="374" y="204" on="1"/>
        <pt x="30" y="204" on="1"/>
      </contour>
    </TTGlyph>
    <TTGlyph name="ordmasculine" xMin="20" yMin="204" xMax="364" yMax="629">
      <contour>
        <pt x="191" y="286" on="1"/>
        <pt x="125" y="286" on="0"/>
        <pt x="37" y="382" on="0"/>
        <pt x="37" y="457" on="1"/>
        <pt x="37" y="540" on="0"/>
        <pt x="136" y="629" on="0"/>
        <pt x="193" y="629" on="1"/>
        <pt x="250" y="629" on="0"/>
        <pt x="344" y="537" on="0"/>
        <pt x="344" y="453" on="1"/>
        <pt x="344" y="369" on="0"/>
        <pt x="249" y="286" on="0"/>
      </contour>
      <contour>
        <pt x="204" y="332" on="1"/>
        <pt x="211" y="332" on="0"/>
        <pt x="227" y="334" on="0"/>
        <pt x="235" y="336" on="1"/>
        <pt x="243" y="340" on="0"/>
        <pt x="271" y="390" on="0"/>
        <pt x="271" y="439" on="1"/>
        <pt x="271" y="461" on="0"/>
        <pt x="263" y="512" on="0"/>
        <pt x="241" y="555" on="0"/>
        <pt x="204" y="584" on="0"/>
        <pt x="176" y="584" on="1"/>
        <pt x="167" y="584" on="0"/>
        <pt x="152" y="581" on="0"/>
        <pt x="145" y="578" on="1"/>
        <pt x="130" y="567" on="0"/>
        <pt x="109" y="500" on="0"/>
        <pt x="109" y="461" on="1"/>
        <pt x="109" y="412" on="0"/>
        <pt x="152" y="332" on="0"/>
      </contour>
      <contour>
        <pt x="20" y="255" on="1"/>
        <pt x="364" y="255" on="1"/>
        <pt x="364" y="204" on="1"/>
        <pt x="20" y="204" on="1"/>
      </contour>
    </TTGlyph>
    <TTGlyph name="oslash" xMin="20" yMin="-71" xMax="466" yMax="521">
      <contour>
        <pt x="115" y="247" on="1"/>
        <pt x="115" y="210" on="0"/>
        <pt x="129" y="142" on="0"/>
        <pt x="145" y="114" on="1"/>
        <pt x="317" y="395" on="1"/>
        <pt x="302" y="410" on="0"/>
        <pt x="263" y="426" on="0"/>
        <pt x="238" y="426" on="1"/>
        <pt x="215" y="426" on="0"/>
        <pt x="175" y="413" on="0"/>
        <pt x="162" y="404" on="1"/>
        <pt x="136" y="373" on="0"/>
        <pt x="115" y="288" on="0"/>
      </contour>
      <contour>
        <pt x="259" y="45" on="1"/>
        <pt x="269" y="45" on="0"/>
        <pt x="294" y="48" on="0"/>
        <pt x="307" y="52" on="1"/>
        <pt x="349" y="80" on="0"/>
        <pt x="372" y="179" on="0"/>
        <pt x="372" y="219" on="1"/>
        <pt x="372" y="251" on="0"/>
        <pt x="363" y="313" on="0"/>
        <pt x="353" y="338" on="1"/>
        <pt x="186" y="67" on="1"/>
        <pt x="201" y="57" on="0"/>
        <pt x="237" y="45" on="0"/>
      </contour>
      <contour>
        <pt x="248" y="-20" on="1"/>
        <pt x="221" y="-20" on="0"/>
        <pt x="170" y="-8" on="0"/>
        <pt x="148" y="3" on="1"/>
        <pt x="102" y="-71" on="1"/>
        <pt x="51" y="-38" on="1"/>
        <pt x="98" y="38" on="1"/>
        <pt x="62" y="72" on="0"/>
        <pt x="20" y="173" on="0"/>
        <pt x="20" y="236" on="1"/>
        <pt x="20" y="355" on="0"/>
        <pt x="156" y="488" on="0"/>
        <pt x="246" y="488" on="1"/>
        <pt x="276" y="488" on="0"/>
        <pt x="332" y="473" on="0"/>
        <pt x="356" y="459" on="1"/>
        <pt x="394" y="521" on="1"/>
        <pt x="446" y="491" on="1"/>
        <pt x="402" y="420" on="1"/>
        <pt x="432" y="387" on="0"/>
        <pt x="466" y="290" on="0"/>
        <pt x="466" y="230" on="1"/>
        <pt x="466" y="106" on="0"/>
        <pt x="335" y="-20" on="0"/>
      </contour>
    </TTGlyph>
    <TTGlyph name="otilde" xMin="20" yMin="-20" xMax="466" yMax="704">
      <component glyphName="o" x="0" y="0" flags="0x204"/>
      <component glyphName="tildecomb" x="242" y="0" flags="0x4"/>
    </TTGlyph>
    <TTGlyph name="p" xMin="15" yMin="-204" xMax="525" yMax="491">
      <contour>
        <pt x="308" y="403" on="1"/>
        <pt x="280" y="403" on="0"/>
        <pt x="220" y="375" on="0"/>
        <pt x="190" y="356" on="1"/>
        <pt x="190" y="80" on="1"/>
        <pt x="215" y="64" on="0"/>
        <pt x="295" y="42" on="0"/>
        <pt x="346" y="50" on="1"/>
        <pt x="386" y="75" on="0"/>
        <pt x="431" y="176" on="0"/>
        <pt x="431" y="230" on="1"/>
        <pt x="431" y="297" on="0"/>
        <pt x="363" y="403" on="0"/>
      </contour>
      <contour>
        <pt x="40" y="-204" on="1"/>
        <pt x="35" y="-171" on="1"/>
        <pt x="47" y="-165" on="0"/>
        <pt x="83" y="-152" on="0"/>
        <pt x="101" y="-147" on="1"/>
        <pt x="101" y="412" on="1"/>
        <pt x="27" y="406" on="1"/>
        <pt x="15" y="453" on="1"/>
        <pt x="45" y="466" on="0"/>
        <pt x="120" y="483" on="0"/>
        <pt x="151" y="484" on="1"/>
        <pt x="190" y="449" on="1"/>
        <pt x="190" y="407" on="1"/>
        <pt x="303" y="481" on="1"/>
        <pt x="353" y="491" on="0"/>
        <pt x="435" y="461" on="0"/>
        <pt x="493" y="396" on="0"/>
        <pt x="525" y="302" on="0"/>
        <pt x="525" y="250" on="1"/>
        <pt x="525" y="135" on="0"/>
        <pt x="380" y="-19" on="0"/>
        <pt x="267" y="-19" on="1"/>
        <pt x="248" y="-19" on="0"/>
        <pt x="209" y="-14" on="0"/>
        <pt x="190" y="-10" on="1"/>
        <pt x="190" y="-139" on="1"/>
        <pt x="212" y="-141" on="0"/>
        <pt x="258" y="-150" on="0"/>
        <pt x="272" y="-156" on="1"/>
        <pt x="266" y="-204" on="1"/>
      </contour>
    </TTGlyph>
    <TTGlyph name="paragraph" xMin="0" yMin="-165" xMax="575" yMax="689">
      <contour>
        <pt x="156" y="-165" on="1"/>
        <pt x="150" y="-130" on="1"/>
        <pt x="178" y="-117" on="0"/>
        <pt x="249" y="-98" on="0"/>
        <pt x="268" y="-94" on="1"/>
        <pt x="268" y="600" on="1"/>
        <pt x="210" y="590" on="0"/>
        <pt x="139" y="521" on="0"/>
        <pt x="139" y="457" on="1"/>
        <pt x="139" y="420" on="0"/>
        <pt x="166" y="363" on="0"/>
        <pt x="196" y="326" on="1"/>
        <pt x="158" y="289" on="1"/>
        <pt x="81" y="315" on="0"/>
        <pt x="0" y="422" on="0"/>
        <pt x="0" y="483" on="1"/>
        <pt x="0" y="523" on="0"/>
        <pt x="35" y="600" on="0"/>
        <pt x="107" y="657" on="0"/>
        <pt x="217" y="689" on="0"/>
        <pt x="291" y="684" on="1"/>
        <pt x="560" y="646" on="1"/>
        <pt x="553" y="589" on="1"/>
        <pt x="478" y="595" on="1"/>
        <pt x="478" y="-107" on="1"/>
        <pt x="575" y="-118" on="1"/>
        <pt x="574" y="-165" on="1"/>
        <pt x="413" y="-165" on="1"/>
        <pt x="413" y="601" on="1"/>
        <pt x="378" y="604" on="1"/>
        <pt x="367" y="605" on="0"/>
        <pt x="343" y="606" on="0"/>
        <pt x="333" y="606" on="1"/>
        <pt x="333" y="-165" on="1"/>
      </contour>
    </TTGlyph>
    <TTGlyph name="parenleft" xMin="24" yMin="-155" xMax="253" yMax="732">
      <contour>
        <pt x="244" y="-128" on="1"/>
        <pt x="190" y="-155" on="1"/>
        <pt x="114" y="-51" on="0"/>
        <pt x="24" y="175" on="0"/>
        <pt x="24" y="294" on="1"/>
        <pt x="24" y="393" on="0"/>
        <pt x="107" y="618" on="0"/>
        <pt x="201" y="732" on="1"/>
        <pt x="253" y="706" on="1"/>
        <pt x="183" y="602" on="0"/>
        <pt x="118" y="392" on="0"/>
        <pt x="118" y="299" on="1"/>
        <pt x="118" y="189" on="0"/>
        <pt x="186" y="-29" on="0"/>
      </contour>
    </TTGlyph>
    <TTGlyph name="parenright" xMin="22" yMin="-155" xMax="251" yMax="732">
      <contour>
        <pt x="251" y="294" on="1"/>
        <pt x="251" y="175" on="0"/>
        <pt x="161" y="-51" on="0"/>
        <pt x="85" y="-155" on="1"/>
        <pt x="31" y="-128" on="1"/>
        <pt x="89" y="-29" on="0"/>
        <pt x="157" y="189" on="0"/>
        <pt x="157" y="299" on="1"/>
        <pt x="157" y="392" on="0"/>
        <pt x="92" y="602" on="0"/>
        <pt x="22" y="706" on="1"/>
        <pt x="74" y="732" on="1"/>
        <pt x="168" y="618" on="0"/>
        <pt x="251" y="393" on="0"/>
      </contour>
    </TTGlyph>
    <TTGlyph name="partialdiff" xMin="93" yMin="-34" xMax="544" yMax="761">
      <contour>
        <pt x="302" y="-34" on="1"/>
        <pt x="203" y="-34" on="0"/>
        <pt x="93" y="102" on="0"/>
        <pt x="93" y="197" on="1"/>
        <pt x="93" y="255" on="0"/>
        <pt x="134" y="355" on="0"/>
        <pt x="202" y="428" on="0"/>
        <pt x="292" y="469" on="0"/>
        <pt x="341" y="469" on="1"/>
        <pt x="439" y="436" on="1"/>
        <pt x="411" y="529" on="0"/>
        <pt x="286" y="680" on="0"/>
        <pt x="196" y="708" on="1"/>
        <pt x="213" y="761" on="1"/>
        <pt x="293" y="738" on="0"/>
        <pt x="417" y="644" on="0"/>
        <pt x="501" y="521" on="0"/>
        <pt x="544" y="372" on="0"/>
        <pt x="544" y="294" on="1"/>
        <pt x="544" y="230" on="0"/>
        <pt x="514" y="111" on="0"/>
        <pt x="454" y="21" on="0"/>
        <pt x="363" y="-34" on="0"/>
      </contour>
      <contour>
        <pt x="310" y="30" on="1"/>
        <pt x="384" y="50" on="0"/>
        <pt x="459" y="204" on="0"/>
        <pt x="459" y="297" on="1"/>
        <pt x="459" y="320" on="0"/>
        <pt x="454" y="368" on="0"/>
        <pt x="450" y="392" on="1"/>
        <pt x="383" y="408" on="0"/>
        <pt x="281" y="381" on="0"/>
        <pt x="214" y="319" on="0"/>
        <pt x="180" y="232" on="0"/>
        <pt x="180" y="187" on="1"/>
        <pt x="180" y="122" on="0"/>
        <pt x="248" y="32" on="0"/>
      </contour>
    </TTGlyph>
    <TTGlyph name="percent" xMin="60" yMin="-28" xMax="763" yMax="587">
      <contour>
        <pt x="206" y="284" on="1"/>
        <pt x="146" y="284" on="0"/>
        <pt x="60" y="371" on="0"/>
        <pt x="60" y="434" on="1"/>
        <pt x="60" y="494" on="0"/>
        <pt x="142" y="587" on="0"/>
        <pt x="201" y="587" on="1"/>
        <pt x="260" y="587" on="0"/>
        <pt x="343" y="494" on="0"/>
        <pt x="343" y="431" on="1"/>
        <pt x="343" y="370" on="0"/>
        <pt x="265" y="284" on="0"/>
      </contour>
      <contour>
        <pt x="201" y="-28" on="1"/>
        <pt x="151" y="13" on="1"/>
        <pt x="600" y="582" on="1"/>
        <pt x="649" y="541" on="1"/>
      </contour>
      <contour>
        <pt x="128" y="437" on="1"/>
        <pt x="128" y="396" on="0"/>
        <pt x="179" y="333" on="0"/>
        <pt x="233" y="341" on="1"/>
        <pt x="254" y="356" on="0"/>
        <pt x="274" y="405" on="0"/>
        <pt x="274" y="431" on="1"/>
        <pt x="274" y="474" on="0"/>
        <pt x="218" y="538" on="0"/>
        <pt x="164" y="525" on="1"/>
        <pt x="146" y="509" on="0"/>
        <pt x="128" y="462" on="0"/>
      </contour>
      <contour>
        <pt x="626" y="-20" on="1"/>
        <pt x="566" y="-20" on="0"/>
        <pt x="480" y="67" on="0"/>
        <pt x="480" y="130" on="1"/>
        <pt x="480" y="190" on="0"/>
        <pt x="562" y="283" on="0"/>
        <pt x="621" y="283" on="1"/>
        <pt x="680" y="283" on="0"/>
        <pt x="763" y="190" on="0"/>
        <pt x="763" y="127" on="1"/>
        <pt x="763" y="66" on="0"/>
        <pt x="685" y="-20" on="0"/>
      </contour>
      <contour>
        <pt x="548" y="133" on="1"/>
        <pt x="548" y="92" on="0"/>
        <pt x="599" y="29" on="0"/>
        <pt x="653" y="37" on="1"/>
        <pt x="674" y="52" on="0"/>
        <pt x="694" y="101" on="0"/>
        <pt x="694" y="127" on="1"/>
        <pt x="694" y="170" on="0"/>
        <pt x="638" y="234" on="0"/>
        <pt x="584" y="221" on="1"/>
        <pt x="566" y="205" on="0"/>
        <pt x="548" y="158" on="0"/>
      </contour>
    </TTGlyph>
    <TTGlyph name="period" xMin="81" yMin="-33" xMax="200" yMax="85">
      <contour>
        <pt x="200" y="33" on="1"/>
        <pt x="193" y="15" on="0"/>
        <pt x="164" y="-23" on="0"/>
        <pt x="148" y="-33" on="1"/>
        <pt x="132" y="-27" on="0"/>
        <pt x="91" y="4" on="0"/>
        <pt x="81" y="19" on="1"/>
        <pt x="91" y="38" on="0"/>
        <pt x="120" y="76" on="0"/>
        <pt x="135" y="85" on="1"/>
        <pt x="153" y="78" on="0"/>
        <pt x="190" y="46" on="0"/>
      </contour>
    </TTGlyph>
    <TTGlyph name="period.deva" xMin="81" yMin="-33" xMax="200" yMax="85">
      <contour>
        <pt x="200" y="33" on="1"/>
        <pt x="193" y="15" on="0"/>
        <pt x="164" y="-23" on="0"/>
        <pt x="148" y="-33" on="1"/>
        <pt x="132" y="-27" on="0"/>
        <pt x="91" y="4" on="0"/>
        <pt x="81" y="19" on="1"/>
        <pt x="91" y="38" on="0"/>
        <pt x="120" y="76" on="0"/>
        <pt x="135" y="85" on="1"/>
        <pt x="153" y="78" on="0"/>
        <pt x="190" y="46" on="0"/>
      </contour>
    </TTGlyph>
    <TTGlyph name="periodcentered" xMin="30" yMin="191" xMax="149" yMax="309">
      <contour>
        <pt x="149" y="257" on="1"/>
        <pt x="142" y="239" on="0"/>
        <pt x="113" y="201" on="0"/>
        <pt x="97" y="191" on="1"/>
        <pt x="81" y="197" on="0"/>
        <pt x="40" y="228" on="0"/>
        <pt x="30" y="243" on="1"/>
        <pt x="40" y="262" on="0"/>
        <pt x="69" y="300" on="0"/>
        <pt x="84" y="309" on="1"/>
        <pt x="102" y="302" on="0"/>
        <pt x="139" y="270" on="0"/>
      </contour>
    </TTGlyph>
    <TTGlyph name="perthousand" xMin="60" yMin="-38" xMax="1118" yMax="587">
      <contour>
        <pt x="204" y="284" on="1"/>
        <pt x="147" y="284" on="0"/>
        <pt x="60" y="372" on="0"/>
        <pt x="60" y="435" on="1"/>
        <pt x="60" y="494" on="0"/>
        <pt x="142" y="587" on="0"/>
        <pt x="200" y="587" on="1"/>
        <pt x="260" y="587" on="0"/>
        <pt x="343" y="494" on="0"/>
        <pt x="343" y="435" on="1"/>
        <pt x="343" y="371" on="0"/>
        <pt x="264" y="284" on="0"/>
      </contour>
      <contour>
        <pt x="220" y="-38" on="1"/>
        <pt x="168" y="0" on="1"/>
        <pt x="576" y="574" on="1"/>
        <pt x="629" y="538" on="1"/>
      </contour>
      <contour>
        <pt x="215" y="343" on="1"/>
        <pt x="221" y="343" on="0"/>
        <pt x="233" y="345" on="0"/>
        <pt x="240" y="346" on="1"/>
        <pt x="257" y="360" on="0"/>
        <pt x="273" y="402" on="0"/>
        <pt x="273" y="424" on="1"/>
        <pt x="273" y="461" on="0"/>
        <pt x="230" y="525" on="0"/>
        <pt x="190" y="525" on="1"/>
        <pt x="183" y="525" on="0"/>
        <pt x="166" y="522" on="0"/>
        <pt x="157" y="519" on="1"/>
        <pt x="143" y="505" on="0"/>
        <pt x="129" y="465" on="0"/>
        <pt x="129" y="443" on="1"/>
        <pt x="129" y="406" on="0"/>
        <pt x="172" y="343" on="0"/>
      </contour>
      <contour>
        <pt x="979" y="-27" on="1"/>
        <pt x="922" y="-27" on="0"/>
        <pt x="835" y="61" on="0"/>
        <pt x="835" y="124" on="1"/>
        <pt x="835" y="183" on="0"/>
        <pt x="917" y="276" on="0"/>
        <pt x="975" y="276" on="1"/>
        <pt x="1035" y="276" on="0"/>
        <pt x="1118" y="183" on="0"/>
        <pt x="1118" y="124" on="1"/>
        <pt x="1118" y="60" on="0"/>
        <pt x="1039" y="-27" on="0"/>
      </contour>
      <contour>
        <pt x="624" y="-27" on="1"/>
        <pt x="567" y="-27" on="0"/>
        <pt x="480" y="61" on="0"/>
        <pt x="480" y="124" on="1"/>
        <pt x="480" y="183" on="0"/>
        <pt x="562" y="276" on="0"/>
        <pt x="620" y="276" on="1"/>
        <pt x="680" y="276" on="0"/>
        <pt x="763" y="183" on="0"/>
        <pt x="763" y="124" on="1"/>
        <pt x="763" y="60" on="0"/>
        <pt x="684" y="-27" on="0"/>
      </contour>
      <contour>
        <pt x="990" y="32" on="1"/>
        <pt x="996" y="32" on="0"/>
        <pt x="1008" y="34" on="0"/>
        <pt x="1015" y="35" on="1"/>
        <pt x="1032" y="49" on="0"/>
        <pt x="1048" y="91" on="0"/>
        <pt x="1048" y="113" on="1"/>
        <pt x="1048" y="150" on="0"/>
        <pt x="1005" y="214" on="0"/>
        <pt x="965" y="214" on="1"/>
        <pt x="958" y="214" on="0"/>
        <pt x="941" y="211" on="0"/>
        <pt x="932" y="208" on="1"/>
        <pt x="918" y="194" on="0"/>
        <pt x="904" y="154" on="0"/>
        <pt x="904" y="132" on="1"/>
        <pt x="904" y="95" on="0"/>
        <pt x="947" y="32" on="0"/>
      </contour>
      <contour>
        <pt x="635" y="32" on="1"/>
        <pt x="641" y="32" on="0"/>
        <pt x="653" y="34" on="0"/>
        <pt x="660" y="35" on="1"/>
        <pt x="677" y="49" on="0"/>
        <pt x="693" y="91" on="0"/>
        <pt x="693" y="113" on="1"/>
        <pt x="693" y="150" on="0"/>
        <pt x="650" y="214" on="0"/>
        <pt x="610" y="214" on="1"/>
        <pt x="603" y="214" on="0"/>
        <pt x="586" y="211" on="0"/>
        <pt x="577" y="208" on="1"/>
        <pt x="563" y="194" on="0"/>
        <pt x="549" y="154" on="0"/>
        <pt x="549" y="132" on="1"/>
        <pt x="549" y="95" on="0"/>
        <pt x="592" y="32" on="0"/>
      </contour>
    </TTGlyph>
    <TTGlyph name="pi" xMin="30" yMin="-13" xMax="607" yMax="468">
      <contour>
        <pt x="272" y="229" on="1"/>
        <pt x="268" y="122" on="0"/>
        <pt x="218" y="-13" on="0"/>
        <pt x="140" y="-13" on="1"/>
        <pt x="121" y="-13" on="0"/>
        <pt x="75" y="-4" on="0"/>
        <pt x="47" y="6" on="1"/>
        <pt x="80" y="86" on="1"/>
        <pt x="102" y="73" on="0"/>
        <pt x="148" y="52" on="0"/>
        <pt x="170" y="42" on="1"/>
        <pt x="177" y="61" on="0"/>
        <pt x="182" y="159" on="0"/>
        <pt x="183" y="198" on="1"/>
        <pt x="190" y="402" on="1"/>
        <pt x="137" y="404" on="1"/>
        <pt x="58" y="348" on="1"/>
        <pt x="30" y="379" on="1"/>
        <pt x="49" y="407" on="0"/>
        <pt x="109" y="460" on="0"/>
        <pt x="135" y="468" on="1"/>
        <pt x="603" y="468" on="1"/>
        <pt x="607" y="420" on="1"/>
        <pt x="568" y="391" on="1"/>
        <pt x="496" y="393" on="1"/>
        <pt x="526" y="0" on="1"/>
        <pt x="464" y="-4" on="1"/>
        <pt x="430" y="28" on="1"/>
        <pt x="426" y="395" on="1"/>
        <pt x="279" y="400" on="1"/>
      </contour>
    </TTGlyph>
    <TTGlyph name="plus" xMin="60" yMin="0" xMax="511" yMax="465">
      <contour>
        <pt x="324" y="265" on="1"/>
        <pt x="511" y="265" on="1"/>
        <pt x="511" y="199" on="1"/>
        <pt x="324" y="199" on="1"/>
        <pt x="324" y="0" on="1"/>
        <pt x="247" y="0" on="1"/>
        <pt x="247" y="199" on="1"/>
        <pt x="60" y="199" on="1"/>
        <pt x="60" y="265" on="1"/>
        <pt x="247" y="265" on="1"/>
        <pt x="247" y="465" on="1"/>
        <pt x="324" y="465" on="1"/>
      </contour>
    </TTGlyph>
    <TTGlyph name="plusminus" xMin="60" yMin="0" xMax="471" yMax="563">
      <contour>
        <pt x="304" y="383" on="1"/>
        <pt x="471" y="383" on="1"/>
        <pt x="471" y="321" on="1"/>
        <pt x="304" y="321" on="1"/>
        <pt x="304" y="138" on="1"/>
        <pt x="227" y="138" on="1"/>
        <pt x="227" y="321" on="1"/>
        <pt x="60" y="321" on="1"/>
        <pt x="60" y="383" on="1"/>
        <pt x="227" y="383" on="1"/>
        <pt x="227" y="563" on="1"/>
        <pt x="304" y="563" on="1"/>
      </contour>
      <contour>
        <pt x="66" y="62" on="1"/>
        <pt x="461" y="62" on="1"/>
        <pt x="461" y="0" on="1"/>
        <pt x="67" y="0" on="1"/>
      </contour>
    </TTGlyph>
    <TTGlyph name="product" xMin="30" yMin="-100" xMax="750" yMax="735">
      <contour>
        <pt x="78" y="-100" on="1"/>
        <pt x="72" y="-68" on="1"/>
        <pt x="91" y="-59" on="0"/>
        <pt x="135" y="-44" on="0"/>
        <pt x="157" y="-37" on="1"/>
        <pt x="157" y="671" on="1"/>
        <pt x="36" y="671" on="1"/>
        <pt x="30" y="700" on="1"/>
        <pt x="54" y="716" on="0"/>
        <pt x="100" y="735" on="0"/>
        <pt x="123" y="735" on="1"/>
        <pt x="746" y="735" on="1"/>
        <pt x="750" y="700" on="1"/>
        <pt x="711" y="671" on="1"/>
        <pt x="628" y="671" on="1"/>
        <pt x="628" y="-42" on="1"/>
        <pt x="725" y="-53" on="1"/>
        <pt x="724" y="-100" on="1"/>
        <pt x="456" y="-100" on="1"/>
        <pt x="450" y="-68" on="1"/>
        <pt x="469" y="-59" on="0"/>
        <pt x="513" y="-44" on="0"/>
        <pt x="535" y="-37" on="1"/>
        <pt x="535" y="671" on="1"/>
        <pt x="250" y="671" on="1"/>
        <pt x="250" y="-42" on="1"/>
        <pt x="347" y="-53" on="1"/>
        <pt x="346" y="-100" on="1"/>
      </contour>
    </TTGlyph>
</ttFont>
